<svg width="156" height="152" viewBox="0 0 156 152" fill="none" xmlns="http://www.w3.org/2000/svg">
<path d="M1.68951 3.37999C2.62287 3.37999 3.37951 2.62335 3.37951 1.68999C3.37951 0.756626 2.62287 0 1.68951 0C0.756149 0 -0.000488281 0.756626 -0.000488281 1.68999C-0.000488281 2.62335 0.756149 3.37999 1.68951 3.37999Z" fill="white"/>
<path d="M16.8895 3.37999C17.8228 3.37999 18.5795 2.62335 18.5795 1.68999C18.5795 0.756626 17.8228 0 16.8895 0C15.9561 0 15.1995 0.756626 15.1995 1.68999C15.1995 2.62335 15.9561 3.37999 16.8895 3.37999Z" fill="white"/>
<path d="M32.0895 3.37999C33.0229 3.37999 33.7795 2.62335 33.7795 1.68999C33.7795 0.756626 33.0229 0 32.0895 0C31.1562 0 30.3995 0.756626 30.3995 1.68999C30.3995 2.62335 31.1562 3.37999 32.0895 3.37999Z" fill="white"/>
<path d="M48.9795 1.68999C48.9795 2.61999 48.2195 3.37999 47.2895 3.37999C46.3595 3.37999 45.5995 2.61999 45.5995 1.68999C45.5995 0.759987 46.3595 0 47.2895 0C48.2195 0 48.9795 0.759987 48.9795 1.68999Z" fill="white"/>
<path d="M64.1796 1.68999C64.1796 2.61999 63.4196 3.37999 62.4896 3.37999C61.5596 3.37999 60.7996 2.61999 60.7996 1.68999C60.7996 0.759987 61.5596 0 62.4896 0C63.4196 0 64.1796 0.759987 64.1796 1.68999Z" fill="white"/>
<path d="M77.6895 3.37999C78.6229 3.37999 79.3795 2.62335 79.3795 1.68999C79.3795 0.756626 78.6229 0 77.6895 0C76.7562 0 75.9995 0.756626 75.9995 1.68999C75.9995 2.62335 76.7562 3.37999 77.6895 3.37999Z" fill="white"/>
<path d="M92.8895 3.37999C93.8228 3.37999 94.5795 2.62335 94.5795 1.68999C94.5795 0.756626 93.8228 0 92.8895 0C91.9561 0 91.1995 0.756626 91.1995 1.68999C91.1995 2.62335 91.9561 3.37999 92.8895 3.37999Z" fill="white"/>
<path d="M108.09 3.37999C109.023 3.37999 109.78 2.62335 109.78 1.68999C109.78 0.756626 109.023 0 108.09 0C107.156 0 106.4 0.756626 106.4 1.68999C106.4 2.62335 107.156 3.37999 108.09 3.37999Z" fill="white"/>
<path d="M123.289 3.37999C124.223 3.37999 124.979 2.62335 124.979 1.68999C124.979 0.756626 124.223 0 123.289 0C122.356 0 121.599 0.756626 121.599 1.68999C121.599 2.62335 122.356 3.37999 123.289 3.37999Z" fill="white"/>
<path d="M138.49 3.37999C139.423 3.37999 140.18 2.62335 140.18 1.68999C140.18 0.756626 139.423 0 138.49 0C137.556 0 136.8 0.756626 136.8 1.68999C136.8 2.62335 137.556 3.37999 138.49 3.37999Z" fill="white"/>
<path d="M153.69 3.37999C154.623 3.37999 155.38 2.62335 155.38 1.68999C155.38 0.756626 154.623 0 153.69 0C152.756 0 152 0.756626 152 1.68999C152 2.62335 152.756 3.37999 153.69 3.37999Z" fill="white"/>
<path d="M1.68951 16.89C2.62287 16.89 3.37951 16.1334 3.37951 15.2C3.37951 14.2667 2.62287 13.51 1.68951 13.51C0.756149 13.51 -0.000488281 14.2667 -0.000488281 15.2C-0.000488281 16.1334 0.756149 16.89 1.68951 16.89Z" fill="white"/>
<path d="M16.8895 16.89C17.8228 16.89 18.5795 16.1334 18.5795 15.2C18.5795 14.2667 17.8228 13.51 16.8895 13.51C15.9561 13.51 15.1995 14.2667 15.1995 15.2C15.1995 16.1334 15.9561 16.89 16.8895 16.89Z" fill="white"/>
<path d="M32.0895 16.89C33.0229 16.89 33.7795 16.1334 33.7795 15.2C33.7795 14.2667 33.0229 13.51 32.0895 13.51C31.1562 13.51 30.3995 14.2667 30.3995 15.2C30.3995 16.1334 31.1562 16.89 32.0895 16.89Z" fill="white"/>
<path d="M48.9795 15.2C48.9795 16.13 48.2195 16.89 47.2895 16.89C46.3595 16.89 45.5995 16.13 45.5995 15.2C45.5995 14.27 46.3595 13.51 47.2895 13.51C48.2195 13.51 48.9795 14.27 48.9795 15.2Z" fill="white"/>
<path d="M64.1796 15.2C64.1796 16.13 63.4196 16.89 62.4896 16.89C61.5596 16.89 60.7996 16.13 60.7996 15.2C60.7996 14.27 61.5596 13.51 62.4896 13.51C63.4196 13.51 64.1796 14.27 64.1796 15.2Z" fill="white"/>
<path d="M77.6895 16.89C78.6229 16.89 79.3795 16.1334 79.3795 15.2C79.3795 14.2667 78.6229 13.51 77.6895 13.51C76.7562 13.51 75.9995 14.2667 75.9995 15.2C75.9995 16.1334 76.7562 16.89 77.6895 16.89Z" fill="white"/>
<path d="M92.8895 16.89C93.8228 16.89 94.5795 16.1334 94.5795 15.2C94.5795 14.2667 93.8228 13.51 92.8895 13.51C91.9561 13.51 91.1995 14.2667 91.1995 15.2C91.1995 16.1334 91.9561 16.89 92.8895 16.89Z" fill="white"/>
<path d="M108.09 16.89C109.023 16.89 109.78 16.1334 109.78 15.2C109.78 14.2667 109.023 13.51 108.09 13.51C107.156 13.51 106.4 14.2667 106.4 15.2C106.4 16.1334 107.156 16.89 108.09 16.89Z" fill="white"/>
<path d="M123.289 16.89C124.223 16.89 124.979 16.1334 124.979 15.2C124.979 14.2667 124.223 13.51 123.289 13.51C122.356 13.51 121.599 14.2667 121.599 15.2C121.599 16.1334 122.356 16.89 123.289 16.89Z" fill="white"/>
<path d="M138.49 16.89C139.423 16.89 140.18 16.1334 140.18 15.2C140.18 14.2667 139.423 13.51 138.49 13.51C137.556 13.51 136.8 14.2667 136.8 15.2C136.8 16.1334 137.556 16.89 138.49 16.89Z" fill="white"/>
<path d="M153.69 16.89C154.623 16.89 155.38 16.1334 155.38 15.2C155.38 14.2667 154.623 13.51 153.69 13.51C152.756 13.51 152 14.2667 152 15.2C152 16.1334 152.756 16.89 153.69 16.89Z" fill="white"/>
<path d="M1.68951 30.4C2.62287 30.4 3.37951 29.6434 3.37951 28.71C3.37951 27.7767 2.62287 27.02 1.68951 27.02C0.756149 27.02 -0.000488281 27.7767 -0.000488281 28.71C-0.000488281 29.6434 0.756149 30.4 1.68951 30.4Z" fill="white"/>
<path d="M16.8895 30.4C17.8228 30.4 18.5795 29.6434 18.5795 28.71C18.5795 27.7767 17.8228 27.02 16.8895 27.02C15.9561 27.02 15.1995 27.7767 15.1995 28.71C15.1995 29.6434 15.9561 30.4 16.8895 30.4Z" fill="white"/>
<path d="M32.0895 30.4C33.0229 30.4 33.7795 29.6434 33.7795 28.71C33.7795 27.7767 33.0229 27.02 32.0895 27.02C31.1562 27.02 30.3995 27.7767 30.3995 28.71C30.3995 29.6434 31.1562 30.4 32.0895 30.4Z" fill="white"/>
<path d="M48.9795 28.71C48.9795 29.64 48.2195 30.4 47.2895 30.4C46.3595 30.4 45.5995 29.64 45.5995 28.71C45.5995 27.78 46.3595 27.02 47.2895 27.02C48.2195 27.02 48.9795 27.78 48.9795 28.71Z" fill="white"/>
<path d="M64.1796 28.71C64.1796 29.64 63.4196 30.4 62.4896 30.4C61.5596 30.4 60.7996 29.64 60.7996 28.71C60.7996 27.78 61.5596 27.02 62.4896 27.02C63.4196 27.02 64.1796 27.78 64.1796 28.71Z" fill="white"/>
<path d="M77.6895 30.4C78.6229 30.4 79.3795 29.6434 79.3795 28.71C79.3795 27.7767 78.6229 27.02 77.6895 27.02C76.7562 27.02 75.9995 27.7767 75.9995 28.71C75.9995 29.6434 76.7562 30.4 77.6895 30.4Z" fill="white"/>
<path d="M92.8895 30.4C93.8228 30.4 94.5795 29.6434 94.5795 28.71C94.5795 27.7767 93.8228 27.02 92.8895 27.02C91.9561 27.02 91.1995 27.7767 91.1995 28.71C91.1995 29.6434 91.9561 30.4 92.8895 30.4Z" fill="white"/>
<path d="M108.09 30.4C109.023 30.4 109.78 29.6434 109.78 28.71C109.78 27.7767 109.023 27.02 108.09 27.02C107.156 27.02 106.4 27.7767 106.4 28.71C106.4 29.6434 107.156 30.4 108.09 30.4Z" fill="white"/>
<path d="M123.289 30.4C124.223 30.4 124.979 29.6434 124.979 28.71C124.979 27.7767 124.223 27.02 123.289 27.02C122.356 27.02 121.599 27.7767 121.599 28.71C121.599 29.6434 122.356 30.4 123.289 30.4Z" fill="white"/>
<path d="M138.49 30.4C139.423 30.4 140.18 29.6434 140.18 28.71C140.18 27.7767 139.423 27.02 138.49 27.02C137.556 27.02 136.8 27.7767 136.8 28.71C136.8 29.6434 137.556 30.4 138.49 30.4Z" fill="white"/>
<path d="M153.69 30.4C154.623 30.4 155.38 29.6434 155.38 28.71C155.38 27.7767 154.623 27.02 153.69 27.02C152.756 27.02 152 27.7767 152 28.71C152 29.6434 152.756 30.4 153.69 30.4Z" fill="white"/>
<path d="M3.37951 42.22C3.37951 43.15 2.61951 43.91 1.68951 43.91C0.75951 43.91 -0.000488281 43.15 -0.000488281 42.22C-0.000488281 41.29 0.75951 40.53 1.68951 40.53C2.61951 40.53 3.37951 41.29 3.37951 42.22Z" fill="white"/>
<path d="M18.5795 42.22C18.5795 43.15 17.8195 43.91 16.8895 43.91C15.9595 43.91 15.1995 43.15 15.1995 42.22C15.1995 41.29 15.9595 40.53 16.8895 40.53C17.8195 40.53 18.5795 41.29 18.5795 42.22Z" fill="white"/>
<path d="M33.7795 42.22C33.7795 43.15 33.0195 43.91 32.0895 43.91C31.1595 43.91 30.3995 43.15 30.3995 42.22C30.3995 41.29 31.1595 40.53 32.0895 40.53C33.0195 40.53 33.7795 41.29 33.7795 42.22Z" fill="white"/>
<path d="M48.9795 42.22C48.9795 43.15 48.2195 43.91 47.2895 43.91C46.3595 43.91 45.5995 43.15 45.5995 42.22C45.5995 41.29 46.3595 40.53 47.2895 40.53C48.2195 40.53 48.9795 41.29 48.9795 42.22Z" fill="white"/>
<path d="M64.1796 42.22C64.1796 43.15 63.4196 43.91 62.4896 43.91C61.5596 43.91 60.7996 43.15 60.7996 42.22C60.7996 41.29 61.5596 40.53 62.4896 40.53C63.4196 40.53 64.1796 41.29 64.1796 42.22Z" fill="white"/>
<path d="M79.3795 42.22C79.3795 43.15 78.6195 43.91 77.6895 43.91C76.7595 43.91 75.9995 43.15 75.9995 42.22C75.9995 41.29 76.7595 40.53 77.6895 40.53C78.6195 40.53 79.3795 41.29 79.3795 42.22Z" fill="white"/>
<path d="M94.5795 42.22C94.5795 43.15 93.8195 43.91 92.8895 43.91C91.9595 43.91 91.1995 43.15 91.1995 42.22C91.1995 41.29 91.9595 40.53 92.8895 40.53C93.8195 40.53 94.5795 41.29 94.5795 42.22Z" fill="white"/>
<path d="M109.78 42.22C109.78 43.15 109.02 43.91 108.09 43.91C107.16 43.91 106.4 43.15 106.4 42.22C106.4 41.29 107.16 40.53 108.09 40.53C109.02 40.53 109.78 41.29 109.78 42.22Z" fill="white"/>
<path d="M124.979 42.22C124.979 43.15 124.219 43.91 123.289 43.91C122.359 43.91 121.599 43.15 121.599 42.22C121.599 41.29 122.359 40.53 123.289 40.53C124.219 40.53 124.979 41.29 124.979 42.22Z" fill="white"/>
<path d="M140.18 42.22C140.18 43.15 139.42 43.91 138.49 43.91C137.56 43.91 136.8 43.15 136.8 42.22C136.8 41.29 137.56 40.53 138.49 40.53C139.42 40.53 140.18 41.29 140.18 42.22Z" fill="white"/>
<path d="M155.38 42.22C155.38 43.15 154.62 43.91 153.69 43.91C152.76 43.91 152 43.15 152 42.22C152 41.29 152.76 40.53 153.69 40.53C154.62 40.53 155.38 41.29 155.38 42.22Z" fill="white"/>
<path d="M3.37951 55.73C3.37951 56.66 2.61951 57.42 1.68951 57.42C0.75951 57.42 -0.000488281 56.66 -0.000488281 55.73C-0.000488281 54.8 0.75951 54.04 1.68951 54.04C2.61951 54.04 3.37951 54.8 3.37951 55.73Z" fill="white"/>
<path d="M18.5795 55.73C18.5795 56.66 17.8195 57.42 16.8895 57.42C15.9595 57.42 15.1995 56.66 15.1995 55.73C15.1995 54.8 15.9595 54.04 16.8895 54.04C17.8195 54.04 18.5795 54.8 18.5795 55.73Z" fill="white"/>
<path d="M33.7795 55.73C33.7795 56.66 33.0195 57.42 32.0895 57.42C31.1595 57.42 30.3995 56.66 30.3995 55.73C30.3995 54.8 31.1595 54.04 32.0895 54.04C33.0195 54.04 33.7795 54.8 33.7795 55.73Z" fill="white"/>
<path d="M48.9795 55.73C48.9795 56.66 48.2195 57.42 47.2895 57.42C46.3595 57.42 45.5995 56.66 45.5995 55.73C45.5995 54.8 46.3595 54.04 47.2895 54.04C48.2195 54.04 48.9795 54.8 48.9795 55.73Z" fill="white"/>
<path d="M64.1796 55.73C64.1796 56.66 63.4196 57.42 62.4896 57.42C61.5596 57.42 60.7996 56.66 60.7996 55.73C60.7996 54.8 61.5596 54.04 62.4896 54.04C63.4196 54.04 64.1796 54.8 64.1796 55.73Z" fill="white"/>
<path d="M79.3795 55.73C79.3795 56.66 78.6195 57.42 77.6895 57.42C76.7595 57.42 75.9995 56.66 75.9995 55.73C75.9995 54.8 76.7595 54.04 77.6895 54.04C78.6195 54.04 79.3795 54.8 79.3795 55.73Z" fill="white"/>
<path d="M94.5795 55.73C94.5795 56.66 93.8195 57.42 92.8895 57.42C91.9595 57.42 91.1995 56.66 91.1995 55.73C91.1995 54.8 91.9595 54.04 92.8895 54.04C93.8195 54.04 94.5795 54.8 94.5795 55.73Z" fill="white"/>
<path d="M109.78 55.73C109.78 56.66 109.02 57.42 108.09 57.42C107.16 57.42 106.4 56.66 106.4 55.73C106.4 54.8 107.16 54.04 108.09 54.04C109.02 54.04 109.78 54.8 109.78 55.73Z" fill="white"/>
<path d="M124.979 55.73C124.979 56.66 124.219 57.42 123.289 57.42C122.359 57.42 121.599 56.66 121.599 55.73C121.599 54.8 122.359 54.04 123.289 54.04C124.219 54.04 124.979 54.8 124.979 55.73Z" fill="white"/>
<path d="M140.18 55.73C140.18 56.66 139.42 57.42 138.49 57.42C137.56 57.42 136.8 56.66 136.8 55.73C136.8 54.8 137.56 54.04 138.49 54.04C139.42 54.04 140.18 54.8 140.18 55.73Z" fill="white"/>
<path d="M155.38 55.73C155.38 56.66 154.62 57.42 153.69 57.42C152.76 57.42 152 56.66 152 55.73C152 54.8 152.76 54.04 153.69 54.04C154.62 54.04 155.38 54.8 155.38 55.73Z" fill="white"/>
<path d="M3.37951 69.2401C3.37951 70.1701 2.61951 70.9301 1.68951 70.9301C0.75951 70.9301 -0.000488281 70.1701 -0.000488281 69.2401C-0.000488281 68.3101 0.75951 67.55 1.68951 67.55C2.61951 67.55 3.37951 68.3101 3.37951 69.2401Z" fill="white"/>
<path d="M18.5795 69.2401C18.5795 70.1701 17.8195 70.9301 16.8895 70.9301C15.9595 70.9301 15.1995 70.1701 15.1995 69.2401C15.1995 68.3101 15.9595 67.55 16.8895 67.55C17.8195 67.55 18.5795 68.3101 18.5795 69.2401Z" fill="white"/>
<path d="M33.7795 69.2401C33.7795 70.1701 33.0195 70.9301 32.0895 70.9301C31.1595 70.9301 30.3995 70.1701 30.3995 69.2401C30.3995 68.3101 31.1595 67.55 32.0895 67.55C33.0195 67.55 33.7795 68.3101 33.7795 69.2401Z" fill="white"/>
<path d="M48.9795 69.2401C48.9795 70.1701 48.2195 70.9301 47.2895 70.9301C46.3595 70.9301 45.5995 70.1701 45.5995 69.2401C45.5995 68.3101 46.3595 67.55 47.2895 67.55C48.2195 67.55 48.9795 68.3101 48.9795 69.2401Z" fill="white"/>
<path d="M64.1796 69.2401C64.1796 70.1701 63.4196 70.9301 62.4896 70.9301C61.5596 70.9301 60.7996 70.1701 60.7996 69.2401C60.7996 68.3101 61.5596 67.55 62.4896 67.55C63.4196 67.55 64.1796 68.3101 64.1796 69.2401Z" fill="white"/>
<path d="M79.3795 69.2401C79.3795 70.1701 78.6195 70.9301 77.6895 70.9301C76.7595 70.9301 75.9995 70.1701 75.9995 69.2401C75.9995 68.3101 76.7595 67.55 77.6895 67.55C78.6195 67.55 79.3795 68.3101 79.3795 69.2401Z" fill="white"/>
<path d="M94.5795 69.2401C94.5795 70.1701 93.8195 70.9301 92.8895 70.9301C91.9595 70.9301 91.1995 70.1701 91.1995 69.2401C91.1995 68.3101 91.9595 67.55 92.8895 67.55C93.8195 67.55 94.5795 68.3101 94.5795 69.2401Z" fill="white"/>
<path d="M109.78 69.2401C109.78 70.1701 109.02 70.9301 108.09 70.9301C107.16 70.9301 106.4 70.1701 106.4 69.2401C106.4 68.3101 107.16 67.55 108.09 67.55C109.02 67.55 109.78 68.3101 109.78 69.2401Z" fill="white"/>
<path d="M124.979 69.2401C124.979 70.1701 124.219 70.9301 123.289 70.9301C122.359 70.9301 121.599 70.1701 121.599 69.2401C121.599 68.3101 122.359 67.55 123.289 67.55C124.219 67.55 124.979 68.3101 124.979 69.2401Z" fill="white"/>
<path d="M140.18 69.2401C140.18 70.1701 139.42 70.9301 138.49 70.9301C137.56 70.9301 136.8 70.1701 136.8 69.2401C136.8 68.3101 137.56 67.55 138.49 67.55C139.42 67.55 140.18 68.3101 140.18 69.2401Z" fill="white"/>
<path d="M155.38 69.2401C155.38 70.1701 154.62 70.9301 153.69 70.9301C152.76 70.9301 152 70.1701 152 69.2401C152 68.3101 152.76 67.55 153.69 67.55C154.62 67.55 155.38 68.3101 155.38 69.2401Z" fill="white"/>
<path d="M1.68951 84.4399C2.62287 84.4399 3.37951 83.6833 3.37951 82.7499C3.37951 81.8166 2.62287 81.0599 1.68951 81.0599C0.756149 81.0599 -0.000488281 81.8166 -0.000488281 82.7499C-0.000488281 83.6833 0.756149 84.4399 1.68951 84.4399Z" fill="white"/>
<path d="M16.8895 84.4399C17.8228 84.4399 18.5795 83.6833 18.5795 82.7499C18.5795 81.8166 17.8228 81.0599 16.8895 81.0599C15.9561 81.0599 15.1995 81.8166 15.1995 82.7499C15.1995 83.6833 15.9561 84.4399 16.8895 84.4399Z" fill="white"/>
<path d="M32.0895 84.4399C33.0229 84.4399 33.7795 83.6833 33.7795 82.7499C33.7795 81.8166 33.0229 81.0599 32.0895 81.0599C31.1562 81.0599 30.3995 81.8166 30.3995 82.7499C30.3995 83.6833 31.1562 84.4399 32.0895 84.4399Z" fill="white"/>
<path d="M48.9795 82.7499C48.9795 83.6799 48.2195 84.4399 47.2895 84.4399C46.3595 84.4399 45.5995 83.6799 45.5995 82.7499C45.5995 81.8199 46.3595 81.0599 47.2895 81.0599C48.2195 81.0699 48.9795 81.8199 48.9795 82.7499Z" fill="white"/>
<path d="M64.1796 82.7499C64.1796 83.6799 63.4196 84.4399 62.4896 84.4399C61.5596 84.4399 60.7996 83.6799 60.7996 82.7499C60.7996 81.8199 61.5596 81.0599 62.4896 81.0599C63.4196 81.0699 64.1796 81.8199 64.1796 82.7499Z" fill="white"/>
<path d="M77.6895 84.4399C78.6229 84.4399 79.3795 83.6833 79.3795 82.7499C79.3795 81.8166 78.6229 81.0599 77.6895 81.0599C76.7562 81.0599 75.9995 81.8166 75.9995 82.7499C75.9995 83.6833 76.7562 84.4399 77.6895 84.4399Z" fill="white"/>
<path d="M92.8895 84.4399C93.8228 84.4399 94.5795 83.6833 94.5795 82.7499C94.5795 81.8166 93.8228 81.0599 92.8895 81.0599C91.9561 81.0599 91.1995 81.8166 91.1995 82.7499C91.1995 83.6833 91.9561 84.4399 92.8895 84.4399Z" fill="white"/>
<path d="M108.09 84.4399C109.023 84.4399 109.78 83.6833 109.78 82.7499C109.78 81.8166 109.023 81.0599 108.09 81.0599C107.156 81.0599 106.4 81.8166 106.4 82.7499C106.4 83.6833 107.156 84.4399 108.09 84.4399Z" fill="white"/>
<path d="M123.289 84.4399C124.223 84.4399 124.979 83.6833 124.979 82.7499C124.979 81.8166 124.223 81.0599 123.289 81.0599C122.356 81.0599 121.599 81.8166 121.599 82.7499C121.599 83.6833 122.356 84.4399 123.289 84.4399Z" fill="white"/>
<path d="M138.49 84.4399C139.423 84.4399 140.18 83.6833 140.18 82.7499C140.18 81.8166 139.423 81.0599 138.49 81.0599C137.556 81.0599 136.8 81.8166 136.8 82.7499C136.8 83.6833 137.556 84.4399 138.49 84.4399Z" fill="white"/>
<path d="M153.69 84.4399C154.623 84.4399 155.38 83.6833 155.38 82.7499C155.38 81.8166 154.623 81.0599 153.69 81.0599C152.756 81.0599 152 81.8166 152 82.7499C152 83.6833 152.756 84.4399 153.69 84.4399Z" fill="white"/>
<path d="M3.37951 96.27C3.37951 97.2 2.61951 97.96 1.68951 97.96C0.75951 97.96 -0.000488281 97.2 -0.000488281 96.27C-0.000488281 95.34 0.75951 94.58 1.68951 94.58C2.61951 94.58 3.37951 95.33 3.37951 96.27Z" fill="white"/>
<path d="M18.5795 96.27C18.5795 97.2 17.8195 97.96 16.8895 97.96C15.9595 97.96 15.1995 97.2 15.1995 96.27C15.1995 95.34 15.9595 94.58 16.8895 94.58C17.8195 94.58 18.5795 95.33 18.5795 96.27Z" fill="white"/>
<path d="M33.7795 96.27C33.7795 97.2 33.0195 97.96 32.0895 97.96C31.1595 97.96 30.3995 97.2 30.3995 96.27C30.3995 95.34 31.1595 94.58 32.0895 94.58C33.0195 94.58 33.7795 95.33 33.7795 96.27Z" fill="white"/>
<path d="M48.9795 96.27C48.9795 97.2 48.2195 97.96 47.2895 97.96C46.3595 97.96 45.5995 97.2 45.5995 96.27C45.5995 95.34 46.3595 94.58 47.2895 94.58C48.2195 94.58 48.9795 95.33 48.9795 96.27Z" fill="white"/>
<path d="M64.1796 96.27C64.1796 97.2 63.4196 97.96 62.4896 97.96C61.5596 97.96 60.7996 97.2 60.7996 96.27C60.7996 95.34 61.5596 94.58 62.4896 94.58C63.4196 94.58 64.1796 95.33 64.1796 96.27Z" fill="white"/>
<path d="M79.3795 96.27C79.3795 97.2 78.6195 97.96 77.6895 97.96C76.7595 97.96 75.9995 97.2 75.9995 96.27C75.9995 95.34 76.7595 94.58 77.6895 94.58C78.6195 94.58 79.3795 95.33 79.3795 96.27Z" fill="white"/>
<path d="M94.5795 96.27C94.5795 97.2 93.8195 97.96 92.8895 97.96C91.9595 97.96 91.1995 97.2 91.1995 96.27C91.1995 95.34 91.9595 94.58 92.8895 94.58C93.8195 94.58 94.5795 95.33 94.5795 96.27Z" fill="white"/>
<path d="M109.78 96.27C109.78 97.2 109.02 97.96 108.09 97.96C107.16 97.96 106.4 97.2 106.4 96.27C106.4 95.34 107.16 94.58 108.09 94.58C109.02 94.58 109.78 95.33 109.78 96.27Z" fill="white"/>
<path d="M124.979 96.27C124.979 97.2 124.219 97.96 123.289 97.96C122.359 97.96 121.599 97.2 121.599 96.27C121.599 95.34 122.359 94.58 123.289 94.58C124.219 94.58 124.979 95.33 124.979 96.27Z" fill="white"/>
<path d="M140.18 96.27C140.18 97.2 139.42 97.96 138.49 97.96C137.56 97.96 136.8 97.2 136.8 96.27C136.8 95.34 137.56 94.58 138.49 94.58C139.42 94.58 140.18 95.33 140.18 96.27Z" fill="white"/>
<path d="M155.38 96.27C155.38 97.2 154.62 97.96 153.69 97.96C152.76 97.96 152 97.2 152 96.27C152 95.34 152.76 94.58 153.69 94.58C154.62 94.58 155.38 95.33 155.38 96.27Z" fill="white"/>
<path d="M3.37951 109.78C3.37951 110.71 2.61951 111.47 1.68951 111.47C0.75951 111.47 -0.000488281 110.71 -0.000488281 109.78C-0.000488281 108.85 0.75951 108.09 1.68951 108.09C2.61951 108.09 3.37951 108.84 3.37951 109.78Z" fill="white"/>
<path d="M18.5795 109.78C18.5795 110.71 17.8195 111.47 16.8895 111.47C15.9595 111.47 15.1995 110.71 15.1995 109.78C15.1995 108.85 15.9595 108.09 16.8895 108.09C17.8195 108.09 18.5795 108.84 18.5795 109.78Z" fill="white"/>
<path d="M33.7795 109.78C33.7795 110.71 33.0195 111.47 32.0895 111.47C31.1595 111.47 30.3995 110.71 30.3995 109.78C30.3995 108.85 31.1595 108.09 32.0895 108.09C33.0195 108.09 33.7795 108.84 33.7795 109.78Z" fill="white"/>
<path d="M48.9795 109.78C48.9795 110.71 48.2195 111.47 47.2895 111.47C46.3595 111.47 45.5995 110.71 45.5995 109.78C45.5995 108.85 46.3595 108.09 47.2895 108.09C48.2195 108.09 48.9795 108.84 48.9795 109.78Z" fill="white"/>
<path d="M64.1796 109.78C64.1796 110.71 63.4196 111.47 62.4896 111.47C61.5596 111.47 60.7996 110.71 60.7996 109.78C60.7996 108.85 61.5596 108.09 62.4896 108.09C63.4196 108.09 64.1796 108.84 64.1796 109.78Z" fill="white"/>
<path d="M79.3795 109.78C79.3795 110.71 78.6195 111.47 77.6895 111.47C76.7595 111.47 75.9995 110.71 75.9995 109.78C75.9995 108.85 76.7595 108.09 77.6895 108.09C78.6195 108.09 79.3795 108.84 79.3795 109.78Z" fill="white"/>
<path d="M94.5795 109.78C94.5795 110.71 93.8195 111.47 92.8895 111.47C91.9595 111.47 91.1995 110.71 91.1995 109.78C91.1995 108.85 91.9595 108.09 92.8895 108.09C93.8195 108.09 94.5795 108.84 94.5795 109.78Z" fill="white"/>
<path d="M109.78 109.78C109.78 110.71 109.02 111.47 108.09 111.47C107.16 111.47 106.4 110.71 106.4 109.78C106.4 108.85 107.16 108.09 108.09 108.09C109.02 108.09 109.78 108.84 109.78 109.78Z" fill="white"/>
<path d="M124.979 109.78C124.979 110.71 124.219 111.47 123.289 111.47C122.359 111.47 121.599 110.71 121.599 109.78C121.599 108.85 122.359 108.09 123.289 108.09C124.219 108.09 124.979 108.84 124.979 109.78Z" fill="white"/>
<path d="M140.18 109.78C140.18 110.71 139.42 111.47 138.49 111.47C137.56 111.47 136.8 110.71 136.8 109.78C136.8 108.85 137.56 108.09 138.49 108.09C139.42 108.09 140.18 108.84 140.18 109.78Z" fill="white"/>
<path d="M155.38 109.78C155.38 110.71 154.62 111.47 153.69 111.47C152.76 111.47 152 110.71 152 109.78C152 108.85 152.76 108.09 153.69 108.09C154.62 108.09 155.38 108.84 155.38 109.78Z" fill="white"/>
<path d="M3.37951 123.29C3.37951 124.22 2.61951 124.98 1.68951 124.98C0.75951 124.98 -0.000488281 124.22 -0.000488281 123.29C-0.000488281 122.36 0.75951 121.6 1.68951 121.6C2.61951 121.6 3.37951 122.36 3.37951 123.29Z" fill="white"/>
<path d="M18.5795 123.29C18.5795 124.22 17.8195 124.98 16.8895 124.98C15.9595 124.98 15.1995 124.22 15.1995 123.29C15.1995 122.36 15.9595 121.6 16.8895 121.6C17.8195 121.6 18.5795 122.36 18.5795 123.29Z" fill="white"/>
<path d="M33.7795 123.29C33.7795 124.22 33.0195 124.98 32.0895 124.98C31.1595 124.98 30.3995 124.22 30.3995 123.29C30.3995 122.36 31.1595 121.6 32.0895 121.6C33.0195 121.6 33.7795 122.36 33.7795 123.29Z" fill="white"/>
<path d="M48.9795 123.29C48.9795 124.22 48.2195 124.98 47.2895 124.98C46.3595 124.98 45.5995 124.22 45.5995 123.29C45.5995 122.36 46.3595 121.6 47.2895 121.6C48.2195 121.6 48.9795 122.36 48.9795 123.29Z" fill="white"/>
<path d="M64.1796 123.29C64.1796 124.22 63.4196 124.98 62.4896 124.98C61.5596 124.98 60.7996 124.22 60.7996 123.29C60.7996 122.36 61.5596 121.6 62.4896 121.6C63.4196 121.6 64.1796 122.36 64.1796 123.29Z" fill="white"/>
<path d="M79.3795 123.29C79.3795 124.22 78.6195 124.98 77.6895 124.98C76.7595 124.98 75.9995 124.22 75.9995 123.29C75.9995 122.36 76.7595 121.6 77.6895 121.6C78.6195 121.6 79.3795 122.36 79.3795 123.29Z" fill="white"/>
<path d="M94.5795 123.29C94.5795 124.22 93.8195 124.98 92.8895 124.98C91.9595 124.98 91.1995 124.22 91.1995 123.29C91.1995 122.36 91.9595 121.6 92.8895 121.6C93.8195 121.6 94.5795 122.36 94.5795 123.29Z" fill="white"/>
<path d="M109.78 123.29C109.78 124.22 109.02 124.98 108.09 124.98C107.16 124.98 106.4 124.22 106.4 123.29C106.4 122.36 107.16 121.6 108.09 121.6C109.02 121.6 109.78 122.36 109.78 123.29Z" fill="white"/>
<path d="M124.979 123.29C124.979 124.22 124.219 124.98 123.289 124.98C122.359 124.98 121.599 124.22 121.599 123.29C121.599 122.36 122.359 121.6 123.289 121.6C124.219 121.6 124.979 122.36 124.979 123.29Z" fill="white"/>
<path d="M140.18 123.29C140.18 124.22 139.42 124.98 138.49 124.98C137.56 124.98 136.8 124.22 136.8 123.29C136.8 122.36 137.56 121.6 138.49 121.6C139.42 121.6 140.18 122.36 140.18 123.29Z" fill="white"/>
<path d="M155.38 123.29C155.38 124.22 154.62 124.98 153.69 124.98C152.76 124.98 152 124.22 152 123.29C152 122.36 152.76 121.6 153.69 121.6C154.62 121.6 155.38 122.36 155.38 123.29Z" fill="white"/>
<path d="M1.68951 138.49C2.62287 138.49 3.37951 137.733 3.37951 136.8C3.37951 135.867 2.62287 135.11 1.68951 135.11C0.756149 135.11 -0.000488281 135.867 -0.000488281 136.8C-0.000488281 137.733 0.756149 138.49 1.68951 138.49Z" fill="white"/>
<path d="M16.8895 138.49C17.8228 138.49 18.5795 137.733 18.5795 136.8C18.5795 135.867 17.8228 135.11 16.8895 135.11C15.9561 135.11 15.1995 135.867 15.1995 136.8C15.1995 137.733 15.9561 138.49 16.8895 138.49Z" fill="white"/>
<path d="M32.0895 138.49C33.0229 138.49 33.7795 137.733 33.7795 136.8C33.7795 135.867 33.0229 135.11 32.0895 135.11C31.1562 135.11 30.3995 135.867 30.3995 136.8C30.3995 137.733 31.1562 138.49 32.0895 138.49Z" fill="white"/>
<path d="M48.9795 136.8C48.9795 137.73 48.2195 138.49 47.2895 138.49C46.3595 138.49 45.5995 137.73 45.5995 136.8C45.5995 135.87 46.3595 135.11 47.2895 135.11C48.2195 135.11 48.9795 135.87 48.9795 136.8Z" fill="white"/>
<path d="M64.1796 136.8C64.1796 137.73 63.4196 138.49 62.4896 138.49C61.5596 138.49 60.7996 137.73 60.7996 136.8C60.7996 135.87 61.5596 135.11 62.4896 135.11C63.4196 135.11 64.1796 135.87 64.1796 136.8Z" fill="white"/>
<path d="M77.6895 138.49C78.6229 138.49 79.3795 137.733 79.3795 136.8C79.3795 135.867 78.6229 135.11 77.6895 135.11C76.7562 135.11 75.9995 135.867 75.9995 136.8C75.9995 137.733 76.7562 138.49 77.6895 138.49Z" fill="white"/>
<path d="M92.8895 138.49C93.8228 138.49 94.5795 137.733 94.5795 136.8C94.5795 135.867 93.8228 135.11 92.8895 135.11C91.9561 135.11 91.1995 135.867 91.1995 136.8C91.1995 137.733 91.9561 138.49 92.8895 138.49Z" fill="white"/>
<path d="M108.09 138.49C109.023 138.49 109.78 137.733 109.78 136.8C109.78 135.867 109.023 135.11 108.09 135.11C107.156 135.11 106.4 135.867 106.4 136.8C106.4 137.733 107.156 138.49 108.09 138.49Z" fill="white"/>
<path d="M123.289 138.49C124.223 138.49 124.979 137.733 124.979 136.8C124.979 135.867 124.223 135.11 123.289 135.11C122.356 135.11 121.599 135.867 121.599 136.8C121.599 137.733 122.356 138.49 123.289 138.49Z" fill="white"/>
<path d="M138.49 138.49C139.423 138.49 140.18 137.733 140.18 136.8C140.18 135.867 139.423 135.11 138.49 135.11C137.556 135.11 136.8 135.867 136.8 136.8C136.8 137.733 137.556 138.49 138.49 138.49Z" fill="white"/>
<path d="M153.69 138.49C154.623 138.49 155.38 137.733 155.38 136.8C155.38 135.867 154.623 135.11 153.69 135.11C152.756 135.11 152 135.867 152 136.8C152 137.733 152.756 138.49 153.69 138.49Z" fill="white"/>
<path d="M3.37951 150.31C3.37951 151.24 2.61951 152 1.68951 152C0.75951 152 -0.000488281 151.24 -0.000488281 150.31C-0.000488281 149.38 0.75951 148.62 1.68951 148.62C2.61951 148.62 3.37951 149.38 3.37951 150.31Z" fill="white"/>
<path d="M18.5795 150.31C18.5795 151.24 17.8195 152 16.8895 152C15.9595 152 15.1995 151.24 15.1995 150.31C15.1995 149.38 15.9595 148.62 16.8895 148.62C17.8195 148.62 18.5795 149.38 18.5795 150.31Z" fill="white"/>
<path d="M33.7795 150.31C33.7795 151.24 33.0195 152 32.0895 152C31.1595 152 30.3995 151.24 30.3995 150.31C30.3995 149.38 31.1595 148.62 32.0895 148.62C33.0195 148.62 33.7795 149.38 33.7795 150.31Z" fill="white"/>
<path d="M48.9795 150.31C48.9795 151.24 48.2195 152 47.2895 152C46.3595 152 45.5995 151.24 45.5995 150.31C45.5995 149.38 46.3595 148.62 47.2895 148.62C48.2195 148.62 48.9795 149.38 48.9795 150.31Z" fill="white"/>
<path d="M64.1796 150.31C64.1796 151.24 63.4196 152 62.4896 152C61.5596 152 60.7996 151.24 60.7996 150.31C60.7996 149.38 61.5596 148.62 62.4896 148.62C63.4196 148.62 64.1796 149.38 64.1796 150.31Z" fill="white"/>
<path d="M79.3795 150.31C79.3795 151.24 78.6195 152 77.6895 152C76.7595 152 75.9995 151.24 75.9995 150.31C75.9995 149.38 76.7595 148.62 77.6895 148.62C78.6195 148.62 79.3795 149.38 79.3795 150.31Z" fill="white"/>
<path d="M94.5795 150.31C94.5795 151.24 93.8195 152 92.8895 152C91.9595 152 91.1995 151.24 91.1995 150.31C91.1995 149.38 91.9595 148.62 92.8895 148.62C93.8195 148.62 94.5795 149.38 94.5795 150.31Z" fill="white"/>
<path d="M109.78 150.31C109.78 151.24 109.02 152 108.09 152C107.16 152 106.4 151.24 106.4 150.31C106.4 149.38 107.16 148.62 108.09 148.62C109.02 148.62 109.78 149.38 109.78 150.31Z" fill="white"/>
<path d="M124.979 150.31C124.979 151.24 124.219 152 123.289 152C122.359 152 121.599 151.24 121.599 150.31C121.599 149.38 122.359 148.62 123.289 148.62C124.219 148.62 124.979 149.38 124.979 150.31Z" fill="white"/>
<path d="M140.18 150.31C140.18 151.24 139.42 152 138.49 152C137.56 152 136.8 151.24 136.8 150.31C136.8 149.38 137.56 148.62 138.49 148.62C139.42 148.62 140.18 149.38 140.18 150.31Z" fill="white"/>
<path d="M155.38 150.31C155.38 151.24 154.62 152 153.69 152C152.76 152 152 151.24 152 150.31C152 149.38 152.76 148.62 153.69 148.62C154.62 148.62 155.38 149.38 155.38 150.31Z" fill="white"/>
</svg>
