<svg width="156" height="152" viewBox="0 0 156 152" fill="none" xmlns="http://www.w3.org/2000/svg">
<path d="M153.69 148.62C152.757 148.62 152 149.377 152 150.31C152 151.243 152.757 152 153.69 152C154.623 152 155.38 151.243 155.38 150.31C155.38 149.377 154.623 148.62 153.69 148.62Z" fill="white"/>
<path d="M138.49 148.62C137.557 148.62 136.8 149.377 136.8 150.31C136.8 151.243 137.557 152 138.49 152C139.423 152 140.18 151.243 140.18 150.31C140.18 149.377 139.423 148.62 138.49 148.62Z" fill="white"/>
<path d="M123.29 148.62C122.357 148.62 121.6 149.377 121.6 150.31C121.6 151.243 122.357 152 123.29 152C124.223 152 124.98 151.243 124.98 150.31C124.98 149.377 124.223 148.62 123.29 148.62Z" fill="white"/>
<path d="M106.4 150.31C106.4 149.38 107.16 148.62 108.09 148.62C109.02 148.62 109.78 149.38 109.78 150.31C109.78 151.24 109.02 152 108.09 152C107.16 152 106.4 151.24 106.4 150.31Z" fill="white"/>
<path d="M91.2 150.31C91.2 149.38 91.96 148.62 92.89 148.62C93.82 148.62 94.58 149.38 94.58 150.31C94.58 151.24 93.82 152 92.89 152C91.96 152 91.2 151.24 91.2 150.31Z" fill="white"/>
<path d="M153.69 135.11C152.757 135.11 152 135.867 152 136.8C152 137.733 152.757 138.49 153.69 138.49C154.623 138.49 155.38 137.733 155.38 136.8C155.38 135.867 154.623 135.11 153.69 135.11Z" fill="white"/>
<path d="M138.49 135.11C137.557 135.11 136.8 135.867 136.8 136.8C136.8 137.733 137.557 138.49 138.49 138.49C139.423 138.49 140.18 137.733 140.18 136.8C140.18 135.867 139.423 135.11 138.49 135.11Z" fill="white"/>
<path d="M123.29 135.11C122.357 135.11 121.6 135.867 121.6 136.8C121.6 137.733 122.357 138.49 123.29 138.49C124.223 138.49 124.98 137.733 124.98 136.8C124.98 135.867 124.223 135.11 123.29 135.11Z" fill="white"/>
<path d="M106.4 136.8C106.4 135.87 107.16 135.11 108.09 135.11C109.02 135.11 109.78 135.87 109.78 136.8C109.78 137.73 109.02 138.49 108.09 138.49C107.16 138.49 106.4 137.73 106.4 136.8Z" fill="white"/>
<path d="M91.2 136.8C91.2 135.87 91.96 135.11 92.89 135.11C93.82 135.11 94.58 135.87 94.58 136.8C94.58 137.73 93.82 138.49 92.89 138.49C91.96 138.49 91.2 137.73 91.2 136.8Z" fill="white"/>
<path d="M153.69 121.6C152.757 121.6 152 122.356 152 123.29C152 124.223 152.757 124.98 153.69 124.98C154.623 124.98 155.38 124.223 155.38 123.29C155.38 122.356 154.623 121.6 153.69 121.6Z" fill="white"/>
<path d="M138.49 121.6C137.557 121.6 136.8 122.356 136.8 123.29C136.8 124.223 137.557 124.98 138.49 124.98C139.423 124.98 140.18 124.223 140.18 123.29C140.18 122.356 139.423 121.6 138.49 121.6Z" fill="white"/>
<path d="M123.29 121.6C122.357 121.6 121.6 122.356 121.6 123.29C121.6 124.223 122.357 124.98 123.29 124.98C124.223 124.98 124.98 124.223 124.98 123.29C124.98 122.356 124.223 121.6 123.29 121.6Z" fill="white"/>
<path d="M106.4 123.29C106.4 122.36 107.16 121.6 108.09 121.6C109.02 121.6 109.78 122.36 109.78 123.29C109.78 124.22 109.02 124.98 108.09 124.98C107.16 124.98 106.4 124.22 106.4 123.29Z" fill="white"/>
<path d="M91.2 123.29C91.2 122.36 91.96 121.6 92.89 121.6C93.82 121.6 94.58 122.36 94.58 123.29C94.58 124.22 93.82 124.98 92.89 124.98C91.96 124.98 91.2 124.22 91.2 123.29Z" fill="white"/>
<path d="M152 109.78C152 108.85 152.76 108.09 153.69 108.09C154.62 108.09 155.38 108.85 155.38 109.78C155.38 110.71 154.62 111.47 153.69 111.47C152.76 111.47 152 110.71 152 109.78Z" fill="white"/>
<path d="M136.8 109.78C136.8 108.85 137.56 108.09 138.49 108.09C139.42 108.09 140.18 108.85 140.18 109.78C140.18 110.71 139.42 111.47 138.49 111.47C137.56 111.47 136.8 110.71 136.8 109.78Z" fill="white"/>
<path d="M121.6 109.78C121.6 108.85 122.36 108.09 123.29 108.09C124.22 108.09 124.98 108.85 124.98 109.78C124.98 110.71 124.22 111.47 123.29 111.47C122.36 111.47 121.6 110.71 121.6 109.78Z" fill="white"/>
<path d="M106.4 109.78C106.4 108.85 107.16 108.09 108.09 108.09C109.02 108.09 109.78 108.85 109.78 109.78C109.78 110.71 109.02 111.47 108.09 111.47C107.16 111.47 106.4 110.71 106.4 109.78Z" fill="white"/>
<path d="M91.2 109.78C91.2 108.85 91.96 108.09 92.89 108.09C93.82 108.09 94.58 108.85 94.58 109.78C94.58 110.71 93.82 111.47 92.89 111.47C91.96 111.47 91.2 110.71 91.2 109.78Z" fill="white"/>
<path d="M152 96.2698C152 95.3398 152.76 94.5798 153.69 94.5798C154.62 94.5798 155.38 95.3398 155.38 96.2698C155.38 97.1998 154.62 97.9598 153.69 97.9598C152.76 97.9598 152 97.1998 152 96.2698Z" fill="white"/>
<path d="M136.8 96.2698C136.8 95.3398 137.56 94.5798 138.49 94.5798C139.42 94.5798 140.18 95.3398 140.18 96.2698C140.18 97.1998 139.42 97.9598 138.49 97.9598C137.56 97.9598 136.8 97.1998 136.8 96.2698Z" fill="white"/>
<path d="M121.6 96.2698C121.6 95.3398 122.36 94.5798 123.29 94.5798C124.22 94.5798 124.98 95.3398 124.98 96.2698C124.98 97.1998 124.22 97.9598 123.29 97.9598C122.36 97.9598 121.6 97.1998 121.6 96.2698Z" fill="white"/>
<path d="M106.4 96.2698C106.4 95.3398 107.16 94.5798 108.09 94.5798C109.02 94.5798 109.78 95.3398 109.78 96.2698C109.78 97.1998 109.02 97.9598 108.09 97.9598C107.16 97.9598 106.4 97.1998 106.4 96.2698Z" fill="white"/>
<path d="M91.2 96.2698C91.2 95.3398 91.96 94.5798 92.89 94.5798C93.82 94.5798 94.58 95.3398 94.58 96.2698C94.58 97.1998 93.82 97.9598 92.89 97.9598C91.96 97.9598 91.2 97.1998 91.2 96.2698Z" fill="white"/>
<path d="M152 82.7598C152 81.8298 152.76 81.0698 153.69 81.0698C154.62 81.0698 155.38 81.8298 155.38 82.7598C155.38 83.6898 154.62 84.4498 153.69 84.4498C152.76 84.4498 152 83.6898 152 82.7598Z" fill="white"/>
<path d="M136.8 82.7598C136.8 81.8298 137.56 81.0698 138.49 81.0698C139.42 81.0698 140.18 81.8298 140.18 82.7598C140.18 83.6898 139.42 84.4498 138.49 84.4498C137.56 84.4498 136.8 83.6898 136.8 82.7598Z" fill="white"/>
<path d="M121.6 82.7598C121.6 81.8298 122.36 81.0698 123.29 81.0698C124.22 81.0698 124.98 81.8298 124.98 82.7598C124.98 83.6898 124.22 84.4498 123.29 84.4498C122.36 84.4498 121.6 83.6898 121.6 82.7598Z" fill="white"/>
<path d="M106.4 82.7598C106.4 81.8298 107.16 81.0698 108.09 81.0698C109.02 81.0698 109.78 81.8298 109.78 82.7598C109.78 83.6898 109.02 84.4498 108.09 84.4498C107.16 84.4498 106.4 83.6898 106.4 82.7598Z" fill="white"/>
<path d="M91.2 82.7598C91.2 81.8298 91.96 81.0698 92.89 81.0698C93.82 81.0698 94.58 81.8298 94.58 82.7598C94.58 83.6898 93.82 84.4498 92.89 84.4498C91.96 84.4498 91.2 83.6898 91.2 82.7598Z" fill="white"/>
<path d="M153.69 67.5599C152.757 67.5599 152 68.3166 152 69.2499C152 70.1833 152.757 70.9399 153.69 70.9399C154.623 70.9399 155.38 70.1833 155.38 69.2499C155.38 68.3166 154.623 67.5599 153.69 67.5599Z" fill="white"/>
<path d="M138.49 67.5599C137.557 67.5599 136.8 68.3166 136.8 69.2499C136.8 70.1833 137.557 70.9399 138.49 70.9399C139.423 70.9399 140.18 70.1833 140.18 69.2499C140.18 68.3166 139.423 67.5599 138.49 67.5599Z" fill="white"/>
<path d="M123.29 67.5599C122.357 67.5599 121.6 68.3166 121.6 69.2499C121.6 70.1833 122.357 70.9399 123.29 70.9399C124.223 70.9399 124.98 70.1833 124.98 69.2499C124.98 68.3166 124.223 67.5599 123.29 67.5599Z" fill="white"/>
<path d="M106.4 69.2499C106.4 68.3199 107.16 67.5599 108.09 67.5599C109.02 67.5599 109.78 68.3199 109.78 69.2499C109.78 70.1799 109.02 70.9399 108.09 70.9399C107.16 70.9299 106.4 70.1799 106.4 69.2499Z" fill="white"/>
<path d="M91.2 69.2499C91.2 68.3199 91.96 67.5599 92.89 67.5599C93.82 67.5599 94.58 68.3199 94.58 69.2499C94.58 70.1799 93.82 70.9399 92.89 70.9399C91.96 70.9299 91.2 70.1799 91.2 69.2499Z" fill="white"/>
<path d="M152 55.7299C152 54.7999 152.76 54.0399 153.69 54.0399C154.62 54.0399 155.38 54.7999 155.38 55.7299C155.38 56.6599 154.62 57.4199 153.69 57.4199C152.76 57.4199 152 56.6699 152 55.7299Z" fill="white"/>
<path d="M136.8 55.7299C136.8 54.7999 137.56 54.0399 138.49 54.0399C139.42 54.0399 140.18 54.7999 140.18 55.7299C140.18 56.6599 139.42 57.4199 138.49 57.4199C137.56 57.4199 136.8 56.6699 136.8 55.7299Z" fill="white"/>
<path d="M121.6 55.7299C121.6 54.7999 122.36 54.0399 123.29 54.0399C124.22 54.0399 124.98 54.7999 124.98 55.7299C124.98 56.6599 124.22 57.4199 123.29 57.4199C122.36 57.4199 121.6 56.6699 121.6 55.7299Z" fill="white"/>
<path d="M106.4 55.7299C106.4 54.7999 107.16 54.0399 108.09 54.0399C109.02 54.0399 109.78 54.7999 109.78 55.7299C109.78 56.6599 109.02 57.4199 108.09 57.4199C107.16 57.4199 106.4 56.6699 106.4 55.7299Z" fill="white"/>
<path d="M91.2 55.7299C91.2 54.7999 91.96 54.0399 92.89 54.0399C93.82 54.0399 94.58 54.7999 94.58 55.7299C94.58 56.6599 93.82 57.4199 92.89 57.4199C91.96 57.4199 91.2 56.6699 91.2 55.7299Z" fill="white"/>
<path d="M76 55.7299C76 54.7999 76.76 54.0399 77.69 54.0399C78.62 54.0399 79.38 54.7999 79.38 55.7299C79.38 56.6599 78.62 57.4199 77.69 57.4199C76.76 57.4199 76 56.6699 76 55.7299Z" fill="white"/>
<path d="M60.8001 55.7299C60.8001 54.7999 61.5601 54.0399 62.4901 54.0399C63.4201 54.0399 64.1801 54.7999 64.1801 55.7299C64.1801 56.6599 63.4201 57.4199 62.4901 57.4199C61.5601 57.4199 60.8001 56.6699 60.8001 55.7299Z" fill="white"/>
<path d="M45.6 55.7299C45.6 54.7999 46.36 54.0399 47.29 54.0399C48.22 54.0399 48.98 54.7999 48.98 55.7299C48.98 56.6599 48.22 57.4199 47.29 57.4199C46.36 57.4199 45.6 56.6699 45.6 55.7299Z" fill="white"/>
<path d="M30.4 55.7299C30.4 54.7999 31.16 54.0399 32.09 54.0399C33.02 54.0399 33.78 54.7999 33.78 55.7299C33.78 56.6599 33.02 57.4199 32.09 57.4199C31.16 57.4199 30.4 56.6699 30.4 55.7299Z" fill="white"/>
<path d="M15.2 55.7299C15.2 54.7999 15.96 54.0399 16.89 54.0399C17.82 54.0399 18.58 54.7999 18.58 55.7299C18.58 56.6599 17.82 57.4199 16.89 57.4199C15.96 57.4199 15.2 56.6699 15.2 55.7299Z" fill="white"/>
<path d="M0 55.7299C0 54.7999 0.760002 54.0399 1.69 54.0399C2.62 54.0399 3.38 54.7999 3.38 55.7299C3.38 56.6599 2.62 57.4199 1.69 57.4199C0.760002 57.4199 0 56.6699 0 55.7299Z" fill="white"/>
<path d="M152 42.2198C152 41.2898 152.76 40.5298 153.69 40.5298C154.62 40.5298 155.38 41.2898 155.38 42.2198C155.38 43.1498 154.62 43.9098 153.69 43.9098C152.76 43.9098 152 43.1598 152 42.2198Z" fill="white"/>
<path d="M136.8 42.2198C136.8 41.2898 137.56 40.5298 138.49 40.5298C139.42 40.5298 140.18 41.2898 140.18 42.2198C140.18 43.1498 139.42 43.9098 138.49 43.9098C137.56 43.9098 136.8 43.1598 136.8 42.2198Z" fill="white"/>
<path d="M121.6 42.2198C121.6 41.2898 122.36 40.5298 123.29 40.5298C124.22 40.5298 124.98 41.2898 124.98 42.2198C124.98 43.1498 124.22 43.9098 123.29 43.9098C122.36 43.9098 121.6 43.1598 121.6 42.2198Z" fill="white"/>
<path d="M106.4 42.2198C106.4 41.2898 107.16 40.5298 108.09 40.5298C109.02 40.5298 109.78 41.2898 109.78 42.2198C109.78 43.1498 109.02 43.9098 108.09 43.9098C107.16 43.9098 106.4 43.1598 106.4 42.2198Z" fill="white"/>
<path d="M91.2 42.2198C91.2 41.2898 91.96 40.5298 92.89 40.5298C93.82 40.5298 94.58 41.2898 94.58 42.2198C94.58 43.1498 93.82 43.9098 92.89 43.9098C91.96 43.9098 91.2 43.1598 91.2 42.2198Z" fill="white"/>
<path d="M76 42.2198C76 41.2898 76.76 40.5298 77.69 40.5298C78.62 40.5298 79.38 41.2898 79.38 42.2198C79.38 43.1498 78.62 43.9098 77.69 43.9098C76.76 43.9098 76 43.1598 76 42.2198Z" fill="white"/>
<path d="M60.8001 42.2198C60.8001 41.2898 61.5601 40.5298 62.4901 40.5298C63.4201 40.5298 64.1801 41.2898 64.1801 42.2198C64.1801 43.1498 63.4201 43.9098 62.4901 43.9098C61.5601 43.9098 60.8001 43.1598 60.8001 42.2198Z" fill="white"/>
<path d="M45.6 42.2198C45.6 41.2898 46.36 40.5298 47.29 40.5298C48.22 40.5298 48.98 41.2898 48.98 42.2198C48.98 43.1498 48.22 43.9098 47.29 43.9098C46.36 43.9098 45.6 43.1598 45.6 42.2198Z" fill="white"/>
<path d="M30.4 42.2198C30.4 41.2898 31.16 40.5298 32.09 40.5298C33.02 40.5298 33.78 41.2898 33.78 42.2198C33.78 43.1498 33.02 43.9098 32.09 43.9098C31.16 43.9098 30.4 43.1598 30.4 42.2198Z" fill="white"/>
<path d="M15.2 42.2198C15.2 41.2898 15.96 40.5298 16.89 40.5298C17.82 40.5298 18.58 41.2898 18.58 42.2198C18.58 43.1498 17.82 43.9098 16.89 43.9098C15.96 43.9098 15.2 43.1598 15.2 42.2198Z" fill="white"/>
<path d="M0 42.2198C0 41.2898 0.760002 40.5298 1.69 40.5298C2.62 40.5298 3.38 41.2898 3.38 42.2198C3.38 43.1498 2.62 43.9098 1.69 43.9098C0.760002 43.9098 0 43.1598 0 42.2198Z" fill="white"/>
<path d="M152 28.7098C152 27.7798 152.76 27.0198 153.69 27.0198C154.62 27.0198 155.38 27.7798 155.38 28.7098C155.38 29.6398 154.62 30.3998 153.69 30.3998C152.76 30.3998 152 29.6398 152 28.7098Z" fill="white"/>
<path d="M136.8 28.7098C136.8 27.7798 137.56 27.0198 138.49 27.0198C139.42 27.0198 140.18 27.7798 140.18 28.7098C140.18 29.6398 139.42 30.3998 138.49 30.3998C137.56 30.3998 136.8 29.6398 136.8 28.7098Z" fill="white"/>
<path d="M121.6 28.7098C121.6 27.7798 122.36 27.0198 123.29 27.0198C124.22 27.0198 124.98 27.7798 124.98 28.7098C124.98 29.6398 124.22 30.3998 123.29 30.3998C122.36 30.3998 121.6 29.6398 121.6 28.7098Z" fill="white"/>
<path d="M106.4 28.7098C106.4 27.7798 107.16 27.0198 108.09 27.0198C109.02 27.0198 109.78 27.7798 109.78 28.7098C109.78 29.6398 109.02 30.3998 108.09 30.3998C107.16 30.3998 106.4 29.6398 106.4 28.7098Z" fill="white"/>
<path d="M91.2 28.7098C91.2 27.7798 91.96 27.0198 92.89 27.0198C93.82 27.0198 94.58 27.7798 94.58 28.7098C94.58 29.6398 93.82 30.3998 92.89 30.3998C91.96 30.3998 91.2 29.6398 91.2 28.7098Z" fill="white"/>
<path d="M76 28.7098C76 27.7798 76.76 27.0198 77.69 27.0198C78.62 27.0198 79.38 27.7798 79.38 28.7098C79.38 29.6398 78.62 30.3998 77.69 30.3998C76.76 30.3998 76 29.6398 76 28.7098Z" fill="white"/>
<path d="M60.8001 28.7098C60.8001 27.7798 61.5601 27.0198 62.4901 27.0198C63.4201 27.0198 64.1801 27.7798 64.1801 28.7098C64.1801 29.6398 63.4201 30.3998 62.4901 30.3998C61.5601 30.3998 60.8001 29.6398 60.8001 28.7098Z" fill="white"/>
<path d="M45.6 28.7098C45.6 27.7798 46.36 27.0198 47.29 27.0198C48.22 27.0198 48.98 27.7798 48.98 28.7098C48.98 29.6398 48.22 30.3998 47.29 30.3998C46.36 30.3998 45.6 29.6398 45.6 28.7098Z" fill="white"/>
<path d="M30.4 28.7098C30.4 27.7798 31.16 27.0198 32.09 27.0198C33.02 27.0198 33.78 27.7798 33.78 28.7098C33.78 29.6398 33.02 30.3998 32.09 30.3998C31.16 30.3998 30.4 29.6398 30.4 28.7098Z" fill="white"/>
<path d="M15.2 28.7098C15.2 27.7798 15.96 27.0198 16.89 27.0198C17.82 27.0198 18.58 27.7798 18.58 28.7098C18.58 29.6398 17.82 30.3998 16.89 30.3998C15.96 30.3998 15.2 29.6398 15.2 28.7098Z" fill="white"/>
<path d="M0 28.7098C0 27.7798 0.760002 27.0198 1.69 27.0198C2.62 27.0198 3.38 27.7798 3.38 28.7098C3.38 29.6398 2.62 30.3998 1.69 30.3998C0.760002 30.3998 0 29.6398 0 28.7098Z" fill="white"/>
<path d="M153.69 13.5098C152.757 13.5098 152 14.2664 152 15.1998C152 16.1331 152.757 16.8898 153.69 16.8898C154.623 16.8898 155.38 16.1331 155.38 15.1998C155.38 14.2664 154.623 13.5098 153.69 13.5098Z" fill="white"/>
<path d="M138.49 13.5098C137.557 13.5098 136.8 14.2664 136.8 15.1998C136.8 16.1331 137.557 16.8898 138.49 16.8898C139.423 16.8898 140.18 16.1331 140.18 15.1998C140.18 14.2664 139.423 13.5098 138.49 13.5098Z" fill="white"/>
<path d="M123.29 13.5098C122.357 13.5098 121.6 14.2664 121.6 15.1998C121.6 16.1331 122.357 16.8898 123.29 16.8898C124.223 16.8898 124.98 16.1331 124.98 15.1998C124.98 14.2664 124.223 13.5098 123.29 13.5098Z" fill="white"/>
<path d="M106.4 15.1998C106.4 14.2698 107.16 13.5098 108.09 13.5098C109.02 13.5098 109.78 14.2698 109.78 15.1998C109.78 16.1298 109.02 16.8898 108.09 16.8898C107.16 16.8898 106.4 16.1298 106.4 15.1998Z" fill="white"/>
<path d="M91.2 15.1998C91.2 14.2698 91.96 13.5098 92.89 13.5098C93.82 13.5098 94.58 14.2698 94.58 15.1998C94.58 16.1298 93.82 16.8898 92.89 16.8898C91.96 16.8898 91.2 16.1298 91.2 15.1998Z" fill="white"/>
<path d="M77.69 13.5098C76.7566 13.5098 76 14.2664 76 15.1998C76 16.1331 76.7566 16.8898 77.69 16.8898C78.6234 16.8898 79.38 16.1331 79.38 15.1998C79.38 14.2664 78.6234 13.5098 77.69 13.5098Z" fill="white"/>
<path d="M62.4901 13.5098C61.5567 13.5098 60.8001 14.2664 60.8001 15.1998C60.8001 16.1331 61.5567 16.8898 62.4901 16.8898C63.4234 16.8898 64.1801 16.1331 64.1801 15.1998C64.1801 14.2664 63.4234 13.5098 62.4901 13.5098Z" fill="white"/>
<path d="M47.29 13.5098C46.3566 13.5098 45.6 14.2664 45.6 15.1998C45.6 16.1331 46.3566 16.8898 47.29 16.8898C48.2233 16.8898 48.98 16.1331 48.98 15.1998C48.98 14.2664 48.2233 13.5098 47.29 13.5098Z" fill="white"/>
<path d="M32.09 13.5098C31.1567 13.5098 30.4 14.2664 30.4 15.1998C30.4 16.1331 31.1567 16.8898 32.09 16.8898C33.0234 16.8898 33.78 16.1331 33.78 15.1998C33.78 14.2664 33.0234 13.5098 32.09 13.5098Z" fill="white"/>
<path d="M16.89 13.5098C15.9566 13.5098 15.2 14.2664 15.2 15.1998C15.2 16.1331 15.9566 16.8898 16.89 16.8898C17.8233 16.8898 18.58 16.1331 18.58 15.1998C18.58 14.2664 17.8233 13.5098 16.89 13.5098Z" fill="white"/>
<path d="M1.69 13.5098C0.756641 13.5098 0 14.2664 0 15.1998C0 16.1331 0.756641 16.8898 1.69 16.8898C2.62336 16.8898 3.38 16.1331 3.38 15.1998C3.38 14.2664 2.62336 13.5098 1.69 13.5098Z" fill="white"/>
<path d="M152 1.69C152 0.760002 152.76 0 153.69 0C154.62 0 155.38 0.760002 155.38 1.69C155.38 2.62 154.62 3.38 153.69 3.38C152.76 3.38 152 2.62 152 1.69Z" fill="white"/>
<path d="M136.8 1.69C136.8 0.760002 137.56 0 138.49 0C139.42 0 140.18 0.760002 140.18 1.69C140.18 2.62 139.42 3.38 138.49 3.38C137.56 3.38 136.8 2.62 136.8 1.69Z" fill="white"/>
<path d="M121.6 1.69C121.6 0.760002 122.36 0 123.29 0C124.22 0 124.98 0.760002 124.98 1.69C124.98 2.62 124.22 3.38 123.29 3.38C122.36 3.38 121.6 2.62 121.6 1.69Z" fill="white"/>
<path d="M106.4 1.69C106.4 0.760002 107.16 0 108.09 0C109.02 0 109.78 0.760002 109.78 1.69C109.78 2.62 109.02 3.38 108.09 3.38C107.16 3.38 106.4 2.62 106.4 1.69Z" fill="white"/>
<path d="M91.2 1.69C91.2 0.760002 91.96 0 92.89 0C93.82 0 94.58 0.760002 94.58 1.69C94.58 2.62 93.82 3.38 92.89 3.38C91.96 3.38 91.2 2.62 91.2 1.69Z" fill="white"/>
<path d="M76 1.69C76 0.760002 76.76 0 77.69 0C78.62 0 79.38 0.760002 79.38 1.69C79.38 2.62 78.62 3.38 77.69 3.38C76.76 3.38 76 2.62 76 1.69Z" fill="white"/>
<path d="M60.8001 1.69C60.8001 0.760002 61.5601 0 62.4901 0C63.4201 0 64.1801 0.760002 64.1801 1.69C64.1801 2.62 63.4201 3.38 62.4901 3.38C61.5601 3.38 60.8001 2.62 60.8001 1.69Z" fill="white"/>
<path d="M45.6 1.69C45.6 0.760002 46.36 0 47.29 0C48.22 0 48.98 0.760002 48.98 1.69C48.98 2.62 48.22 3.38 47.29 3.38C46.36 3.38 45.6 2.62 45.6 1.69Z" fill="white"/>
<path d="M30.4 1.69C30.4 0.760002 31.16 0 32.09 0C33.02 0 33.78 0.760002 33.78 1.69C33.78 2.62 33.02 3.38 32.09 3.38C31.16 3.38 30.4 2.62 30.4 1.69Z" fill="white"/>
<path d="M15.2 1.69C15.2 0.760002 15.96 0 16.89 0C17.82 0 18.58 0.760002 18.58 1.69C18.58 2.62 17.82 3.38 16.89 3.38C15.96 3.38 15.2 2.62 15.2 1.69Z" fill="white"/>
<path d="M0 1.69C0 0.760002 0.760002 0 1.69 0C2.62 0 3.38 0.760002 3.38 1.69C3.38 2.62 2.62 3.38 1.69 3.38C0.760002 3.38 0 2.62 0 1.69Z" fill="white"/>
</svg>
