<svg width="156" height="152" viewBox="0 0 156 152" fill="none" xmlns="http://www.w3.org/2000/svg">
<path d="M1.69 3.37999C2.62336 3.37999 3.38 2.62335 3.38 1.68999C3.38 0.756626 2.62336 0 1.69 0C0.756637 0 0 0.756626 0 1.68999C0 2.62335 0.756637 3.37999 1.69 3.37999Z" fill="url(#paint0_linear_47_557)"/>
<path d="M16.8899 3.37999C17.8233 3.37999 18.5799 2.62335 18.5799 1.68999C18.5799 0.756626 17.8233 0 16.8899 0C15.9566 0 15.2 0.756626 15.2 1.68999C15.2 2.62335 15.9566 3.37999 16.8899 3.37999Z" fill="url(#paint1_linear_47_557)"/>
<path d="M32.09 3.37999C33.0234 3.37999 33.78 2.62335 33.78 1.68999C33.78 0.756626 33.0234 0 32.09 0C31.1567 0 30.4 0.756626 30.4 1.68999C30.4 2.62335 31.1567 3.37999 32.09 3.37999Z" fill="url(#paint2_linear_47_557)"/>
<path d="M48.98 1.68999C48.98 2.61999 48.22 3.37999 47.29 3.37999C46.36 3.37999 45.6 2.61999 45.6 1.68999C45.6 0.759987 46.36 0 47.29 0C48.22 0 48.98 0.759987 48.98 1.68999Z" fill="url(#paint3_linear_47_557)"/>
<path d="M64.18 1.68999C64.18 2.61999 63.4201 3.37999 62.4901 3.37999C61.5601 3.37999 60.8 2.61999 60.8 1.68999C60.8 0.759987 61.5601 0 62.4901 0C63.4201 0 64.18 0.759987 64.18 1.68999Z" fill="url(#paint4_linear_47_557)"/>
<path d="M1.69 16.89C2.62336 16.89 3.38 16.1334 3.38 15.2C3.38 14.2667 2.62336 13.51 1.69 13.51C0.756637 13.51 0 14.2667 0 15.2C0 16.1334 0.756637 16.89 1.69 16.89Z" fill="url(#paint5_linear_47_557)"/>
<path d="M16.8899 16.89C17.8233 16.89 18.5799 16.1334 18.5799 15.2C18.5799 14.2667 17.8233 13.51 16.8899 13.51C15.9566 13.51 15.2 14.2667 15.2 15.2C15.2 16.1334 15.9566 16.89 16.8899 16.89Z" fill="url(#paint6_linear_47_557)"/>
<path d="M32.09 16.89C33.0234 16.89 33.78 16.1334 33.78 15.2C33.78 14.2667 33.0234 13.51 32.09 13.51C31.1567 13.51 30.4 14.2667 30.4 15.2C30.4 16.1334 31.1567 16.89 32.09 16.89Z" fill="url(#paint7_linear_47_557)"/>
<path d="M48.98 15.2C48.98 16.13 48.22 16.89 47.29 16.89C46.36 16.89 45.6 16.13 45.6 15.2C45.6 14.27 46.36 13.51 47.29 13.51C48.22 13.51 48.98 14.27 48.98 15.2Z" fill="url(#paint8_linear_47_557)"/>
<path d="M64.18 15.2C64.18 16.13 63.4201 16.89 62.4901 16.89C61.5601 16.89 60.8 16.13 60.8 15.2C60.8 14.27 61.5601 13.51 62.4901 13.51C63.4201 13.51 64.18 14.27 64.18 15.2Z" fill="url(#paint9_linear_47_557)"/>
<path d="M1.69 30.4C2.62336 30.4 3.38 29.6434 3.38 28.71C3.38 27.7767 2.62336 27.02 1.69 27.02C0.756637 27.02 0 27.7767 0 28.71C0 29.6434 0.756637 30.4 1.69 30.4Z" fill="url(#paint10_linear_47_557)"/>
<path d="M16.8899 30.4C17.8233 30.4 18.5799 29.6434 18.5799 28.71C18.5799 27.7767 17.8233 27.02 16.8899 27.02C15.9566 27.02 15.2 27.7767 15.2 28.71C15.2 29.6434 15.9566 30.4 16.8899 30.4Z" fill="url(#paint11_linear_47_557)"/>
<path d="M32.09 30.4C33.0234 30.4 33.78 29.6434 33.78 28.71C33.78 27.7767 33.0234 27.02 32.09 27.02C31.1567 27.02 30.4 27.7767 30.4 28.71C30.4 29.6434 31.1567 30.4 32.09 30.4Z" fill="url(#paint12_linear_47_557)"/>
<path d="M48.98 28.71C48.98 29.64 48.22 30.4 47.29 30.4C46.36 30.4 45.6 29.64 45.6 28.71C45.6 27.78 46.36 27.02 47.29 27.02C48.22 27.02 48.98 27.78 48.98 28.71Z" fill="url(#paint13_linear_47_557)"/>
<path d="M64.18 28.71C64.18 29.64 63.4201 30.4 62.4901 30.4C61.5601 30.4 60.8 29.64 60.8 28.71C60.8 27.78 61.5601 27.02 62.4901 27.02C63.4201 27.02 64.18 27.78 64.18 28.71Z" fill="url(#paint14_linear_47_557)"/>
<path d="M3.38 42.22C3.38 43.15 2.62 43.91 1.69 43.91C0.759999 43.91 0 43.15 0 42.22C0 41.29 0.759999 40.53 1.69 40.53C2.62 40.53 3.38 41.29 3.38 42.22Z" fill="url(#paint15_linear_47_557)"/>
<path d="M18.5799 42.22C18.5799 43.15 17.8199 43.91 16.8899 43.91C15.9599 43.91 15.2 43.15 15.2 42.22C15.2 41.29 15.9599 40.53 16.8899 40.53C17.8199 40.53 18.5799 41.29 18.5799 42.22Z" fill="url(#paint16_linear_47_557)"/>
<path d="M33.78 42.22C33.78 43.15 33.02 43.91 32.09 43.91C31.16 43.91 30.4 43.15 30.4 42.22C30.4 41.29 31.16 40.53 32.09 40.53C33.02 40.53 33.78 41.29 33.78 42.22Z" fill="url(#paint17_linear_47_557)"/>
<path d="M48.98 42.22C48.98 43.15 48.22 43.91 47.29 43.91C46.36 43.91 45.6 43.15 45.6 42.22C45.6 41.29 46.36 40.53 47.29 40.53C48.22 40.53 48.98 41.29 48.98 42.22Z" fill="url(#paint18_linear_47_557)"/>
<path d="M64.18 42.22C64.18 43.15 63.4201 43.91 62.4901 43.91C61.5601 43.91 60.8 43.15 60.8 42.22C60.8 41.29 61.5601 40.53 62.4901 40.53C63.4201 40.53 64.18 41.29 64.18 42.22Z" fill="url(#paint19_linear_47_557)"/>
<path d="M3.38 55.73C3.38 56.66 2.62 57.42 1.69 57.42C0.759999 57.42 0 56.66 0 55.73C0 54.8 0.759999 54.04 1.69 54.04C2.62 54.04 3.38 54.8 3.38 55.73Z" fill="url(#paint20_linear_47_557)"/>
<path d="M18.5799 55.73C18.5799 56.66 17.8199 57.42 16.8899 57.42C15.9599 57.42 15.2 56.66 15.2 55.73C15.2 54.8 15.9599 54.04 16.8899 54.04C17.8199 54.04 18.5799 54.8 18.5799 55.73Z" fill="url(#paint21_linear_47_557)"/>
<path d="M33.78 55.73C33.78 56.66 33.02 57.42 32.09 57.42C31.16 57.42 30.4 56.66 30.4 55.73C30.4 54.8 31.16 54.04 32.09 54.04C33.02 54.04 33.78 54.8 33.78 55.73Z" fill="url(#paint22_linear_47_557)"/>
<path d="M48.98 55.73C48.98 56.66 48.22 57.42 47.29 57.42C46.36 57.42 45.6 56.66 45.6 55.73C45.6 54.8 46.36 54.04 47.29 54.04C48.22 54.04 48.98 54.8 48.98 55.73Z" fill="url(#paint23_linear_47_557)"/>
<path d="M64.18 55.73C64.18 56.66 63.4201 57.42 62.4901 57.42C61.5601 57.42 60.8 56.66 60.8 55.73C60.8 54.8 61.5601 54.04 62.4901 54.04C63.4201 54.04 64.18 54.8 64.18 55.73Z" fill="url(#paint24_linear_47_557)"/>
<path d="M3.38 69.2401C3.38 70.1701 2.62 70.9301 1.69 70.9301C0.759999 70.9301 0 70.1701 0 69.2401C0 68.3101 0.759999 67.55 1.69 67.55C2.62 67.55 3.38 68.3101 3.38 69.2401Z" fill="url(#paint25_linear_47_557)"/>
<path d="M18.5799 69.2401C18.5799 70.1701 17.8199 70.9301 16.8899 70.9301C15.9599 70.9301 15.2 70.1701 15.2 69.2401C15.2 68.3101 15.9599 67.55 16.8899 67.55C17.8199 67.55 18.5799 68.3101 18.5799 69.2401Z" fill="url(#paint26_linear_47_557)"/>
<path d="M33.78 69.2401C33.78 70.1701 33.02 70.9301 32.09 70.9301C31.16 70.9301 30.4 70.1701 30.4 69.2401C30.4 68.3101 31.16 67.55 32.09 67.55C33.02 67.55 33.78 68.3101 33.78 69.2401Z" fill="url(#paint27_linear_47_557)"/>
<path d="M48.98 69.2401C48.98 70.1701 48.22 70.9301 47.29 70.9301C46.36 70.9301 45.6 70.1701 45.6 69.2401C45.6 68.3101 46.36 67.55 47.29 67.55C48.22 67.55 48.98 68.3101 48.98 69.2401Z" fill="url(#paint28_linear_47_557)"/>
<path d="M64.18 69.2401C64.18 70.1701 63.4201 70.9301 62.4901 70.9301C61.5601 70.9301 60.8 70.1701 60.8 69.2401C60.8 68.3101 61.5601 67.55 62.4901 67.55C63.4201 67.55 64.18 68.3101 64.18 69.2401Z" fill="url(#paint29_linear_47_557)"/>
<path d="M1.69 84.4399C2.62336 84.4399 3.38 83.6833 3.38 82.7499C3.38 81.8166 2.62336 81.0599 1.69 81.0599C0.756637 81.0599 0 81.8166 0 82.7499C0 83.6833 0.756637 84.4399 1.69 84.4399Z" fill="url(#paint30_linear_47_557)"/>
<path d="M16.8899 84.4399C17.8233 84.4399 18.5799 83.6833 18.5799 82.7499C18.5799 81.8166 17.8233 81.0599 16.8899 81.0599C15.9566 81.0599 15.2 81.8166 15.2 82.7499C15.2 83.6833 15.9566 84.4399 16.8899 84.4399Z" fill="url(#paint31_linear_47_557)"/>
<path d="M32.09 84.4399C33.0234 84.4399 33.78 83.6833 33.78 82.7499C33.78 81.8166 33.0234 81.0599 32.09 81.0599C31.1567 81.0599 30.4 81.8166 30.4 82.7499C30.4 83.6833 31.1567 84.4399 32.09 84.4399Z" fill="url(#paint32_linear_47_557)"/>
<path d="M48.98 82.7499C48.98 83.6799 48.22 84.4399 47.29 84.4399C46.36 84.4399 45.6 83.6799 45.6 82.7499C45.6 81.8199 46.36 81.0599 47.29 81.0599C48.22 81.0699 48.98 81.8199 48.98 82.7499Z" fill="url(#paint33_linear_47_557)"/>
<path d="M64.18 82.7499C64.18 83.6799 63.4201 84.4399 62.4901 84.4399C61.5601 84.4399 60.8 83.6799 60.8 82.7499C60.8 81.8199 61.5601 81.0599 62.4901 81.0599C63.4201 81.0699 64.18 81.8199 64.18 82.7499Z" fill="url(#paint34_linear_47_557)"/>
<path d="M3.38 96.27C3.38 97.2 2.62 97.96 1.69 97.96C0.759999 97.96 0 97.2 0 96.27C0 95.34 0.759999 94.58 1.69 94.58C2.62 94.58 3.38 95.33 3.38 96.27Z" fill="url(#paint35_linear_47_557)"/>
<path d="M18.5799 96.27C18.5799 97.2 17.8199 97.96 16.8899 97.96C15.9599 97.96 15.2 97.2 15.2 96.27C15.2 95.34 15.9599 94.58 16.8899 94.58C17.8199 94.58 18.5799 95.33 18.5799 96.27Z" fill="url(#paint36_linear_47_557)"/>
<path d="M33.78 96.27C33.78 97.2 33.02 97.96 32.09 97.96C31.16 97.96 30.4 97.2 30.4 96.27C30.4 95.34 31.16 94.58 32.09 94.58C33.02 94.58 33.78 95.33 33.78 96.27Z" fill="url(#paint37_linear_47_557)"/>
<path d="M48.98 96.27C48.98 97.2 48.22 97.96 47.29 97.96C46.36 97.96 45.6 97.2 45.6 96.27C45.6 95.34 46.36 94.58 47.29 94.58C48.22 94.58 48.98 95.33 48.98 96.27Z" fill="url(#paint38_linear_47_557)"/>
<path d="M64.18 96.27C64.18 97.2 63.4201 97.96 62.4901 97.96C61.5601 97.96 60.8 97.2 60.8 96.27C60.8 95.34 61.5601 94.58 62.4901 94.58C63.4201 94.58 64.18 95.33 64.18 96.27Z" fill="url(#paint39_linear_47_557)"/>
<path d="M79.38 96.27C79.38 97.2 78.62 97.96 77.69 97.96C76.76 97.96 76 97.2 76 96.27C76 95.34 76.76 94.58 77.69 94.58C78.62 94.58 79.38 95.33 79.38 96.27Z" fill="url(#paint40_linear_47_557)"/>
<path d="M94.5799 96.27C94.5799 97.2 93.8199 97.96 92.8899 97.96C91.9599 97.96 91.2 97.2 91.2 96.27C91.2 95.34 91.9599 94.58 92.8899 94.58C93.8199 94.58 94.5799 95.33 94.5799 96.27Z" fill="url(#paint41_linear_47_557)"/>
<path d="M109.78 96.27C109.78 97.2 109.02 97.96 108.09 97.96C107.16 97.96 106.4 97.2 106.4 96.27C106.4 95.34 107.16 94.58 108.09 94.58C109.02 94.58 109.78 95.33 109.78 96.27Z" fill="url(#paint42_linear_47_557)"/>
<path d="M124.98 96.27C124.98 97.2 124.22 97.96 123.29 97.96C122.36 97.96 121.6 97.2 121.6 96.27C121.6 95.34 122.36 94.58 123.29 94.58C124.22 94.58 124.98 95.33 124.98 96.27Z" fill="url(#paint43_linear_47_557)"/>
<path d="M140.18 96.27C140.18 97.2 139.42 97.96 138.49 97.96C137.56 97.96 136.8 97.2 136.8 96.27C136.8 95.34 137.56 94.58 138.49 94.58C139.42 94.58 140.18 95.33 140.18 96.27Z" fill="url(#paint44_linear_47_557)"/>
<path d="M155.38 96.27C155.38 97.2 154.62 97.96 153.69 97.96C152.76 97.96 152 97.2 152 96.27C152 95.34 152.76 94.58 153.69 94.58C154.62 94.58 155.38 95.33 155.38 96.27Z" fill="url(#paint45_linear_47_557)"/>
<path d="M3.38 109.78C3.38 110.71 2.62 111.47 1.69 111.47C0.759999 111.47 0 110.71 0 109.78C0 108.85 0.759999 108.09 1.69 108.09C2.62 108.09 3.38 108.84 3.38 109.78Z" fill="url(#paint46_linear_47_557)"/>
<path d="M18.5799 109.78C18.5799 110.71 17.8199 111.47 16.8899 111.47C15.9599 111.47 15.2 110.71 15.2 109.78C15.2 108.85 15.9599 108.09 16.8899 108.09C17.8199 108.09 18.5799 108.84 18.5799 109.78Z" fill="url(#paint47_linear_47_557)"/>
<path d="M33.78 109.78C33.78 110.71 33.02 111.47 32.09 111.47C31.16 111.47 30.4 110.71 30.4 109.78C30.4 108.85 31.16 108.09 32.09 108.09C33.02 108.09 33.78 108.84 33.78 109.78Z" fill="url(#paint48_linear_47_557)"/>
<path d="M48.98 109.78C48.98 110.71 48.22 111.47 47.29 111.47C46.36 111.47 45.6 110.71 45.6 109.78C45.6 108.85 46.36 108.09 47.29 108.09C48.22 108.09 48.98 108.84 48.98 109.78Z" fill="url(#paint49_linear_47_557)"/>
<path d="M64.18 109.78C64.18 110.71 63.4201 111.47 62.4901 111.47C61.5601 111.47 60.8 110.71 60.8 109.78C60.8 108.85 61.5601 108.09 62.4901 108.09C63.4201 108.09 64.18 108.84 64.18 109.78Z" fill="url(#paint50_linear_47_557)"/>
<path d="M79.38 109.78C79.38 110.71 78.62 111.47 77.69 111.47C76.76 111.47 76 110.71 76 109.78C76 108.85 76.76 108.09 77.69 108.09C78.62 108.09 79.38 108.84 79.38 109.78Z" fill="url(#paint51_linear_47_557)"/>
<path d="M94.5799 109.78C94.5799 110.71 93.8199 111.47 92.8899 111.47C91.9599 111.47 91.2 110.71 91.2 109.78C91.2 108.85 91.9599 108.09 92.8899 108.09C93.8199 108.09 94.5799 108.84 94.5799 109.78Z" fill="url(#paint52_linear_47_557)"/>
<path d="M109.78 109.78C109.78 110.71 109.02 111.47 108.09 111.47C107.16 111.47 106.4 110.71 106.4 109.78C106.4 108.85 107.16 108.09 108.09 108.09C109.02 108.09 109.78 108.84 109.78 109.78Z" fill="url(#paint53_linear_47_557)"/>
<path d="M124.98 109.78C124.98 110.71 124.22 111.47 123.29 111.47C122.36 111.47 121.6 110.71 121.6 109.78C121.6 108.85 122.36 108.09 123.29 108.09C124.22 108.09 124.98 108.84 124.98 109.78Z" fill="url(#paint54_linear_47_557)"/>
<path d="M140.18 109.78C140.18 110.71 139.42 111.47 138.49 111.47C137.56 111.47 136.8 110.71 136.8 109.78C136.8 108.85 137.56 108.09 138.49 108.09C139.42 108.09 140.18 108.84 140.18 109.78Z" fill="url(#paint55_linear_47_557)"/>
<path d="M155.38 109.78C155.38 110.71 154.62 111.47 153.69 111.47C152.76 111.47 152 110.71 152 109.78C152 108.85 152.76 108.09 153.69 108.09C154.62 108.09 155.38 108.84 155.38 109.78Z" fill="url(#paint56_linear_47_557)"/>
<path d="M3.38 123.29C3.38 124.22 2.62 124.98 1.69 124.98C0.759999 124.98 0 124.22 0 123.29C0 122.36 0.759999 121.6 1.69 121.6C2.62 121.6 3.38 122.36 3.38 123.29Z" fill="url(#paint57_linear_47_557)"/>
<path d="M18.5799 123.29C18.5799 124.22 17.8199 124.98 16.8899 124.98C15.9599 124.98 15.2 124.22 15.2 123.29C15.2 122.36 15.9599 121.6 16.8899 121.6C17.8199 121.6 18.5799 122.36 18.5799 123.29Z" fill="url(#paint58_linear_47_557)"/>
<path d="M33.78 123.29C33.78 124.22 33.02 124.98 32.09 124.98C31.16 124.98 30.4 124.22 30.4 123.29C30.4 122.36 31.16 121.6 32.09 121.6C33.02 121.6 33.78 122.36 33.78 123.29Z" fill="url(#paint59_linear_47_557)"/>
<path d="M48.98 123.29C48.98 124.22 48.22 124.98 47.29 124.98C46.36 124.98 45.6 124.22 45.6 123.29C45.6 122.36 46.36 121.6 47.29 121.6C48.22 121.6 48.98 122.36 48.98 123.29Z" fill="url(#paint60_linear_47_557)"/>
<path d="M64.18 123.29C64.18 124.22 63.4201 124.98 62.4901 124.98C61.5601 124.98 60.8 124.22 60.8 123.29C60.8 122.36 61.5601 121.6 62.4901 121.6C63.4201 121.6 64.18 122.36 64.18 123.29Z" fill="url(#paint61_linear_47_557)"/>
<path d="M79.38 123.29C79.38 124.22 78.62 124.98 77.69 124.98C76.76 124.98 76 124.22 76 123.29C76 122.36 76.76 121.6 77.69 121.6C78.62 121.6 79.38 122.36 79.38 123.29Z" fill="url(#paint62_linear_47_557)"/>
<path d="M94.5799 123.29C94.5799 124.22 93.8199 124.98 92.8899 124.98C91.9599 124.98 91.2 124.22 91.2 123.29C91.2 122.36 91.9599 121.6 92.8899 121.6C93.8199 121.6 94.5799 122.36 94.5799 123.29Z" fill="url(#paint63_linear_47_557)"/>
<path d="M109.78 123.29C109.78 124.22 109.02 124.98 108.09 124.98C107.16 124.98 106.4 124.22 106.4 123.29C106.4 122.36 107.16 121.6 108.09 121.6C109.02 121.6 109.78 122.36 109.78 123.29Z" fill="url(#paint64_linear_47_557)"/>
<path d="M124.98 123.29C124.98 124.22 124.22 124.98 123.29 124.98C122.36 124.98 121.6 124.22 121.6 123.29C121.6 122.36 122.36 121.6 123.29 121.6C124.22 121.6 124.98 122.36 124.98 123.29Z" fill="url(#paint65_linear_47_557)"/>
<path d="M140.18 123.29C140.18 124.22 139.42 124.98 138.49 124.98C137.56 124.98 136.8 124.22 136.8 123.29C136.8 122.36 137.56 121.6 138.49 121.6C139.42 121.6 140.18 122.36 140.18 123.29Z" fill="url(#paint66_linear_47_557)"/>
<path d="M155.38 123.29C155.38 124.22 154.62 124.98 153.69 124.98C152.76 124.98 152 124.22 152 123.29C152 122.36 152.76 121.6 153.69 121.6C154.62 121.6 155.38 122.36 155.38 123.29Z" fill="url(#paint67_linear_47_557)"/>
<path d="M1.69 138.49C2.62336 138.49 3.38 137.733 3.38 136.8C3.38 135.867 2.62336 135.11 1.69 135.11C0.756637 135.11 0 135.867 0 136.8C0 137.733 0.756637 138.49 1.69 138.49Z" fill="url(#paint68_linear_47_557)"/>
<path d="M16.8899 138.49C17.8233 138.49 18.5799 137.733 18.5799 136.8C18.5799 135.867 17.8233 135.11 16.8899 135.11C15.9566 135.11 15.2 135.867 15.2 136.8C15.2 137.733 15.9566 138.49 16.8899 138.49Z" fill="url(#paint69_linear_47_557)"/>
<path d="M32.09 138.49C33.0234 138.49 33.78 137.733 33.78 136.8C33.78 135.867 33.0234 135.11 32.09 135.11C31.1567 135.11 30.4 135.867 30.4 136.8C30.4 137.733 31.1567 138.49 32.09 138.49Z" fill="url(#paint70_linear_47_557)"/>
<path d="M48.98 136.8C48.98 137.73 48.22 138.49 47.29 138.49C46.36 138.49 45.6 137.73 45.6 136.8C45.6 135.87 46.36 135.11 47.29 135.11C48.22 135.11 48.98 135.87 48.98 136.8Z" fill="url(#paint71_linear_47_557)"/>
<path d="M64.18 136.8C64.18 137.73 63.4201 138.49 62.4901 138.49C61.5601 138.49 60.8 137.73 60.8 136.8C60.8 135.87 61.5601 135.11 62.4901 135.11C63.4201 135.11 64.18 135.87 64.18 136.8Z" fill="url(#paint72_linear_47_557)"/>
<path d="M77.69 138.49C78.6234 138.49 79.38 137.733 79.38 136.8C79.38 135.867 78.6234 135.11 77.69 135.11C76.7566 135.11 76 135.867 76 136.8C76 137.733 76.7566 138.49 77.69 138.49Z" fill="url(#paint73_linear_47_557)"/>
<path d="M92.8899 138.49C93.8233 138.49 94.5799 137.733 94.5799 136.8C94.5799 135.867 93.8233 135.11 92.8899 135.11C91.9566 135.11 91.2 135.867 91.2 136.8C91.2 137.733 91.9566 138.49 92.8899 138.49Z" fill="url(#paint74_linear_47_557)"/>
<path d="M108.09 138.49C109.023 138.49 109.78 137.733 109.78 136.8C109.78 135.867 109.023 135.11 108.09 135.11C107.157 135.11 106.4 135.867 106.4 136.8C106.4 137.733 107.157 138.49 108.09 138.49Z" fill="url(#paint75_linear_47_557)"/>
<path d="M123.29 138.49C124.223 138.49 124.98 137.733 124.98 136.8C124.98 135.867 124.223 135.11 123.29 135.11C122.357 135.11 121.6 135.867 121.6 136.8C121.6 137.733 122.357 138.49 123.29 138.49Z" fill="url(#paint76_linear_47_557)"/>
<path d="M138.49 138.49C139.423 138.49 140.18 137.733 140.18 136.8C140.18 135.867 139.423 135.11 138.49 135.11C137.557 135.11 136.8 135.867 136.8 136.8C136.8 137.733 137.557 138.49 138.49 138.49Z" fill="url(#paint77_linear_47_557)"/>
<path d="M153.69 138.49C154.623 138.49 155.38 137.733 155.38 136.8C155.38 135.867 154.623 135.11 153.69 135.11C152.757 135.11 152 135.867 152 136.8C152 137.733 152.757 138.49 153.69 138.49Z" fill="url(#paint78_linear_47_557)"/>
<path d="M3.38 150.31C3.38 151.24 2.62 152 1.69 152C0.759999 152 0 151.24 0 150.31C0 149.38 0.759999 148.62 1.69 148.62C2.62 148.62 3.38 149.38 3.38 150.31Z" fill="url(#paint79_linear_47_557)"/>
<path d="M18.5799 150.31C18.5799 151.24 17.8199 152 16.8899 152C15.9599 152 15.2 151.24 15.2 150.31C15.2 149.38 15.9599 148.62 16.8899 148.62C17.8199 148.62 18.5799 149.38 18.5799 150.31Z" fill="url(#paint80_linear_47_557)"/>
<path d="M33.78 150.31C33.78 151.24 33.02 152 32.09 152C31.16 152 30.4 151.24 30.4 150.31C30.4 149.38 31.16 148.62 32.09 148.62C33.02 148.62 33.78 149.38 33.78 150.31Z" fill="url(#paint81_linear_47_557)"/>
<path d="M48.98 150.31C48.98 151.24 48.22 152 47.29 152C46.36 152 45.6 151.24 45.6 150.31C45.6 149.38 46.36 148.62 47.29 148.62C48.22 148.62 48.98 149.38 48.98 150.31Z" fill="url(#paint82_linear_47_557)"/>
<path d="M64.18 150.31C64.18 151.24 63.4201 152 62.4901 152C61.5601 152 60.8 151.24 60.8 150.31C60.8 149.38 61.5601 148.62 62.4901 148.62C63.4201 148.62 64.18 149.38 64.18 150.31Z" fill="url(#paint83_linear_47_557)"/>
<path d="M79.38 150.31C79.38 151.24 78.62 152 77.69 152C76.76 152 76 151.24 76 150.31C76 149.38 76.76 148.62 77.69 148.62C78.62 148.62 79.38 149.38 79.38 150.31Z" fill="url(#paint84_linear_47_557)"/>
<path d="M94.5799 150.31C94.5799 151.24 93.8199 152 92.8899 152C91.9599 152 91.2 151.24 91.2 150.31C91.2 149.38 91.9599 148.62 92.8899 148.62C93.8199 148.62 94.5799 149.38 94.5799 150.31Z" fill="url(#paint85_linear_47_557)"/>
<path d="M109.78 150.31C109.78 151.24 109.02 152 108.09 152C107.16 152 106.4 151.24 106.4 150.31C106.4 149.38 107.16 148.62 108.09 148.62C109.02 148.62 109.78 149.38 109.78 150.31Z" fill="url(#paint86_linear_47_557)"/>
<path d="M124.98 150.31C124.98 151.24 124.22 152 123.29 152C122.36 152 121.6 151.24 121.6 150.31C121.6 149.38 122.36 148.62 123.29 148.62C124.22 148.62 124.98 149.38 124.98 150.31Z" fill="url(#paint87_linear_47_557)"/>
<path d="M140.18 150.31C140.18 151.24 139.42 152 138.49 152C137.56 152 136.8 151.24 136.8 150.31C136.8 149.38 137.56 148.62 138.49 148.62C139.42 148.62 140.18 149.38 140.18 150.31Z" fill="url(#paint88_linear_47_557)"/>
<path d="M155.38 150.31C155.38 151.24 154.62 152 153.69 152C152.76 152 152 151.24 152 150.31C152 149.38 152.76 148.62 153.69 148.62C154.62 148.62 155.38 149.38 155.38 150.31Z" fill="url(#paint89_linear_47_557)"/>
<defs>
<linearGradient id="paint0_linear_47_557" x1="0" y1="3.37999" x2="3.37999" y2="-9.53673e-06" gradientUnits="userSpaceOnUse">
<stop stop-color="#4070F4"/>
<stop offset="1" stop-color="#2BD67B"/>
</linearGradient>
<linearGradient id="paint1_linear_47_557" x1="15.2" y1="3.37999" x2="18.5799" y2="-7.62939e-06" gradientUnits="userSpaceOnUse">
<stop stop-color="#4070F4"/>
<stop offset="1" stop-color="#2BD67B"/>
</linearGradient>
<linearGradient id="paint2_linear_47_557" x1="30.4" y1="3.37999" x2="33.78" y2="-1.14441e-05" gradientUnits="userSpaceOnUse">
<stop stop-color="#4070F4"/>
<stop offset="1" stop-color="#2BD67B"/>
</linearGradient>
<linearGradient id="paint3_linear_47_557" x1="45.6" y1="3.37999" x2="48.98" y2="-7.62939e-06" gradientUnits="userSpaceOnUse">
<stop stop-color="#4070F4"/>
<stop offset="1" stop-color="#2BD67B"/>
</linearGradient>
<linearGradient id="paint4_linear_47_557" x1="60.8" y1="3.37999" x2="64.18" y2="-7.62939e-06" gradientUnits="userSpaceOnUse">
<stop stop-color="#4070F4"/>
<stop offset="1" stop-color="#2BD67B"/>
</linearGradient>
<linearGradient id="paint5_linear_47_557" x1="0" y1="16.89" x2="3.38" y2="13.51" gradientUnits="userSpaceOnUse">
<stop stop-color="#4070F4"/>
<stop offset="1" stop-color="#2BD67B"/>
</linearGradient>
<linearGradient id="paint6_linear_47_557" x1="15.2" y1="16.89" x2="18.58" y2="13.51" gradientUnits="userSpaceOnUse">
<stop stop-color="#4070F4"/>
<stop offset="1" stop-color="#2BD67B"/>
</linearGradient>
<linearGradient id="paint7_linear_47_557" x1="30.4" y1="16.89" x2="33.78" y2="13.51" gradientUnits="userSpaceOnUse">
<stop stop-color="#4070F4"/>
<stop offset="1" stop-color="#2BD67B"/>
</linearGradient>
<linearGradient id="paint8_linear_47_557" x1="45.6" y1="16.89" x2="48.98" y2="13.51" gradientUnits="userSpaceOnUse">
<stop stop-color="#4070F4"/>
<stop offset="1" stop-color="#2BD67B"/>
</linearGradient>
<linearGradient id="paint9_linear_47_557" x1="60.8" y1="16.89" x2="64.1801" y2="13.51" gradientUnits="userSpaceOnUse">
<stop stop-color="#4070F4"/>
<stop offset="1" stop-color="#2BD67B"/>
</linearGradient>
<linearGradient id="paint10_linear_47_557" x1="0" y1="30.4" x2="3.38" y2="27.02" gradientUnits="userSpaceOnUse">
<stop stop-color="#4070F4"/>
<stop offset="1" stop-color="#2BD67B"/>
</linearGradient>
<linearGradient id="paint11_linear_47_557" x1="15.2" y1="30.4" x2="18.58" y2="27.02" gradientUnits="userSpaceOnUse">
<stop stop-color="#4070F4"/>
<stop offset="1" stop-color="#2BD67B"/>
</linearGradient>
<linearGradient id="paint12_linear_47_557" x1="30.4" y1="30.4" x2="33.78" y2="27.02" gradientUnits="userSpaceOnUse">
<stop stop-color="#4070F4"/>
<stop offset="1" stop-color="#2BD67B"/>
</linearGradient>
<linearGradient id="paint13_linear_47_557" x1="45.6" y1="30.4" x2="48.98" y2="27.02" gradientUnits="userSpaceOnUse">
<stop stop-color="#4070F4"/>
<stop offset="1" stop-color="#2BD67B"/>
</linearGradient>
<linearGradient id="paint14_linear_47_557" x1="60.8" y1="30.4" x2="64.1801" y2="27.02" gradientUnits="userSpaceOnUse">
<stop stop-color="#4070F4"/>
<stop offset="1" stop-color="#2BD67B"/>
</linearGradient>
<linearGradient id="paint15_linear_47_557" x1="0" y1="43.91" x2="3.37999" y2="40.53" gradientUnits="userSpaceOnUse">
<stop stop-color="#4070F4"/>
<stop offset="1" stop-color="#2BD67B"/>
</linearGradient>
<linearGradient id="paint16_linear_47_557" x1="15.2" y1="43.91" x2="18.5799" y2="40.53" gradientUnits="userSpaceOnUse">
<stop stop-color="#4070F4"/>
<stop offset="1" stop-color="#2BD67B"/>
</linearGradient>
<linearGradient id="paint17_linear_47_557" x1="30.4" y1="43.91" x2="33.78" y2="40.53" gradientUnits="userSpaceOnUse">
<stop stop-color="#4070F4"/>
<stop offset="1" stop-color="#2BD67B"/>
</linearGradient>
<linearGradient id="paint18_linear_47_557" x1="45.6" y1="43.91" x2="48.98" y2="40.53" gradientUnits="userSpaceOnUse">
<stop stop-color="#4070F4"/>
<stop offset="1" stop-color="#2BD67B"/>
</linearGradient>
<linearGradient id="paint19_linear_47_557" x1="60.8" y1="43.91" x2="64.18" y2="40.53" gradientUnits="userSpaceOnUse">
<stop stop-color="#4070F4"/>
<stop offset="1" stop-color="#2BD67B"/>
</linearGradient>
<linearGradient id="paint20_linear_47_557" x1="0" y1="57.42" x2="3.38" y2="54.04" gradientUnits="userSpaceOnUse">
<stop stop-color="#4070F4"/>
<stop offset="1" stop-color="#2BD67B"/>
</linearGradient>
<linearGradient id="paint21_linear_47_557" x1="15.2" y1="57.42" x2="18.58" y2="54.04" gradientUnits="userSpaceOnUse">
<stop stop-color="#4070F4"/>
<stop offset="1" stop-color="#2BD67B"/>
</linearGradient>
<linearGradient id="paint22_linear_47_557" x1="30.4" y1="57.42" x2="33.78" y2="54.04" gradientUnits="userSpaceOnUse">
<stop stop-color="#4070F4"/>
<stop offset="1" stop-color="#2BD67B"/>
</linearGradient>
<linearGradient id="paint23_linear_47_557" x1="45.6" y1="57.42" x2="48.98" y2="54.04" gradientUnits="userSpaceOnUse">
<stop stop-color="#4070F4"/>
<stop offset="1" stop-color="#2BD67B"/>
</linearGradient>
<linearGradient id="paint24_linear_47_557" x1="60.8" y1="57.42" x2="64.1801" y2="54.04" gradientUnits="userSpaceOnUse">
<stop stop-color="#4070F4"/>
<stop offset="1" stop-color="#2BD67B"/>
</linearGradient>
<linearGradient id="paint25_linear_47_557" x1="0" y1="70.9301" x2="3.38" y2="67.5501" gradientUnits="userSpaceOnUse">
<stop stop-color="#4070F4"/>
<stop offset="1" stop-color="#2BD67B"/>
</linearGradient>
<linearGradient id="paint26_linear_47_557" x1="15.2" y1="70.9301" x2="18.58" y2="67.5501" gradientUnits="userSpaceOnUse">
<stop stop-color="#4070F4"/>
<stop offset="1" stop-color="#2BD67B"/>
</linearGradient>
<linearGradient id="paint27_linear_47_557" x1="30.4" y1="70.9301" x2="33.78" y2="67.5501" gradientUnits="userSpaceOnUse">
<stop stop-color="#4070F4"/>
<stop offset="1" stop-color="#2BD67B"/>
</linearGradient>
<linearGradient id="paint28_linear_47_557" x1="45.6" y1="70.9301" x2="48.98" y2="67.5501" gradientUnits="userSpaceOnUse">
<stop stop-color="#4070F4"/>
<stop offset="1" stop-color="#2BD67B"/>
</linearGradient>
<linearGradient id="paint29_linear_47_557" x1="60.8" y1="70.9301" x2="64.1801" y2="67.5501" gradientUnits="userSpaceOnUse">
<stop stop-color="#4070F4"/>
<stop offset="1" stop-color="#2BD67B"/>
</linearGradient>
<linearGradient id="paint30_linear_47_557" x1="0" y1="84.4399" x2="3.38" y2="81.0599" gradientUnits="userSpaceOnUse">
<stop stop-color="#4070F4"/>
<stop offset="1" stop-color="#2BD67B"/>
</linearGradient>
<linearGradient id="paint31_linear_47_557" x1="15.2" y1="84.4399" x2="18.58" y2="81.0599" gradientUnits="userSpaceOnUse">
<stop stop-color="#4070F4"/>
<stop offset="1" stop-color="#2BD67B"/>
</linearGradient>
<linearGradient id="paint32_linear_47_557" x1="30.4" y1="84.4399" x2="33.78" y2="81.0599" gradientUnits="userSpaceOnUse">
<stop stop-color="#4070F4"/>
<stop offset="1" stop-color="#2BD67B"/>
</linearGradient>
<linearGradient id="paint33_linear_47_557" x1="45.6" y1="84.4399" x2="48.98" y2="81.0599" gradientUnits="userSpaceOnUse">
<stop stop-color="#4070F4"/>
<stop offset="1" stop-color="#2BD67B"/>
</linearGradient>
<linearGradient id="paint34_linear_47_557" x1="60.8" y1="84.4399" x2="64.1801" y2="81.0599" gradientUnits="userSpaceOnUse">
<stop stop-color="#4070F4"/>
<stop offset="1" stop-color="#2BD67B"/>
</linearGradient>
<linearGradient id="paint35_linear_47_557" x1="0" y1="97.96" x2="3.38" y2="94.58" gradientUnits="userSpaceOnUse">
<stop stop-color="#4070F4"/>
<stop offset="1" stop-color="#2BD67B"/>
</linearGradient>
<linearGradient id="paint36_linear_47_557" x1="15.2" y1="97.96" x2="18.58" y2="94.58" gradientUnits="userSpaceOnUse">
<stop stop-color="#4070F4"/>
<stop offset="1" stop-color="#2BD67B"/>
</linearGradient>
<linearGradient id="paint37_linear_47_557" x1="30.4" y1="97.96" x2="33.78" y2="94.58" gradientUnits="userSpaceOnUse">
<stop stop-color="#4070F4"/>
<stop offset="1" stop-color="#2BD67B"/>
</linearGradient>
<linearGradient id="paint38_linear_47_557" x1="45.6" y1="97.96" x2="48.98" y2="94.58" gradientUnits="userSpaceOnUse">
<stop stop-color="#4070F4"/>
<stop offset="1" stop-color="#2BD67B"/>
</linearGradient>
<linearGradient id="paint39_linear_47_557" x1="60.8" y1="97.96" x2="64.1801" y2="94.58" gradientUnits="userSpaceOnUse">
<stop stop-color="#4070F4"/>
<stop offset="1" stop-color="#2BD67B"/>
</linearGradient>
<linearGradient id="paint40_linear_47_557" x1="76" y1="97.96" x2="79.38" y2="94.58" gradientUnits="userSpaceOnUse">
<stop stop-color="#4070F4"/>
<stop offset="1" stop-color="#2BD67B"/>
</linearGradient>
<linearGradient id="paint41_linear_47_557" x1="91.2" y1="97.96" x2="94.58" y2="94.58" gradientUnits="userSpaceOnUse">
<stop stop-color="#4070F4"/>
<stop offset="1" stop-color="#2BD67B"/>
</linearGradient>
<linearGradient id="paint42_linear_47_557" x1="106.4" y1="97.96" x2="109.78" y2="94.58" gradientUnits="userSpaceOnUse">
<stop stop-color="#4070F4"/>
<stop offset="1" stop-color="#2BD67B"/>
</linearGradient>
<linearGradient id="paint43_linear_47_557" x1="121.6" y1="97.96" x2="124.98" y2="94.58" gradientUnits="userSpaceOnUse">
<stop stop-color="#4070F4"/>
<stop offset="1" stop-color="#2BD67B"/>
</linearGradient>
<linearGradient id="paint44_linear_47_557" x1="136.8" y1="97.96" x2="140.18" y2="94.58" gradientUnits="userSpaceOnUse">
<stop stop-color="#4070F4"/>
<stop offset="1" stop-color="#2BD67B"/>
</linearGradient>
<linearGradient id="paint45_linear_47_557" x1="152" y1="97.96" x2="155.38" y2="94.58" gradientUnits="userSpaceOnUse">
<stop stop-color="#4070F4"/>
<stop offset="1" stop-color="#2BD67B"/>
</linearGradient>
<linearGradient id="paint46_linear_47_557" x1="0" y1="111.47" x2="3.38" y2="108.09" gradientUnits="userSpaceOnUse">
<stop stop-color="#4070F4"/>
<stop offset="1" stop-color="#2BD67B"/>
</linearGradient>
<linearGradient id="paint47_linear_47_557" x1="15.2" y1="111.47" x2="18.58" y2="108.09" gradientUnits="userSpaceOnUse">
<stop stop-color="#4070F4"/>
<stop offset="1" stop-color="#2BD67B"/>
</linearGradient>
<linearGradient id="paint48_linear_47_557" x1="30.4" y1="111.47" x2="33.78" y2="108.09" gradientUnits="userSpaceOnUse">
<stop stop-color="#4070F4"/>
<stop offset="1" stop-color="#2BD67B"/>
</linearGradient>
<linearGradient id="paint49_linear_47_557" x1="45.6" y1="111.47" x2="48.98" y2="108.09" gradientUnits="userSpaceOnUse">
<stop stop-color="#4070F4"/>
<stop offset="1" stop-color="#2BD67B"/>
</linearGradient>
<linearGradient id="paint50_linear_47_557" x1="60.8" y1="111.47" x2="64.1801" y2="108.09" gradientUnits="userSpaceOnUse">
<stop stop-color="#4070F4"/>
<stop offset="1" stop-color="#2BD67B"/>
</linearGradient>
<linearGradient id="paint51_linear_47_557" x1="76" y1="111.47" x2="79.38" y2="108.09" gradientUnits="userSpaceOnUse">
<stop stop-color="#4070F4"/>
<stop offset="1" stop-color="#2BD67B"/>
</linearGradient>
<linearGradient id="paint52_linear_47_557" x1="91.2" y1="111.47" x2="94.58" y2="108.09" gradientUnits="userSpaceOnUse">
<stop stop-color="#4070F4"/>
<stop offset="1" stop-color="#2BD67B"/>
</linearGradient>
<linearGradient id="paint53_linear_47_557" x1="106.4" y1="111.47" x2="109.78" y2="108.09" gradientUnits="userSpaceOnUse">
<stop stop-color="#4070F4"/>
<stop offset="1" stop-color="#2BD67B"/>
</linearGradient>
<linearGradient id="paint54_linear_47_557" x1="121.6" y1="111.47" x2="124.98" y2="108.09" gradientUnits="userSpaceOnUse">
<stop stop-color="#4070F4"/>
<stop offset="1" stop-color="#2BD67B"/>
</linearGradient>
<linearGradient id="paint55_linear_47_557" x1="136.8" y1="111.47" x2="140.18" y2="108.09" gradientUnits="userSpaceOnUse">
<stop stop-color="#4070F4"/>
<stop offset="1" stop-color="#2BD67B"/>
</linearGradient>
<linearGradient id="paint56_linear_47_557" x1="152" y1="111.47" x2="155.38" y2="108.09" gradientUnits="userSpaceOnUse">
<stop stop-color="#4070F4"/>
<stop offset="1" stop-color="#2BD67B"/>
</linearGradient>
<linearGradient id="paint57_linear_47_557" x1="0" y1="124.98" x2="3.38" y2="121.6" gradientUnits="userSpaceOnUse">
<stop stop-color="#4070F4"/>
<stop offset="1" stop-color="#2BD67B"/>
</linearGradient>
<linearGradient id="paint58_linear_47_557" x1="15.2" y1="124.98" x2="18.58" y2="121.6" gradientUnits="userSpaceOnUse">
<stop stop-color="#4070F4"/>
<stop offset="1" stop-color="#2BD67B"/>
</linearGradient>
<linearGradient id="paint59_linear_47_557" x1="30.4" y1="124.98" x2="33.78" y2="121.6" gradientUnits="userSpaceOnUse">
<stop stop-color="#4070F4"/>
<stop offset="1" stop-color="#2BD67B"/>
</linearGradient>
<linearGradient id="paint60_linear_47_557" x1="45.6" y1="124.98" x2="48.98" y2="121.6" gradientUnits="userSpaceOnUse">
<stop stop-color="#4070F4"/>
<stop offset="1" stop-color="#2BD67B"/>
</linearGradient>
<linearGradient id="paint61_linear_47_557" x1="60.8" y1="124.98" x2="64.1801" y2="121.6" gradientUnits="userSpaceOnUse">
<stop stop-color="#4070F4"/>
<stop offset="1" stop-color="#2BD67B"/>
</linearGradient>
<linearGradient id="paint62_linear_47_557" x1="76" y1="124.98" x2="79.38" y2="121.6" gradientUnits="userSpaceOnUse">
<stop stop-color="#4070F4"/>
<stop offset="1" stop-color="#2BD67B"/>
</linearGradient>
<linearGradient id="paint63_linear_47_557" x1="91.2" y1="124.98" x2="94.58" y2="121.6" gradientUnits="userSpaceOnUse">
<stop stop-color="#4070F4"/>
<stop offset="1" stop-color="#2BD67B"/>
</linearGradient>
<linearGradient id="paint64_linear_47_557" x1="106.4" y1="124.98" x2="109.78" y2="121.6" gradientUnits="userSpaceOnUse">
<stop stop-color="#4070F4"/>
<stop offset="1" stop-color="#2BD67B"/>
</linearGradient>
<linearGradient id="paint65_linear_47_557" x1="121.6" y1="124.98" x2="124.98" y2="121.6" gradientUnits="userSpaceOnUse">
<stop stop-color="#4070F4"/>
<stop offset="1" stop-color="#2BD67B"/>
</linearGradient>
<linearGradient id="paint66_linear_47_557" x1="136.8" y1="124.98" x2="140.18" y2="121.6" gradientUnits="userSpaceOnUse">
<stop stop-color="#4070F4"/>
<stop offset="1" stop-color="#2BD67B"/>
</linearGradient>
<linearGradient id="paint67_linear_47_557" x1="152" y1="124.98" x2="155.38" y2="121.6" gradientUnits="userSpaceOnUse">
<stop stop-color="#4070F4"/>
<stop offset="1" stop-color="#2BD67B"/>
</linearGradient>
<linearGradient id="paint68_linear_47_557" x1="0" y1="138.49" x2="3.38" y2="135.11" gradientUnits="userSpaceOnUse">
<stop stop-color="#4070F4"/>
<stop offset="1" stop-color="#2BD67B"/>
</linearGradient>
<linearGradient id="paint69_linear_47_557" x1="15.2" y1="138.49" x2="18.58" y2="135.11" gradientUnits="userSpaceOnUse">
<stop stop-color="#4070F4"/>
<stop offset="1" stop-color="#2BD67B"/>
</linearGradient>
<linearGradient id="paint70_linear_47_557" x1="30.4" y1="138.49" x2="33.78" y2="135.11" gradientUnits="userSpaceOnUse">
<stop stop-color="#4070F4"/>
<stop offset="1" stop-color="#2BD67B"/>
</linearGradient>
<linearGradient id="paint71_linear_47_557" x1="45.6" y1="138.49" x2="48.98" y2="135.11" gradientUnits="userSpaceOnUse">
<stop stop-color="#4070F4"/>
<stop offset="1" stop-color="#2BD67B"/>
</linearGradient>
<linearGradient id="paint72_linear_47_557" x1="60.8" y1="138.49" x2="64.1801" y2="135.11" gradientUnits="userSpaceOnUse">
<stop stop-color="#4070F4"/>
<stop offset="1" stop-color="#2BD67B"/>
</linearGradient>
<linearGradient id="paint73_linear_47_557" x1="76" y1="138.49" x2="79.38" y2="135.11" gradientUnits="userSpaceOnUse">
<stop stop-color="#4070F4"/>
<stop offset="1" stop-color="#2BD67B"/>
</linearGradient>
<linearGradient id="paint74_linear_47_557" x1="91.2" y1="138.49" x2="94.58" y2="135.11" gradientUnits="userSpaceOnUse">
<stop stop-color="#4070F4"/>
<stop offset="1" stop-color="#2BD67B"/>
</linearGradient>
<linearGradient id="paint75_linear_47_557" x1="106.4" y1="138.49" x2="109.78" y2="135.11" gradientUnits="userSpaceOnUse">
<stop stop-color="#4070F4"/>
<stop offset="1" stop-color="#2BD67B"/>
</linearGradient>
<linearGradient id="paint76_linear_47_557" x1="121.6" y1="138.49" x2="124.98" y2="135.11" gradientUnits="userSpaceOnUse">
<stop stop-color="#4070F4"/>
<stop offset="1" stop-color="#2BD67B"/>
</linearGradient>
<linearGradient id="paint77_linear_47_557" x1="136.8" y1="138.49" x2="140.18" y2="135.11" gradientUnits="userSpaceOnUse">
<stop stop-color="#4070F4"/>
<stop offset="1" stop-color="#2BD67B"/>
</linearGradient>
<linearGradient id="paint78_linear_47_557" x1="152" y1="138.49" x2="155.38" y2="135.11" gradientUnits="userSpaceOnUse">
<stop stop-color="#4070F4"/>
<stop offset="1" stop-color="#2BD67B"/>
</linearGradient>
<linearGradient id="paint79_linear_47_557" x1="0" y1="152" x2="3.38" y2="148.62" gradientUnits="userSpaceOnUse">
<stop stop-color="#4070F4"/>
<stop offset="1" stop-color="#2BD67B"/>
</linearGradient>
<linearGradient id="paint80_linear_47_557" x1="15.2" y1="152" x2="18.58" y2="148.62" gradientUnits="userSpaceOnUse">
<stop stop-color="#4070F4"/>
<stop offset="1" stop-color="#2BD67B"/>
</linearGradient>
<linearGradient id="paint81_linear_47_557" x1="30.4" y1="152" x2="33.78" y2="148.62" gradientUnits="userSpaceOnUse">
<stop stop-color="#4070F4"/>
<stop offset="1" stop-color="#2BD67B"/>
</linearGradient>
<linearGradient id="paint82_linear_47_557" x1="45.6" y1="152" x2="48.98" y2="148.62" gradientUnits="userSpaceOnUse">
<stop stop-color="#4070F4"/>
<stop offset="1" stop-color="#2BD67B"/>
</linearGradient>
<linearGradient id="paint83_linear_47_557" x1="60.8" y1="152" x2="64.1801" y2="148.62" gradientUnits="userSpaceOnUse">
<stop stop-color="#4070F4"/>
<stop offset="1" stop-color="#2BD67B"/>
</linearGradient>
<linearGradient id="paint84_linear_47_557" x1="76" y1="152" x2="79.38" y2="148.62" gradientUnits="userSpaceOnUse">
<stop stop-color="#4070F4"/>
<stop offset="1" stop-color="#2BD67B"/>
</linearGradient>
<linearGradient id="paint85_linear_47_557" x1="91.2" y1="152" x2="94.58" y2="148.62" gradientUnits="userSpaceOnUse">
<stop stop-color="#4070F4"/>
<stop offset="1" stop-color="#2BD67B"/>
</linearGradient>
<linearGradient id="paint86_linear_47_557" x1="106.4" y1="152" x2="109.78" y2="148.62" gradientUnits="userSpaceOnUse">
<stop stop-color="#4070F4"/>
<stop offset="1" stop-color="#2BD67B"/>
</linearGradient>
<linearGradient id="paint87_linear_47_557" x1="121.6" y1="152" x2="124.98" y2="148.62" gradientUnits="userSpaceOnUse">
<stop stop-color="#4070F4"/>
<stop offset="1" stop-color="#2BD67B"/>
</linearGradient>
<linearGradient id="paint88_linear_47_557" x1="136.8" y1="152" x2="140.18" y2="148.62" gradientUnits="userSpaceOnUse">
<stop stop-color="#4070F4"/>
<stop offset="1" stop-color="#2BD67B"/>
</linearGradient>
<linearGradient id="paint89_linear_47_557" x1="152" y1="152" x2="155.38" y2="148.62" gradientUnits="userSpaceOnUse">
<stop stop-color="#4070F4"/>
<stop offset="1" stop-color="#2BD67B"/>
</linearGradient>
</defs>
</svg>
