<svg width="40" height="40" viewBox="0 0 40 40" fill="none" xmlns="http://www.w3.org/2000/svg">
<path d="M7.63833 28.8683C5.92167 27.045 5 25 5 21.685C5 15.8517 9.095 10.6233 15.05 8.03833L16.5383 10.335C10.98 13.3417 9.89333 17.2433 9.46 19.7033C10.355 19.24 11.5267 19.0783 12.675 19.185C15.6817 19.4633 18.0517 21.9317 18.0517 25C18.0517 26.5471 17.4371 28.0308 16.3431 29.1248C15.2492 30.2188 13.7654 30.8333 12.2183 30.8333C10.43 30.8333 8.72 30.0167 7.63833 28.8683ZM24.305 28.8683C22.5883 27.045 21.6667 25 21.6667 21.685C21.6667 15.8517 25.7617 10.6233 31.7167 8.03833L33.205 10.335C27.6467 13.3417 26.56 17.2433 26.1267 19.7033C27.0217 19.24 28.1933 19.0783 29.3417 19.185C32.3483 19.4633 34.7183 21.9317 34.7183 25C34.7183 26.5471 34.1038 28.0308 33.0098 29.1248C31.9158 30.2188 30.4321 30.8333 28.885 30.8333C27.0967 30.8333 25.3867 30.0167 24.305 28.8683Z" fill="url(#paint0_linear_45_217)"/>
<defs>
<linearGradient id="paint0_linear_45_217" x1="5" y1="30.8333" x2="27.0161" y2="2.13046" gradientUnits="userSpaceOnUse">
<stop stop-color="#4070F4"/>
<stop offset="1" stop-color="#2BD67B"/>
</linearGradient>
</defs>
</svg>
