<svg width="24" height="24" viewBox="0 0 24 24" fill="none" xmlns="http://www.w3.org/2000/svg">
<path d="M10.9 2.1001L20.799 3.5151L22.213 13.4151L13.021 22.6071C12.8334 22.7946 12.5791 22.8999 12.314 22.8999C12.0488 22.8999 11.7945 22.7946 11.607 22.6071L1.70697 12.7071C1.5195 12.5196 1.41418 12.2653 1.41418 12.0001C1.41418 11.7349 1.5195 11.4806 1.70697 11.2931L10.9 2.1001ZM11.607 4.2221L3.82797 12.0001L12.314 20.4851L20.092 12.7071L19.032 5.2821L11.607 4.2221V4.2221ZM13.727 10.5861C13.3518 10.2108 13.1411 9.70188 13.1412 9.17124C13.1413 8.9085 13.1931 8.64834 13.2936 8.40561C13.3942 8.16289 13.5417 7.94235 13.7275 7.7566C13.9133 7.57084 14.1339 7.42351 14.3766 7.323C14.6194 7.2225 14.8796 7.17079 15.1423 7.17084C15.673 7.17093 16.1818 7.38182 16.557 7.7571C16.9321 8.13238 17.1428 8.64132 17.1427 9.17195C17.1426 9.70259 16.9318 10.2114 16.5565 10.5866C16.1812 10.9617 15.6723 11.1724 15.1416 11.1724C14.611 11.1723 14.1021 10.9614 13.727 10.5861V10.5861Z" fill="url(#paint0_linear_270_21)"/>
<defs>
<linearGradient id="paint0_linear_270_21" x1="1.41418" y1="22.8999" x2="22.214" y2="2.1011" gradientUnits="userSpaceOnUse">
<stop stop-color="#4070F4"/>
<stop offset="1" stop-color="#2BD67B"/>
</linearGradient>
</defs>
</svg>
