<svg width="20" height="16" viewBox="0 0 20 16" fill="none" xmlns="http://www.w3.org/2000/svg">
<path d="M20 15.1173C19.9983 15.3508 19.9028 15.5742 19.7341 15.7394C19.5653 15.9045 19.3369 15.9981 19.0982 16H2.72C2.48074 15.9998 2.25136 15.9067 2.08226 15.7412C1.91317 15.5757 1.81818 15.3513 1.81818 15.1173V14.2222H18.1818V3.82222L10.9091 10.2222L1.81818 2.22222V0.888889C1.81818 0.653141 1.91396 0.427048 2.08445 0.260349C2.25494 0.0936505 2.48617 0 2.72727 0H19.0909C19.332 0 19.5632 0.0936505 19.7337 0.260349C19.9042 0.427048 20 0.653141 20 0.888889V15.1173ZM4.03091 1.77778L10.9091 7.83111L17.7873 1.77778H4.03091ZM0 10.6667H7.27273V12.4444H0V10.6667ZM0 6.22222H4.54545V8H0V6.22222Z" fill="url(#paint0_linear_18_173)"/>
<defs>
<linearGradient id="paint0_linear_18_173" x1="0" y1="16" x2="15.6098" y2="-3.5122" gradientUnits="userSpaceOnUse">
<stop stop-color="#4070F4"/>
<stop offset="1" stop-color="#2BD67B"/>
</linearGradient>
</defs>
</svg>
