<svg width="28" height="28" viewBox="0 0 28 28" fill="none" xmlns="http://www.w3.org/2000/svg">
<path d="M3.76582 0.329662C4.84616 -0.0557762 6.01802 -0.104447 7.12661 0.190079C8.2352 0.484605 9.22833 1.10847 9.97483 1.97926C10.7213 2.85004 11.186 3.92677 11.3076 5.06721C11.4291 6.20764 11.2018 7.35812 10.6556 8.36664L28 25.7102L25.7099 28L8.36388 10.6564C7.35499 11.2004 6.20494 11.426 5.06528 11.3034C3.92563 11.1808 2.84986 10.7159 1.97974 9.96985C1.10962 9.22381 0.485981 8.23168 0.191016 7.12421C-0.103949 6.01674 -0.0564003 4.8459 0.327395 3.76599L3.95046 7.38854C4.17456 7.62054 4.44263 7.80559 4.73903 7.9329C5.03543 8.0602 5.35422 8.12721 5.67679 8.13001C5.99937 8.13281 6.31927 8.07136 6.61784 7.94922C6.9164 7.82708 7.18765 7.64672 7.41575 7.41865C7.64386 7.19057 7.82425 6.91936 7.9464 6.62084C8.06856 6.32232 8.13002 6.00246 8.12722 5.67993C8.12442 5.3574 8.0574 5.03865 7.93008 4.7423C7.80275 4.44594 7.61768 4.17791 7.38564 3.95383L3.7642 0.328043L3.76582 0.329662ZM20.5563 3.38057L25.7099 0.51751L28 2.80731L25.1365 7.96018L22.2731 8.53344L18.8395 11.9681L16.5478 9.67834L19.9829 6.24364L20.5563 3.38057ZM9.67577 16.5494L11.9659 18.8392L3.37712 27.4267C3.0851 27.7195 2.69212 27.8896 2.27875 27.9019C1.86537 27.9143 1.46292 27.7681 1.15391 27.4933C0.844888 27.2185 0.652715 26.8359 0.616784 26.424C0.580853 26.012 0.703887 25.602 0.960661 25.2778L1.08699 25.1369L9.67577 16.5494Z" fill="url(#paint0_linear_64_9)"/>
<defs>
<linearGradient id="paint0_linear_64_9" x1="0" y1="28" x2="28" y2="0" gradientUnits="userSpaceOnUse">
<stop stop-color="#4070F4"/>
<stop offset="1" stop-color="#2BD67B"/>
</linearGradient>
</defs>
</svg>
