<svg width="40" height="40" viewBox="0 0 40 40" fill="none" xmlns="http://www.w3.org/2000/svg">
<path d="M28.3336 3.33334V6.66668H33.3452C34.2586 6.66668 35.0002 7.40834 35.0002 8.32168V35.0117C35.0002 35.925 34.2586 36.6667 33.3452 36.6667H6.65524C5.74191 36.6667 5.00024 35.925 5.00024 35.0117V8.32168C5.00024 7.40834 5.74191 6.66668 6.65524 6.66668H11.6669V3.33334H28.3336ZM11.6669 10H8.33358V33.3333H31.6669V10H28.3336V13.3333H11.6669V10ZM15.0002 26.6667V30H11.6669V26.6667H15.0002ZM15.0002 21.6667V25H11.6669V21.6667H15.0002ZM15.0002 16.6667V20H11.6669V16.6667H15.0002ZM25.0002 6.66668H15.0002V10H25.0002V6.66668Z" fill="url(#paint0_linear_47_233)"/>
<defs>
<linearGradient id="paint0_linear_47_233" x1="5.00024" y1="36.6667" x2="38.1494" y2="6.83242" gradientUnits="userSpaceOnUse">
<stop stop-color="#4070F4"/>
<stop offset="1" stop-color="#2BD67B"/>
</linearGradient>
</defs>
</svg>
