<svg width="40" height="40" viewBox="0 0 40 40" fill="none" xmlns="http://www.w3.org/2000/svg">
<path d="M8.33321 21.6667C8.33321 13.1867 13.1715 5.94003 19.9999 3.03003C26.8282 5.94003 31.6665 13.1867 31.6665 21.6667C31.6665 23.0384 31.5399 24.3767 31.2999 25.6717L34.5332 28.725C34.6669 28.8515 34.7549 29.0188 34.7835 29.2006C34.8122 29.3824 34.7798 29.5685 34.6915 29.73L30.5332 37.355C30.4712 37.4689 30.3835 37.5667 30.277 37.6407C30.1706 37.7147 30.0483 37.7628 29.92 37.7812C29.7917 37.7997 29.6608 37.7879 29.5378 37.7469C29.4148 37.7059 29.3031 37.6368 29.2115 37.545L25.4882 33.8217C25.1757 33.5091 24.7519 33.3335 24.3099 33.3334H15.6899C15.2479 33.3335 14.824 33.5091 14.5115 33.8217L10.7882 37.545C10.6966 37.6368 10.5849 37.7059 10.4619 37.7469C10.3389 37.7879 10.2081 37.7997 10.0798 37.7812C9.95144 37.7628 9.82919 37.7147 9.72274 37.6407C9.61628 37.5667 9.52856 37.4689 9.46654 37.355L5.30821 29.73C5.21992 29.5685 5.18757 29.3824 5.21621 29.2006C5.24485 29.0188 5.33288 28.8515 5.46654 28.725L8.69988 25.6717C8.46154 24.3767 8.33321 23.0384 8.33321 21.6667ZM10.7932 32.8267L12.1549 31.465C13.0923 30.5273 14.3639 30.0003 15.6899 30H24.3099C25.6359 30.0003 26.9074 30.5273 27.8449 31.465L29.2065 32.8267L30.8432 29.8267L29.0099 28.0934C28.6047 27.7107 28.3019 27.2325 28.1293 26.7026C27.9566 26.1727 27.9196 25.608 28.0215 25.06C28.2282 23.9534 28.3332 22.8184 28.3332 21.6667C28.3332 15.2167 25.0082 9.50003 19.9999 6.73336C14.9915 9.50003 11.6665 15.2167 11.6665 21.6667C11.6665 22.8184 11.7715 23.9534 11.9782 25.0617C12.0802 25.6096 12.0432 26.1744 11.8705 26.7043C11.6978 27.2342 11.3951 27.7124 10.9899 28.095L9.15654 29.8267L10.7932 32.8267ZM19.9999 21.6667C19.1158 21.6667 18.268 21.3155 17.6429 20.6904C17.0177 20.0653 16.6665 19.2174 16.6665 18.3334C16.6665 17.4493 17.0177 16.6015 17.6429 15.9763C18.268 15.3512 19.1158 15 19.9999 15C20.8839 15 21.7318 15.3512 22.3569 15.9763C22.982 16.6015 23.3332 17.4493 23.3332 18.3334C23.3332 19.2174 22.982 20.0653 22.3569 20.6904C21.7318 21.3155 20.8839 21.6667 19.9999 21.6667Z" fill="url(#paint0_linear_45_210)"/>
<defs>
<linearGradient id="paint0_linear_45_210" x1="5.20605" y1="37.7897" x2="39.5195" y2="8.58192" gradientUnits="userSpaceOnUse">
<stop stop-color="#4070F4"/>
<stop offset="1" stop-color="#2BD67B"/>
</linearGradient>
</defs>
</svg>
