<svg width="21" height="20" viewBox="0 0 21 20" fill="none" xmlns="http://www.w3.org/2000/svg">
<path d="M1.8598 1.9498C2.99281 0.761758 4.51245 0.0668727 6.11381 0.00458074C7.71517 -0.0577112 9.27976 0.517199 10.4936 1.61395C11.7064 0.519026 13.2689 -0.0552373 14.8684 0.00612825C16.4678 0.0674938 17.9861 0.75996 19.1193 1.9449C20.2525 3.12983 20.917 4.71978 20.9797 6.39644C21.0425 8.0731 20.4988 9.71273 19.4576 10.9871L11.8737 18.9635C11.5252 19.329 11.0579 19.5428 10.5654 19.5622C10.0729 19.5815 9.59166 19.405 9.21809 19.068L9.11065 18.9646L1.52773 10.9871C0.487065 9.71383 -0.056856 8.07571 0.00470932 6.40022C0.0662746 4.72473 0.728789 3.13533 1.8598 1.9498ZM3.24082 3.39765C2.44213 4.23522 1.98174 5.36304 1.95519 6.54704C1.92863 7.73105 2.33797 8.88031 3.09822 9.7563L3.24082 9.91398L10.4927 17.5167L15.672 12.0858L12.2194 8.46614L11.1841 9.55151C10.9121 9.83684 10.5891 10.0632 10.2336 10.2177C9.87815 10.3722 9.49713 10.4517 9.11232 10.4518C8.33516 10.452 7.58976 10.1285 7.0401 9.55253C6.49043 8.97654 6.18153 8.19523 6.18135 7.38046C6.18116 6.5657 6.48971 5.78423 7.03912 5.20797L9.0921 3.05463C8.27507 2.37102 7.25243 2.01502 6.20766 2.05048C5.16288 2.08595 4.16436 2.51057 3.39123 3.24816L3.24082 3.39765ZM11.5289 6.29334C11.7121 6.10138 11.9604 5.99355 12.2194 5.99355C12.4784 5.99355 12.7268 6.10138 12.9099 6.29334L17.053 10.6369L17.7445 9.91398C18.5565 9.06323 19.0189 7.91313 19.0326 6.70964C19.0463 5.50615 18.6102 4.34481 17.8178 3.47399C17.0253 2.60317 15.9393 2.092 14.7919 2.04979C13.6446 2.00759 12.5271 2.43771 11.6783 3.24816L11.5289 3.39765L8.42112 6.65582C8.25183 6.83318 8.15055 7.06953 8.13651 7.32001C8.12247 7.57048 8.19664 7.81765 8.34494 8.01458L8.42112 8.10366C8.59029 8.28114 8.81574 8.38732 9.05465 8.40204C9.29357 8.41676 9.52933 8.33901 9.71717 8.18353L9.80214 8.10366L11.5289 6.29334Z" fill="url(#paint0_linear_103_21)"/>
<defs>
<linearGradient id="paint0_linear_103_21" x1="0" y1="19.5636" x2="19.5156" y2="-1.36954" gradientUnits="userSpaceOnUse">
<stop stop-color="#4070F4"/>
<stop offset="1" stop-color="#2BD67B"/>
</linearGradient>
</defs>
</svg>
