<svg width="48" height="42" viewBox="0 0 48 42" fill="none" xmlns="http://www.w3.org/2000/svg">
<path d="M4.18589 4.18593C6.73598 1.63538 10.1563 0.143565 13.7605 0.00983413C17.3647 -0.123897 20.8862 1.11035 23.6183 3.46491C26.3479 1.11427 29.8647 -0.118586 33.4646 0.0131564C37.0645 0.144899 40.4818 1.63152 43.0323 4.17539C45.5829 6.71926 47.0784 10.1326 47.2196 13.7322C47.3608 17.3317 46.1371 20.8517 43.7937 23.5875L26.7244 40.7118C25.9401 41.4963 24.8884 41.9553 23.7799 41.9969C22.6714 42.0385 21.5882 41.6595 20.7474 40.936L20.5056 40.714L3.43849 23.5875C1.09625 20.8541 -0.127967 17.3373 0.0105994 13.7403C0.149166 10.1433 1.6403 6.73107 4.18589 4.18593ZM7.29419 7.29423C5.49657 9.09235 4.46035 11.5136 4.40059 14.0555C4.34083 16.5974 5.26212 19.0646 6.97325 20.9453L7.29419 21.2838L23.6161 37.6057L35.2733 25.9462L27.5025 18.1755L25.1724 20.5056C24.5601 21.1182 23.8332 21.6042 23.0331 21.9358C22.233 22.2674 21.3754 22.4382 20.5093 22.4384C18.7602 22.4388 17.0825 21.7444 15.8453 20.5078C14.6082 19.2712 13.9129 17.5939 13.9125 15.8447C13.9121 14.0955 14.6066 12.4178 15.8431 11.1807L20.4638 6.55782C18.6249 5.09022 16.3232 4.32593 13.9717 4.40207C11.6202 4.47821 9.37282 5.3898 7.63272 6.97329L7.29419 7.29423ZM25.9484 13.5108C26.3606 13.0987 26.9197 12.8672 27.5025 12.8672C28.0854 12.8672 28.6445 13.0987 29.0567 13.5108L38.3816 22.8357L39.938 21.2838C41.7657 19.4573 42.8062 16.9883 42.8371 14.4045C42.8679 11.8208 41.8865 9.32763 40.1029 7.45812C38.3192 5.5886 35.8749 4.49119 33.2926 4.40059C30.7103 4.30999 28.195 5.23338 26.2847 6.97329L25.9484 7.29423L18.9536 14.289C18.5726 14.6698 18.3447 15.1772 18.313 15.7149C18.2814 16.2527 18.4484 16.7833 18.7822 17.2061L18.9536 17.3973C19.3344 17.7783 19.8418 18.0063 20.3795 18.0379C20.9173 18.0695 21.4479 17.9026 21.8707 17.5688L22.0619 17.3973L25.9484 13.5108Z" fill="white"/>
</svg>
