<svg width="72" height="72" viewBox="0 0 72 72" fill="none" xmlns="http://www.w3.org/2000/svg">
<path fill-rule="evenodd" clip-rule="evenodd" d="M36 72C55.8823 72 72 55.8823 72 36C72 16.1177 55.8823 0 36 0C16.1177 0 0 16.1177 0 36C0 55.8823 16.1177 72 36 72ZM23.8048 43.3207L27.4622 39.6599V39.6582L29.8998 42.1028L32.3409 39.6617L29.8998 37.2223L32.3409 34.7829L34.7803 37.2223L37.2197 34.7829L34.7803 32.3435L37.2197 29.9024L39.6591 32.3435L42.1002 29.9007L39.6591 27.4613L43.3216 23.804L48.2003 28.681L28.6836 48.1995L23.8048 43.3207ZM51.8594 27.4613L44.5413 20.1432C44.2178 19.8198 43.779 19.6381 43.3216 19.6381C42.8641 19.6381 42.4254 19.8198 42.1019 20.1432L20.1441 42.101C19.8206 42.4245 19.639 42.8633 19.639 43.3207C19.639 43.7782 19.8206 44.2169 20.1441 44.5404L27.4622 51.8585C27.7857 52.1819 28.2244 52.3636 28.6819 52.3636C29.1393 52.3636 29.578 52.1819 29.9016 51.8585L51.8594 29.9007C52.1828 29.5772 52.3645 29.1385 52.3645 28.681C52.3645 28.2236 52.1828 27.7848 51.8594 27.4613ZM42.1002 44.5387L39.6591 46.9781H39.6608L44.21 51.5273H51.5282V44.2074L46.9789 39.6599L44.5395 42.0993L48.4074 45.9688V48.4082H45.968L42.1002 44.5387ZM20.1423 27.4613L25.0228 32.3401L27.4622 29.899L23.8031 26.2416L26.2425 23.8005L29.9016 27.4613L32.3444 25.0202L27.4622 20.1415C27.1387 19.8181 26.6999 19.6364 26.2425 19.6364C25.785 19.6364 25.3463 19.8181 25.0228 20.1415L20.1423 25.0202C19.9819 25.1804 19.8547 25.3707 19.7679 25.5801C19.681 25.7896 19.6364 26.0141 19.6364 26.2408C19.6364 26.4675 19.681 26.692 19.7679 26.9014C19.8547 27.1108 19.9819 27.3011 20.1423 27.4613Z" fill="white"/>
</svg>
