<svg width="72" height="72" viewBox="0 0 72 72" fill="none" xmlns="http://www.w3.org/2000/svg">
<path fill-rule="evenodd" clip-rule="evenodd" d="M36 72C55.8823 72 72 55.8823 72 36C72 16.1177 55.8823 0 36 0C16.1177 0 0 16.1177 0 36C0 55.8823 16.1177 72 36 72ZM41.628 32.443L41.8705 32.6897C42.9975 33.876 43.8032 35.3391 44.209 36.9364C44.6149 38.5337 44.607 40.2106 44.1863 41.8039C43.6505 43.8348 42.4718 45.6294 40.8325 46.9101C39.1932 48.1908 37.1846 48.8863 35.1177 48.8889C31.6405 48.8889 27.0669 47.8013 23.2071 46.2585C25.2668 43.8002 26.0182 41.3765 26.2812 38.1277C26.3461 37.3441 26.3854 37.0314 26.4589 36.7534C27.8132 31.6091 32.5815 28.7476 37.5462 30.0993C39.0803 30.5153 40.4851 31.3219 41.628 32.443ZM46.6064 20.0017L38.1713 26.6749H38.1696C31.4287 24.9845 24.9662 28.9926 23.1593 35.8552C22.9854 36.5151 22.9311 37.1855 22.8742 37.8876C22.678 40.3093 22.4514 43.1074 17.1818 47.1481C21.4514 49.7541 29.1368 52.3636 35.1194 52.3636C37.0614 52.362 38.9776 51.9115 40.7234 51.0461C42.4692 50.1807 43.9989 48.9231 45.1968 47.3682C46.3948 45.8134 47.2299 44.0019 47.6388 42.0706C48.0478 40.1393 48.02 38.1388 47.5576 36.22L54.1158 27.6409C54.3714 27.3067 54.4982 26.8891 54.4724 26.4665C54.4466 26.0438 54.27 25.6453 53.9757 25.3459L48.8607 20.1442C48.5664 19.8453 48.175 19.6659 47.76 19.6397C47.345 19.6135 46.9348 19.7422 46.6064 20.0017ZM44.3298 30.2765C44.2222 30.1618 44.1112 30.0489 44.0002 29.9395L42.0789 27.9849L47.5132 23.6849L50.4951 26.7184L46.2682 32.2467L44.3298 30.2765Z" fill="white"/>
</svg>
