<svg width="84" height="84" viewBox="0 0 84 84" fill="none" xmlns="http://www.w3.org/2000/svg">
<path fill-rule="evenodd" clip-rule="evenodd" d="M41.529 83.9728C64.4649 83.9728 83.058 65.3797 83.058 42.4438C83.058 19.508 64.4649 0.914795 41.529 0.914795C18.5932 0.914795 0 19.508 0 42.4438C0 65.3797 18.5932 83.9728 41.529 83.9728ZM53.2262 52.3368L63.2374 42.3256L53.2262 32.3144L50.7238 34.8167L58.2327 42.3256L50.7238 49.8344L53.2262 52.3368ZM33.2781 49.8344L25.7693 42.3256L33.2764 34.8167L30.7758 32.3144L20.7646 42.3256L30.7758 52.3368L33.2781 49.8344ZM34.3205 58.2529H38.0864L49.6815 26.3983H45.9156L34.3205 58.2529Z" fill="white"/>
</svg>
