<svg width="29" height="28" viewBox="0 0 29 28" fill="none" xmlns="http://www.w3.org/2000/svg">
<path d="M6.39692 22.9744L0 28V1.4359C0 1.05507 0.151282 0.689848 0.420565 0.420565C0.689848 0.151282 1.05507 0 1.4359 0H27.2821C27.6629 0 28.0281 0.151282 28.2974 0.420565C28.5667 0.689848 28.718 1.05507 28.718 1.4359V21.5385C28.718 21.9193 28.5667 22.2845 28.2974 22.5538C28.0281 22.8231 27.6629 22.9744 27.2821 22.9744H6.39692ZM5.40328 20.1026H25.8462V2.87179H2.8718V22.0913L5.40328 20.1026ZM12.9231 10.0513H15.7949V12.9231H12.9231V10.0513ZM7.17949 10.0513H10.0513V12.9231H7.17949V10.0513ZM18.6667 10.0513H21.5385V12.9231H18.6667V10.0513Z" fill="url(#paint0_linear_96_815)"/>
<defs>
<linearGradient id="paint0_linear_96_815" x1="0" y1="28" x2="27.991" y2="-0.708751" gradientUnits="userSpaceOnUse">
<stop stop-color="#4070F4"/>
<stop offset="1" stop-color="#2BD67B"/>
</linearGradient>
</defs>
</svg>
