<svg width="40" height="36" viewBox="0 0 40 36" fill="none" xmlns="http://www.w3.org/2000/svg">
<path d="M1.95122 35.122C1.43372 35.122 0.937424 34.9164 0.571499 34.5505C0.205574 34.1845 0 33.6882 0 33.1707V1.95122C0 1.43372 0.205574 0.937424 0.571499 0.571499C0.937424 0.205574 1.43372 0 1.95122 0H16.4176L20.32 3.90244H35.122C35.6394 3.90244 36.1357 4.10801 36.5017 4.47394C36.8676 4.83986 37.0732 5.33616 37.0732 5.85366V11.7073H33.1707V7.80488H18.7044L14.802 3.90244H3.90244V27.3132L6.82927 15.6098H40L35.4927 33.6449C35.387 34.0668 35.1433 34.4414 34.8004 34.709C34.4575 34.9766 34.035 35.1219 33.6 35.122H1.95122ZM35.001 19.5122H9.87707L6.95024 31.2195H32.0741L35.001 19.5122Z" fill="url(#paint0_linear_93_23)"/>
<defs>
<linearGradient id="paint0_linear_93_23" x1="0" y1="35.122" x2="34.827" y2="-4.54214" gradientUnits="userSpaceOnUse">
<stop stop-color="#4070F4"/>
<stop offset="1" stop-color="#2BD67B"/>
</linearGradient>
</defs>
</svg>
