<svg width="23" height="20" viewBox="0 0 23 20" fill="none" xmlns="http://www.w3.org/2000/svg">
<path d="M17.275 15V20H15.275V15C15.275 10.549 17.919 6.715 21.722 4.984L22.55 6.804C20.9767 7.51958 19.6427 8.67295 18.7073 10.1263C17.7719 11.5797 17.2747 13.2716 17.275 15ZM7.275 15V20H5.275V15C5.27515 13.2718 4.77783 11.5801 3.84244 10.1269C2.90705 8.67372 1.57313 7.52051 0 6.805L0.828 4.984C2.75069 5.85849 4.381 7.26796 5.52422 9.04405C6.66744 10.8201 7.27523 12.8878 7.275 15ZM11.275 10C9.94892 10 8.67715 9.47322 7.73947 8.53553C6.80178 7.59785 6.275 6.32608 6.275 5C6.275 3.67392 6.80178 2.40215 7.73947 1.46447C8.67715 0.526784 9.94892 0 11.275 0C12.6011 0 13.8729 0.526784 14.8105 1.46447C15.7482 2.40215 16.275 3.67392 16.275 5C16.275 6.32608 15.7482 7.59785 14.8105 8.53553C13.8729 9.47322 12.6011 10 11.275 10ZM11.275 8C11.669 8 12.0591 7.9224 12.423 7.77164C12.787 7.62087 13.1177 7.3999 13.3963 7.12132C13.6749 6.84274 13.8959 6.51203 14.0466 6.14805C14.1974 5.78407 14.275 5.39397 14.275 5C14.275 4.60603 14.1974 4.21593 14.0466 3.85195C13.8959 3.48797 13.6749 3.15726 13.3963 2.87868C13.1177 2.6001 12.787 2.37913 12.423 2.22836C12.0591 2.0776 11.669 2 11.275 2C10.4794 2 9.71629 2.31607 9.15368 2.87868C8.59107 3.44129 8.275 4.20435 8.275 5C8.275 5.79565 8.59107 6.55871 9.15368 7.12132C9.71629 7.68393 10.4794 8 11.275 8Z" fill="url(#paint0_linear_18_149)"/>
<defs>
<linearGradient id="paint0_linear_18_149" x1="0" y1="20" x2="19.8569" y2="-2.3886" gradientUnits="userSpaceOnUse">
<stop stop-color="#4070F4"/>
<stop offset="1" stop-color="#2BD67B"/>
</linearGradient>
</defs>
</svg>
