<svg width="40" height="46" viewBox="0 0 40 46" fill="none" xmlns="http://www.w3.org/2000/svg">
<path d="M39.8384 11.5998L39.9496 11.5257C39.7272 11.1181 39.3937 10.7475 39.0602 10.5622L21.1607 0.259779C20.8642 0.0744842 20.4566 0.000366211 20.0118 0.000366211C19.5671 0.000366211 19.1595 0.111543 18.863 0.259779L1.07471 10.5992C0.444708 10.9698 0 11.8963 0 12.6004V33.2423C0 33.6499 0.0741178 34.0946 0.333531 34.5023L0.259413 34.5393C0.444708 34.8358 0.704121 35.0952 0.963534 35.2435L18.826 45.5829C19.1224 45.7682 19.5301 45.8423 19.9748 45.8423C20.4195 45.8423 20.8271 45.7311 21.1236 45.5829L38.9119 35.2435C39.5419 34.8729 39.9866 33.9464 39.9866 33.2423V12.5634C40.0237 12.2669 39.9866 11.9334 39.8384 11.5998ZM20.0118 31.9823C23.3842 31.9823 26.3489 30.1293 27.9054 27.3869L32.686 30.2034C30.166 34.5764 25.4225 37.5411 20.0118 37.5411C11.933 37.5411 5.37355 30.9817 5.37355 22.9028C5.37355 14.824 11.933 8.26452 20.0118 8.26452C25.4595 8.26452 30.2031 11.2663 32.7231 15.6763L27.9054 18.4557C26.3489 15.6763 23.3842 13.8234 20.0118 13.8234C15.0089 13.8234 10.9324 17.8999 10.9324 22.9028C10.9324 27.9058 15.0089 31.9823 20.0118 31.9823Z" fill="white"/>
</svg>
