<svg width="40" height="46" viewBox="0 0 40 46" fill="none" xmlns="http://www.w3.org/2000/svg">
<path d="M0 0.000366211L3.64048 40.8704L19.9757 45.4251L36.3566 40.8537L40 0.000366211H0ZM32.437 9.36387L31.2252 22.979L31.2288 23.0525L31.2238 23.2216V23.2201L30.3628 32.7401L30.2679 33.5858L20 36.4258V36.4261L19.992 36.433L9.74185 33.5771L9.04779 25.7064H14.0742L14.4308 29.7085L20.0014 31.2183L20 31.2212V31.2205L25.5912 29.6894L26.1821 23.172H14.4938L14.3936 22.0702L14.1651 19.4891L14.0453 18.1032H26.6264L27.084 13.0344H7.9218L7.82151 11.9334L7.59341 9.35156L7.47321 7.96561H32.5568L32.437 9.36387Z" fill="white"/>
</svg>
