<svg width="27" height="40" viewBox="0 0 27 40" fill="none" xmlns="http://www.w3.org/2000/svg">
<path d="M6.66667 27.667H12.3333V33.3337C12.3333 36.4713 9.8043 39.0004 6.66667 39.0004C3.52903 39.0004 1 36.4713 1 33.3337C1 30.1961 3.52903 27.667 6.66667 27.667ZM6.66667 1.00037H12.3333V12.3337H6.66667C3.52903 12.3337 1 9.80467 1 6.66703C1 3.5294 3.52903 1.00037 6.66667 1.00037ZM6.66667 14.3337H12.3333V20.0004V25.667H6.66667C3.52903 25.667 1 23.138 1 20.0004C1 16.8627 3.52903 14.3337 6.66667 14.3337ZM20 14.3337C23.1376 14.3337 25.6667 16.8627 25.6667 20.0004C25.6667 23.138 23.1376 25.667 20 25.667C16.8624 25.667 14.3333 23.138 14.3333 20.0004C14.3333 16.8627 16.8624 14.3337 20 14.3337ZM14.3333 12.3337V1.00037H20C23.1376 1.00037 25.6667 3.5294 25.6667 6.66703C25.6667 9.80467 23.1376 12.3337 20 12.3337H14.3333Z" stroke="white" stroke-width="2"/>
</svg>
