<svg width="40" height="40" viewBox="0 0 40 40" fill="none" xmlns="http://www.w3.org/2000/svg">
<path d="M39.2464 18.2146L21.7854 0.754506C20.7805 -0.251014 19.1496 -0.251014 18.1431 0.754506L14.518 4.38058L19.1173 8.97987C20.1865 8.61903 21.4119 8.86107 22.2637 9.71294C22.6697 10.1193 22.9531 10.6317 23.0816 11.1915C23.2101 11.7513 23.1784 12.336 22.9902 12.8787L27.4228 17.312C28.4952 16.9423 29.7329 17.1812 30.5889 18.039C31.7864 19.2356 31.7864 21.1754 30.5889 22.3725C30.3043 22.6572 29.9664 22.8831 29.5946 23.0372C29.2227 23.1913 28.8241 23.2706 28.4215 23.2706C28.019 23.2706 27.6204 23.1913 27.2485 23.0372C26.8766 22.8831 26.5387 22.6572 26.2541 22.3725C25.8266 21.9447 25.5351 21.4 25.4165 20.8069C25.2978 20.2138 25.3572 19.5989 25.5873 19.0395L21.4537 14.9056L21.4531 25.7848C21.753 25.9325 22.0268 26.1281 22.2637 26.3639C23.4609 27.5604 23.4609 29.4996 22.2637 30.6986C21.0666 31.8952 19.1262 31.8952 17.9303 30.6986C16.7334 29.4999 16.6352 27.5607 17.8317 26.3639C18.1276 26.0683 18.4194 25.845 18.7362 25.6954V14.7155C18.4194 14.566 18.1279 14.3442 17.8314 14.0467C16.9251 13.1407 16.7556 11.8101 17.2206 10.6963L12.7116 6.16194L0.751216 18.1338C-0.254619 19.1402 -0.248284 20.7711 0.757552 21.777L18.2214 39.237C19.2266 40.2425 20.8587 40.2425 21.8655 39.237L39.2451 21.8581C40.2509 20.8519 40.2519 19.2201 39.2464 18.2146Z" fill="white"/>
</svg>
