<svg width="42" height="40" viewBox="0 0 42 40" fill="none" xmlns="http://www.w3.org/2000/svg">
<path fill-rule="evenodd" clip-rule="evenodd" d="M20.5063 0.000488281C9.18249 0.000488281 0 9.18094 0 20.5068C0 29.5674 5.87569 37.2537 14.0235 39.9656C15.048 40.1557 15.4242 39.5207 15.4242 38.9791C15.4242 38.4901 15.4052 36.8748 15.3964 35.1613C9.69151 36.4017 8.48771 32.7418 8.48771 32.7418C7.5549 30.3715 6.21085 29.7413 6.21085 29.7413C4.34997 28.4685 6.3511 28.495 6.3511 28.495C8.40995 28.6393 9.49456 30.6082 9.49456 30.6082C11.3235 33.7425 14.2918 32.8365 15.4619 32.3129C15.646 30.9875 16.1774 30.0825 16.7639 29.5705C12.2091 29.0526 7.42076 27.2939 7.42076 19.4365C7.42076 17.1977 8.22217 15.3684 9.53395 13.932C9.32069 13.4158 8.61879 11.3301 9.73226 8.50552C9.73226 8.50552 11.4539 7.95439 15.3726 10.6075C17.0087 10.1528 18.7633 9.92427 20.5063 9.91646C22.2484 9.92427 24.004 10.1521 25.6431 10.6068C29.5571 7.95371 31.2767 8.50484 31.2767 8.50484C32.3929 11.3291 31.691 13.4151 31.4781 13.9313C32.7929 15.3677 33.5885 17.197 33.5885 19.4358C33.5885 27.3119 28.7913 29.0458 24.225 29.5538C24.9609 30.1902 25.6163 31.4385 25.6163 33.3513C25.6163 36.0951 25.5925 38.3034 25.5925 38.9788C25.5925 39.5245 25.962 40.1639 27.0011 39.9625C35.1441 37.248 41.013 29.564 41.013 20.5068C41.0127 9.18161 31.8312 0.000827833 20.5063 0.000827833V0.000488281Z" fill="white"/>
<path d="M7.76684 29.4426C7.72168 29.5445 7.5614 29.575 7.41538 29.5054C7.26596 29.4389 7.18277 29.3 7.23099 29.1978C7.27513 29.0925 7.43575 29.0636 7.58415 29.1339C7.73356 29.2008 7.81846 29.3411 7.7665 29.4429L7.76684 29.4426ZM8.59744 30.3693C8.49999 30.46 8.3088 30.4178 8.17909 30.2742C8.04461 30.1316 8.01948 29.9404 8.11898 29.8484C8.22017 29.7581 8.40558 29.8008 8.54006 29.9435C8.67385 30.0881 8.70034 30.2776 8.59778 30.3696L8.59744 30.3693ZM9.40631 31.55C9.28067 31.6376 9.07489 31.5558 8.94789 31.3734C8.82224 31.1907 8.82224 30.9717 8.95128 30.8844C9.07794 30.7968 9.28067 30.8759 9.40971 31.0566C9.53467 31.2417 9.53467 31.4607 9.40631 31.5497V31.55ZM10.5137 32.6913C10.4016 32.8153 10.1619 32.782 9.98665 32.6132C9.80769 32.4478 9.75778 32.2125 9.87018 32.0889C9.98427 31.9646 10.225 31.9993 10.4013 32.167C10.5802 32.332 10.6342 32.5677 10.5144 32.691L10.5137 32.6913ZM12.0418 33.3538C11.9919 33.5144 11.7616 33.5875 11.529 33.5189C11.2971 33.4486 11.1453 33.2608 11.1928 33.0985C11.2404 32.9365 11.4723 32.8608 11.7063 32.9338C11.9382 33.0037 12.09 33.1905 12.0418 33.3538ZM13.7203 33.4764C13.7261 33.6455 13.5291 33.7854 13.2856 33.7888C13.0401 33.7946 12.8415 33.6574 12.8391 33.491C12.8391 33.3202 13.032 33.182 13.2771 33.1772C13.5206 33.1728 13.7206 33.3087 13.7206 33.4761L13.7203 33.4764ZM15.2817 33.2109C15.3109 33.3756 15.1414 33.545 14.8993 33.5902C14.6616 33.6343 14.4409 33.5318 14.4103 33.3684C14.3811 33.1993 14.5536 33.0299 14.7913 32.9861C15.0338 32.9443 15.2511 33.0438 15.2817 33.2112V33.2109Z" fill="white"/>
</svg>
