<svg width="40" height="55" viewBox="0 0 40 55" fill="none" xmlns="http://www.w3.org/2000/svg">
<path d="M12.8819 41.9434C4.54312 44.2731 17.9555 49.086 28.5737 44.5369C26.8344 43.8608 25.587 43.0809 25.587 43.0809C20.8523 43.9759 18.6559 44.0463 14.3579 43.5553C10.8107 43.1491 12.8819 41.9434 12.8819 41.9434ZM27.3023 37.3986C21.0265 38.606 17.4015 38.5674 12.8102 38.0938C9.25999 37.7266 11.5841 36.006 11.5841 36.006C2.4002 39.0544 16.6968 42.5134 29.5326 38.759C28.1683 38.2784 27.3023 37.3986 27.3023 37.3986ZM32.2204 11.0791C32.2208 11.0791 13.654 15.7147 22.5212 25.9331C25.1386 28.9464 21.8347 31.6554 21.8347 31.6554C21.8347 31.6554 28.4777 28.2268 25.4275 23.9314C22.5777 19.9276 20.393 17.9384 32.2204 11.0791ZM36.5645 46.3357C36.5645 46.3357 38.0978 47.6001 34.8751 48.5772C28.7479 50.4334 9.36774 50.993 3.98479 48.6515C2.0513 47.8095 5.67889 46.642 6.8203 46.3956C8.01038 46.138 8.68993 46.1849 8.68993 46.1849C6.53832 44.6698 -5.21953 49.1612 2.71911 50.4495C24.366 53.9584 42.1786 48.8692 36.5645 46.3357ZM29.1246 33.1562C30.1652 32.4462 31.6025 31.8297 31.6025 31.8297C31.6025 31.8297 27.5079 32.5618 23.4284 32.9046C18.4343 33.3234 13.0774 33.406 10.3884 33.0462C4.02216 32.1951 13.8787 29.8536 13.8787 29.8536C13.8787 29.8536 10.0499 29.5946 5.34346 31.8714C-0.223279 34.5631 19.113 35.7901 29.1246 33.1562ZM31.5617 39.7366C31.5148 39.8626 31.3584 40.0042 31.3584 40.0042C44.9463 36.4323 39.9505 27.413 33.4535 29.6959C32.8834 29.8975 32.5845 30.3663 32.5845 30.3663C32.5845 30.3663 32.9447 30.2212 33.7481 30.0534C37.0324 29.3691 41.738 34.4501 31.5617 39.7366ZM20.0789 29.7554C18.0741 25.224 11.276 21.2597 20.0819 14.3052C31.062 5.63836 25.4279 0.000366211 25.4279 0.000366211C27.7003 8.95442 17.4111 11.6591 13.697 17.2354C11.1678 21.0351 14.9384 25.118 20.0789 29.7554ZM31.9293 52.2396C23.5926 53.809 13.3095 53.626 7.21222 52.6193C7.21222 52.6193 8.46095 53.6534 14.8793 54.0666C24.645 54.691 39.6455 53.719 40 49.0978C40.0004 49.0978 39.3178 50.8496 31.9293 52.2396Z" fill="white"/>
</svg>
