<svg width="42" height="42" viewBox="0 0 42 42" fill="none" xmlns="http://www.w3.org/2000/svg">
<path d="M0.849976 0.525391V41.1504H41.475V0.525391H0.849976ZM22.3387 35.1421C21.739 36.3605 20.5944 37.161 19.2681 37.5474C17.23 38.0154 15.2806 37.7486 13.8305 36.8783C12.86 36.2829 12.1021 35.3664 11.5877 34.3104L14.6816 32.4157C14.7086 32.4271 14.7899 32.574 14.8984 32.7638C15.293 33.4248 15.6332 33.8928 16.3021 34.2214C16.9592 34.4456 18.4019 34.589 18.959 33.4326C19.2992 32.8444 19.191 30.9535 19.191 28.8615C19.1907 25.5741 19.206 22.3004 19.206 19.0504H23.0114C23.0114 22.6254 23.0309 26.0112 23.0114 29.4998C23.0195 31.6383 23.2051 33.5447 22.3387 35.1421ZM38.1252 34.067C36.8024 38.5917 29.4275 38.7386 26.4804 35.7492C25.8577 35.0456 25.4674 34.678 25.0959 33.8658C26.6621 32.9649 26.6621 32.9649 28.1861 32.0832C29.0138 33.3556 29.7792 34.0553 31.1562 34.3416C33.0243 34.5698 34.9038 33.9279 34.4823 31.9438C34.049 30.3233 30.657 29.9291 28.3485 28.1962C26.005 26.6222 25.4557 22.7976 27.3817 20.6123C28.0236 19.8041 29.1181 19.2009 30.2667 18.911L31.4653 18.7559C33.7666 18.7095 35.2051 19.3172 36.261 20.4963C36.5548 20.794 36.7946 21.1151 37.2431 21.8109C36.0172 22.5922 36.0211 22.5848 34.2652 23.7216C33.8901 22.9137 33.2677 22.4067 32.6099 22.1863C31.5888 21.8769 30.3011 22.2133 30.034 23.2923C29.9414 23.6248 29.9606 23.9342 30.1078 24.4834C30.5215 25.4269 31.9099 25.837 33.1553 26.4094C36.7404 27.8634 37.951 29.4224 38.2487 31.2782C38.5353 32.8759 38.1795 33.9123 38.1252 34.067Z" fill="white"/>
</svg>
