<svg width="40" height="39" viewBox="0 0 40 39" fill="none" xmlns="http://www.w3.org/2000/svg">
<path d="M38.9348 37.6544L38.1173 36.8616C37.3426 35.8329 36.346 34.9291 35.3001 34.1788C34.466 33.5801 32.5935 32.7713 32.2454 31.801L32.1814 31.7401C32.7729 31.6732 33.4635 31.4594 34.0095 31.3129C34.9264 31.0672 35.6832 31.1307 36.6301 30.8863C37.057 30.7644 37.536 30.6422 37.8485 30.5204V30.2766C37.536 29.7857 37.0901 29.1357 36.5682 28.6913C35.2029 27.5288 33.7429 26.3672 32.2085 25.3985C31.3576 24.8616 30.3207 24.5126 29.4192 24.0572C29.1157 23.9038 28.5904 23.8241 28.3898 23.5691C27.9157 22.9654 27.6623 22.1997 27.2967 21.4963C26.5314 20.0222 25.7814 18.4126 25.1032 16.8616C24.6407 15.8041 24.3398 14.7616 23.7629 13.8129C20.9942 9.26068 18.0145 6.51349 13.3982 3.81287C12.4154 3.23849 11.2329 3.01193 9.98292 2.71506C9.31292 2.67474 8.64198 2.63381 7.97136 2.59287C7.56167 2.42224 7.13574 1.92131 6.75199 1.67818C5.22198 0.71193 1.29917 -1.38963 0.16636 1.37349C-0.548953 3.11756 1.23511 4.81881 1.87323 5.70287C2.32167 6.32224 2.89511 7.01756 3.2148 7.71474C3.42573 8.17318 3.46167 8.63287 3.64198 9.11756C4.08511 10.3119 4.47042 11.6113 5.04417 12.7147C5.33386 13.2735 5.65323 13.8616 6.0198 14.361C6.24417 14.6676 6.62917 14.8026 6.69011 15.2757C6.31386 15.8026 6.2923 16.6207 6.08073 17.2882C5.12761 20.2929 5.48761 24.0279 6.87355 26.2516C7.29855 26.9347 8.30042 28.3988 9.67824 27.8369C10.8832 27.3463 10.6864 25.8251 11.031 24.4832C11.1089 24.1794 10.9732 23.9557 11.2857 23.7516V23.8126C11.6055 24.5544 11.9475 25.2864 12.3114 26.0076C13.1239 27.316 14.4642 28.6832 15.6857 29.6057C16.3192 30.0841 16.9107 30.911 17.5357 31.191V31.1594H17.6048C17.4464 30.8469 17.1979 30.7947 16.9954 30.5957C16.5182 30.1282 15.9873 29.5388 15.5932 29.0029C14.482 27.4944 13.5001 25.8397 12.6054 24.121C12.1779 23.3004 11.8064 22.3932 11.4464 21.5582C11.3079 21.2363 11.3095 20.7482 11.0201 20.5816C10.6254 21.1935 10.0445 21.6879 9.73917 22.4107C9.25136 23.5657 9.18855 24.9744 9.00761 26.4347C8.90042 26.4729 8.94824 26.4466 8.88542 26.4954C8.03605 26.2907 7.73792 25.4166 7.42198 24.6663C6.62355 22.7694 6.47542 19.7154 7.17792 17.5322C7.3598 16.9669 8.18136 15.1882 7.84855 14.666C7.6898 14.1457 7.16605 13.8441 6.87323 13.4463C6.51042 12.9544 6.14855 12.3069 5.8973 11.7388C5.24386 10.2604 4.93917 8.60006 4.25105 7.10506C3.92198 6.39037 3.36605 5.66693 2.90948 5.03193C2.40417 4.32787 1.83792 3.80943 1.44573 2.95849C1.30667 2.65599 1.1173 2.17162 1.32386 1.86068C1.38948 1.65099 1.4823 1.56349 1.6898 1.49506C2.04386 1.22224 3.02823 1.58568 3.39698 1.73849C4.3748 2.14474 5.19105 2.51974 6.01948 3.06849C6.41667 3.33224 6.81917 3.65912 7.2998 3.97162H7.84855C8.70698 3.97162 9.66855 4.04412 10.4707 4.28787C11.8879 4.71881 13.1582 5.39474 14.312 6.12318C17.8264 8.34256 20.6998 11.5044 22.6657 15.2726C22.982 15.8794 23.1189 16.4597 23.3973 17.1032C23.9592 18.401 24.6673 19.7369 25.2264 21.006C25.7845 22.2726 26.3282 23.5504 27.117 24.6041C27.5317 25.1579 29.1329 25.4554 29.8607 25.7632C30.371 25.9785 31.207 26.2035 31.6901 26.4944C32.6129 27.0513 33.507 27.7144 34.3732 28.3241C34.8057 28.6285 36.1357 29.2972 36.2023 29.8485C34.0576 29.7897 32.4198 29.9897 31.0195 30.5801C30.6217 30.7479 29.9867 30.7526 29.9217 31.251C30.1404 31.4801 30.1745 31.8226 30.3482 32.1044C30.6823 32.6451 31.247 33.3707 31.7507 33.7507C32.3014 34.1663 32.8682 34.6104 33.4582 34.9701C34.5079 35.6097 35.6792 35.9754 36.6898 36.6163C37.2854 36.9944 37.9267 37.4704 38.507 37.8966C38.7945 38.1076 38.7854 38.4354 39.4104 38.5676V38.5069C39.0982 38.2585 39.1148 37.9154 38.9348 37.6544ZM8.94636 6.61756C8.49917 6.60912 8.16073 6.66662 7.84823 6.73912V6.78474H7.91011C8.12355 7.09724 8.50011 7.51287 8.76355 7.89037L9.37355 9.17412L9.43386 9.11568C9.81167 8.84912 9.9848 8.42474 9.98261 7.77474C9.83167 7.61568 9.80886 7.41662 9.67824 7.22662C9.50386 6.97381 9.16605 6.83037 8.94636 6.61756Z" fill="white"/>
</svg>
