<svg width="40" height="40" viewBox="0 0 40 40" fill="none" xmlns="http://www.w3.org/2000/svg">
<path fill-rule="evenodd" clip-rule="evenodd" d="M15.6336 12.8943C14.4648 12.6007 13.2943 12.695 12.059 12.8874C12.059 15.0477 12.0546 17.1499 12.0708 19.2524C12.0714 19.36 12.233 19.5473 12.3378 19.5616C13.6848 19.7435 15.0244 19.7581 16.2841 19.1442C17.5873 18.5093 18.2511 17.1816 18.079 15.6229C17.9229 14.2035 17.0825 13.2585 15.6336 12.8943ZM40 19.9886V0.725763C40 0.0603662 40.0073 0.000366211 39.3613 0.000366211H0.786984C0.15873 0.000366211 0 0.0606837 0 0.694334V39.2686C0 39.9093 0.08 39.9102 0.70127 39.9102C13.5759 39.9105 26.4889 39.9073 39.3635 39.922C39.8629 39.9226 39.9968 39.7896 39.9956 39.3C39.9784 32.8629 40 26.4251 40 19.9886ZM17.5721 21.8426C15.8079 22.4718 13.9683 22.507 12.0635 22.3594V29.5242H8.57143V29.0791C8.57143 23.0807 8.54381 17.0829 8.52698 11.0848C8.52508 10.5867 8.60413 10.3461 9.1654 10.2889C11.8105 10.0185 14.4406 9.71433 17.0708 10.3312C19.8981 10.9937 21.5283 12.8629 21.6521 15.4454C21.8054 18.6435 20.4 20.834 17.5721 21.8426ZM31.6387 25.8915C31.5041 27.7235 30.4711 28.9264 28.7768 29.508C26.5095 30.2864 24.2546 30.1058 22.0387 29.2251C21.6759 29.0807 21.6057 28.8978 21.7254 28.528C21.9435 27.8531 22.1032 27.1591 22.2714 26.5324C23.2083 26.8073 24.099 27.1505 25.0219 27.3127C25.6736 27.4273 26.3781 27.36 27.0406 27.2562C27.6346 27.1629 28.0619 26.7597 28.1594 26.1223C28.2584 25.4743 28.0632 24.9131 27.4911 24.5683C27.0365 24.2947 26.5356 24.0988 26.0552 23.8693C25.2829 23.5 24.4597 23.2105 23.7473 22.7486C20.9438 20.9305 21.8565 17.5477 23.7273 16.2737C24.7283 15.5924 25.8359 15.2902 27.0216 15.2486C28.4162 15.1997 29.759 15.4404 31.0781 16.0813L30.3813 18.554C29.8289 18.3585 29.3146 18.1045 28.7717 18.0035C28.1276 17.8835 27.4521 17.8166 26.8019 17.8696C25.9302 17.941 25.4197 18.5426 25.4197 19.2886C25.4197 19.7305 25.5873 20.1045 25.9559 20.3188C26.4848 20.6264 27.046 20.88 27.6022 21.1375C28.2041 21.4159 28.8397 21.6299 29.419 21.9477C30.9651 22.7953 31.7698 24.1064 31.6387 25.8915Z" fill="white"/>
</svg>
