<svg width="40" height="41" viewBox="0 0 40 41" fill="none" xmlns="http://www.w3.org/2000/svg">
<path d="M15.1516 19.5602H24.7883C27.4708 19.5602 29.584 17.2904 29.584 14.5966V5.40978C29.584 2.79498 27.3922 0.830569 24.7737 0.394328C23.1167 0.118372 21.4044 -0.00721249 19.7547 0.000719161C18.1055 0.00832033 16.578 0.148777 15.1923 0.394328C11.1091 1.11512 10.4158 2.62544 10.4158 5.40978V8.98464H19.9999V10.3066H6.70642C3.90258 10.3066 1.44707 11.9947 0.679352 15.2014C-0.20668 18.8764 -0.246008 21.1234 0.679352 24.9606C1.36511 27.8167 3.00267 29.8052 5.80684 29.8052H9.09385V25.4931C9.09385 22.3082 11.8792 19.5602 15.1516 19.5602ZM14.5442 6.63489C13.5442 6.63489 12.7338 5.81561 12.7338 4.80234C12.7338 3.78478 13.5438 2.9579 14.5442 2.9579C15.5406 2.9579 16.3549 3.78478 16.3549 4.80234C16.3546 5.81561 15.5403 6.63489 14.5442 6.63489ZM39.2609 15.2014C38.5675 12.4095 37.2439 10.3066 34.4361 10.3066H30.9059V14.5966C30.9059 17.918 27.9996 20.5516 24.7883 20.5516H15.1516C12.5117 20.5516 10.4158 22.9728 10.4158 25.6167V34.8042C10.4158 37.4183 12.6449 38.9564 15.1953 39.7066C18.2496 40.6045 21.142 40.7668 24.7962 39.7066C27.2249 39.003 29.584 37.5878 29.584 34.8042V31.1272H19.9999V29.8052H34.4361C37.24 29.8052 38.2853 27.8963 39.2609 24.9603C40.2679 21.938 40.2246 19.078 39.2609 15.2014ZM25.3954 33.5784C26.3958 33.5784 27.2061 34.3977 27.2061 35.4116C27.2061 36.4282 26.3961 37.2554 25.3954 37.2554C24.399 37.2554 23.585 36.4285 23.585 35.4116C23.585 34.3977 24.399 33.5784 25.3954 33.5784Z" fill="white"/>
</svg>
