<svg width="50" height="44" viewBox="0 0 50 44" fill="none" xmlns="http://www.w3.org/2000/svg">
<path d="M24.6369 26.4866C27.1147 26.4866 29.1234 24.4779 29.1234 22C29.1234 19.5221 27.1147 17.5134 24.6369 17.5134C22.159 17.5134 20.1503 19.5221 20.1503 22C20.1503 24.4779 22.159 26.4866 24.6369 26.4866Z" fill="white"/>
<path d="M41.678 14.6011C40.8122 14.2862 39.907 13.9714 38.9624 13.6959C39.1986 12.7513 39.3954 11.8068 39.5528 10.9016C40.3793 5.70662 39.4741 2.04651 36.9553 0.629696C36.2075 0.19678 35.381 0 34.4365 0C31.6816 0 28.1789 2.04651 24.6369 5.47048C21.0948 2.04651 17.5921 0 14.8372 0C13.8927 0 13.0662 0.19678 12.3184 0.629696C9.79964 2.08587 8.89446 5.74597 9.72093 10.9016C9.87836 11.8068 10.0751 12.7513 10.3113 13.6959C9.36673 13.9714 8.46154 14.2469 7.59571 14.6011C2.67621 16.4902 0 19.0877 0 22C0 24.9123 2.71556 27.5098 7.59571 29.3989C8.46154 29.7138 9.36673 30.0286 10.3113 30.3041C10.0751 31.2487 9.87836 32.1932 9.72093 33.0984C8.89446 38.2934 9.79964 41.9535 12.3184 43.3703C13.0662 43.8032 13.8927 44 14.8372 44C17.6315 44 21.1342 41.9535 24.6369 38.5295C28.1789 41.9535 31.6816 44 34.4365 44C35.381 44 36.2075 43.8032 36.9553 43.3703C39.4741 41.9141 40.3793 38.254 39.5528 33.0984C39.3954 32.1932 39.1986 31.2487 38.9624 30.3041C39.907 30.0286 40.8122 29.7531 41.678 29.3989C46.5975 27.5098 49.2737 24.9123 49.2737 22C49.2737 19.0877 46.5975 16.4902 41.678 14.6011V14.6011ZM35.8533 2.5975C37.4669 3.54204 38.0179 6.45438 37.3488 10.5868C37.2308 11.4132 37.034 12.2791 36.7979 13.1843C34.7513 12.712 32.5868 12.3971 30.3041 12.2004C28.966 10.3113 27.5886 8.61896 26.2111 7.08408C29.1234 4.21109 32.0751 2.24329 34.4759 2.24329C34.9875 2.24329 35.4598 2.36136 35.8533 2.5975V2.5975ZM31.4454 25.9356C30.737 27.195 29.9106 28.4544 29.0447 29.7138C27.5886 29.8318 26.1324 29.8712 24.6369 29.8712C23.102 29.8712 21.6458 29.8318 20.229 29.7138C19.3631 28.4544 18.576 27.195 17.8676 25.9356C17.1199 24.6369 16.4114 23.2987 15.7818 22C16.4114 20.7013 17.1199 19.3631 17.8676 18.0644C18.576 16.805 19.4025 15.5456 20.2683 14.2862C21.7245 14.1682 23.1807 14.1288 24.6762 14.1288C26.2111 14.1288 27.6673 14.1682 29.0841 14.2862C29.9499 15.5456 30.737 16.805 31.4454 18.0644C32.1932 19.3631 32.9016 20.7013 33.5313 22C32.8623 23.2987 32.1932 24.5975 31.4454 25.9356ZM34.712 24.6368C35.3023 26.0143 35.7746 27.3524 36.2075 28.6905C34.8694 29.0054 33.4526 29.2415 31.9571 29.4383C32.4293 28.6905 32.941 27.9034 33.3739 27.0769C33.8462 26.2504 34.2791 25.424 34.712 24.6368ZM24.6369 35.3023C23.6923 34.2791 22.7871 33.1771 21.9213 32.0358C22.8265 32.0751 23.7317 32.1145 24.6369 32.1145C25.542 32.1145 26.4472 32.0751 27.3524 32.0358C26.4866 33.1771 25.5814 34.2791 24.6369 35.3023ZM17.3166 29.3989C15.8211 29.2021 14.4043 28.966 13.0662 28.6512C13.4991 27.3524 13.9714 25.975 14.5617 24.5975C14.9946 25.3846 15.4275 26.2111 15.8998 26.9982C16.3721 27.864 16.8444 28.6118 17.3166 29.3989V29.3989ZM14.5617 19.3631C13.9714 17.9857 13.4991 16.6476 13.0662 15.3095C14.4043 14.9946 15.8211 14.7585 17.3166 14.5617C16.8444 15.3095 16.3327 16.0966 15.8998 16.9231C15.4275 17.7496 14.9946 18.576 14.5617 19.3631V19.3631ZM24.6369 8.69767C25.5814 9.72093 26.4866 10.8229 27.3524 11.9642C26.4472 11.9249 25.542 11.8855 24.6369 11.8855C23.7317 11.8855 22.8265 11.9249 21.9213 11.9642C22.7871 10.8229 23.6923 9.72093 24.6369 8.69767ZM33.3739 16.9624L31.9571 14.6011C33.4526 14.7979 34.8694 15.034 36.2075 15.3488C35.7746 16.6476 35.3023 18.025 34.712 19.4025C34.2791 18.576 33.8462 17.7496 33.3739 16.9624ZM11.9249 10.5868C11.2558 6.45438 11.8068 3.54204 13.4204 2.5975C13.814 2.36136 14.2862 2.24329 14.7979 2.24329C17.1592 2.24329 20.1109 4.17173 23.0626 7.08408C21.6852 8.57961 20.3077 10.3113 18.9696 12.2004C16.6869 12.3971 14.5224 12.7513 12.4759 13.1843C12.2397 12.2791 12.0823 11.4132 11.9249 10.5868V10.5868ZM2.20394 22C2.20394 20.1503 4.44723 18.1825 8.38283 16.7263C9.16995 16.4114 10.0358 16.136 10.9016 15.8998C11.5313 17.8676 12.3184 19.9535 13.263 22.0394C12.3184 24.1252 11.492 26.1717 10.9016 28.1395C5.47048 26.5653 2.20394 24.2039 2.20394 22ZM13.4204 41.4025C11.8068 40.458 11.2558 37.5456 11.9249 33.4132C12.0429 32.5868 12.2397 31.7209 12.4759 30.8157C14.5224 31.288 16.6869 31.6029 18.9696 31.7996C20.3077 33.6887 21.6852 35.381 23.0626 36.9159C20.1503 39.7889 17.1986 41.7567 14.7979 41.7567C14.2862 41.7567 13.814 41.6386 13.4204 41.4025ZM37.3488 33.4132C38.0179 37.5456 37.4669 40.458 35.8533 41.4025C35.4598 41.6386 34.9875 41.7567 34.4759 41.7567C32.1145 41.7567 29.1628 39.8283 26.2111 36.9159C27.5886 35.4204 28.966 33.6887 30.3041 31.7996C32.5868 31.6029 34.7513 31.2487 36.7979 30.8157C37.034 31.7209 37.1914 32.5868 37.3488 33.4132V33.4132ZM40.8909 27.2737C40.1038 27.5886 39.2379 27.864 38.3721 28.1002C37.7424 26.1324 36.9553 24.0465 36.0107 21.9606C36.9553 19.8748 37.7818 17.8283 38.3721 15.8605C43.8032 17.4347 47.0698 19.7961 47.0698 22C47.0698 23.8497 44.7871 25.8175 40.8909 27.2737Z" fill="white"/>
</svg>
