<svg width="44" height="40" viewBox="0 0 44 40" fill="none" xmlns="http://www.w3.org/2000/svg">
<path d="M22 23.6517C24.2127 23.6517 26.0064 21.858 26.0064 19.6453C26.0064 17.4326 24.2127 15.6389 22 15.6389C19.7873 15.6389 17.9936 17.4326 17.9936 19.6453C17.9936 21.858 19.7873 23.6517 22 23.6517Z" fill="white"/>
<path d="M37.2173 13.0383C36.4441 12.7572 35.6358 12.476 34.7923 12.23C35.0032 11.3866 35.1789 10.5431 35.3195 9.73482C36.0575 5.09585 35.2492 1.82748 33 0.5623C32.3323 0.175719 31.5943 0 30.7508 0C28.2907 0 25.1629 1.82748 22 4.88498C18.8371 1.82748 15.7093 0 13.2492 0C12.4058 0 11.6677 0.175719 11 0.5623C8.7508 1.86262 7.94249 5.13099 8.68051 9.73482C8.82109 10.5431 8.99681 11.3866 9.20767 12.23C8.36422 12.476 7.55591 12.722 6.78275 13.0383C2.38978 14.7252 0 17.0447 0 19.6454C0 22.246 2.42492 24.5655 6.78275 26.2524C7.55591 26.5335 8.36422 26.8147 9.20767 27.0607C8.99681 27.9042 8.82109 28.7476 8.68051 29.5559C7.94249 34.1949 8.7508 37.4633 11 38.7284C11.6677 39.115 12.4058 39.2907 13.2492 39.2907C15.7444 39.2907 18.8722 37.4633 22 34.4058C25.1629 37.4633 28.2907 39.2907 30.7508 39.2907C31.5943 39.2907 32.3323 39.115 33 38.7284C35.2492 37.4281 36.0575 34.1597 35.3195 29.5559C35.1789 28.7476 35.0032 27.9042 34.7923 27.0607C35.6358 26.8147 36.4441 26.5687 37.2173 26.2524C41.6102 24.5655 44 22.246 44 19.6454C44 17.0447 41.6102 14.7252 37.2173 13.0383V13.0383ZM32.016 2.31949C33.4569 3.16294 33.9489 5.76358 33.3514 9.45367C33.246 10.1917 33.0703 10.9649 32.8594 11.7732C31.032 11.3514 29.099 11.0703 27.0607 10.8946C25.8658 9.20767 24.6358 7.69649 23.4058 6.32588C26.0064 3.76038 28.6422 2.00319 30.7859 2.00319C31.2428 2.00319 31.6645 2.10863 32.016 2.31949V2.31949ZM28.0799 23.1597C27.4473 24.2843 26.7093 25.4089 25.9361 26.5335C24.6358 26.639 23.3355 26.6741 22 26.6741C20.6294 26.6741 19.3291 26.639 18.0639 26.5335C17.2907 25.4089 16.5879 24.2843 15.9553 23.1597C15.2875 22 14.655 20.8051 14.0927 19.6454C14.655 18.4856 15.2875 17.2907 15.9553 16.131C16.5879 15.0064 17.3259 13.8818 18.099 12.7572C19.3994 12.6518 20.6997 12.6166 22.0351 12.6166C23.4058 12.6166 24.7061 12.6518 25.9712 12.7572C26.7444 13.8818 27.4473 15.0064 28.0799 16.131C28.7476 17.2907 29.3802 18.4856 29.9425 19.6454C29.345 20.8051 28.7476 21.9649 28.0799 23.1597ZM30.9968 22C31.524 23.23 31.9457 24.4249 32.3323 25.6198C31.1374 25.901 29.8722 26.1118 28.5367 26.2875C28.9585 25.6198 29.4153 24.9169 29.8019 24.1789C30.2236 23.4409 30.6102 22.7029 30.9968 22ZM22 31.524C21.1566 30.6102 20.3482 29.6262 19.5751 28.607C20.3834 28.6422 21.1917 28.6773 22 28.6773C22.8083 28.6773 23.6166 28.6422 24.4249 28.607C23.6518 29.6262 22.8435 30.6102 22 31.524ZM15.4633 26.2524C14.1278 26.0767 12.8626 25.8658 11.6677 25.5847C12.0543 24.4249 12.476 23.1949 13.0032 21.9649C13.3898 22.6677 13.7764 23.4057 14.1981 24.1086C14.6198 24.8818 15.0415 25.5495 15.4633 26.2524V26.2524ZM13.0032 17.2907C12.476 16.0607 12.0543 14.8658 11.6677 13.6709C12.8626 13.3898 14.1278 13.1789 15.4633 13.0032C15.0415 13.6709 14.5847 14.3738 14.1981 15.1118C13.7764 15.8498 13.3898 16.5879 13.0032 17.2907V17.2907ZM22 7.76677C22.8435 8.68051 23.6518 9.66454 24.4249 10.6837C23.6166 10.6486 22.8083 10.6134 22 10.6134C21.1917 10.6134 20.3834 10.6486 19.5751 10.6837C20.3482 9.66454 21.1566 8.68051 22 7.76677ZM29.8019 15.147L28.5367 13.0383C29.8722 13.2141 31.1374 13.4249 32.3323 13.7061C31.9457 14.8658 31.524 16.0958 30.9968 17.3259C30.6102 16.5879 30.2236 15.8498 29.8019 15.147ZM10.6486 9.45367C10.0511 5.76358 10.5431 3.16294 11.984 2.31949C12.3355 2.10863 12.7572 2.00319 13.2141 2.00319C15.3227 2.00319 17.9585 3.72524 20.5942 6.32588C19.3642 7.66134 18.1342 9.20767 16.9393 10.8946C14.901 11.0703 12.9681 11.3866 11.1406 11.7732C10.9297 10.9649 10.7891 10.1917 10.6486 9.45367V9.45367ZM1.96805 19.6454C1.96805 17.9936 3.97125 16.2364 7.48562 14.9361C8.1885 14.655 8.96166 14.4089 9.73483 14.1981C10.2971 15.9553 11 17.8179 11.8435 19.6805C11 21.5431 10.262 23.3706 9.73483 25.1278C4.88498 23.722 1.96805 21.6134 1.96805 19.6454ZM11.984 36.9712C10.5431 36.1278 10.0511 33.5272 10.6486 29.8371C10.754 29.099 10.9297 28.3259 11.1406 27.5176C12.9681 27.9393 14.901 28.2204 16.9393 28.3962C18.1342 30.0831 19.3642 31.5942 20.5942 32.9649C17.9936 35.5304 15.3578 37.2875 13.2141 37.2875C12.7572 37.2875 12.3355 37.1821 11.984 36.9712ZM33.3514 29.8371C33.9489 33.5272 33.4569 36.1278 32.016 36.9712C31.6645 37.1821 31.2428 37.2875 30.7859 37.2875C28.6773 37.2875 26.0415 35.5655 23.4058 32.9649C24.6358 31.6294 25.8658 30.0831 27.0607 28.3962C29.099 28.2204 31.032 27.9042 32.8594 27.5176C33.0703 28.3259 33.2109 29.099 33.3514 29.8371V29.8371ZM36.5144 24.3546C35.8115 24.6358 35.0383 24.8818 34.2652 25.0927C33.7029 23.3355 33 21.4728 32.1566 19.6102C33 17.7476 33.738 15.9201 34.2652 14.1629C39.115 15.5687 42.032 17.6773 42.032 19.6454C42.032 21.2971 39.9936 23.0543 36.5144 24.3546Z" fill="white"/>
</svg>
