<svg width="49" height="36" viewBox="0 0 49 36" fill="none" xmlns="http://www.w3.org/2000/svg">
<path fill-rule="evenodd" clip-rule="evenodd" d="M0 15.0116C0 15.2811 0.080786 15.459 0.126057 15.6319C0.421102 16.7563 1.05529 17.7213 1.80773 18.6015C2.87941 19.8559 4.19189 20.8658 5.53637 21.8154C6.7025 22.6389 7.89244 23.444 9.06325 24.2613C9.26424 24.4017 9.4543 24.5631 9.67246 24.7352C9.48474 24.8349 9.32863 24.9227 9.16628 25.0036C7.6212 25.7734 6.13466 26.6364 4.76442 27.6818C3.93861 28.3121 3.14012 28.9819 2.57617 29.8571C1.6688 31.2649 1.3476 32.7647 2.02394 34.366C2.22142 34.8338 2.52271 35.2378 2.94771 35.5365C3.08548 35.6331 3.24002 35.729 3.40121 35.7665C3.81411 35.862 4.23482 35.9245 4.6528 36L5.83649 35.9992C7.14546 35.8846 8.33695 35.4441 9.41371 34.7141C11.0966 33.5732 12.2303 32.0435 12.7177 30.0803C13.0721 28.6533 13.0865 27.2249 12.669 25.8044C12.629 25.6728 12.5829 25.5431 12.5308 25.4157C12.4801 25.288 12.4204 25.1638 12.3501 25.0047L15.0336 23.4888L15.0738 23.5226C15.025 23.6794 14.9731 23.8358 14.929 23.9941C14.6102 25.1381 14.3982 26.3021 14.4743 27.4894C14.5555 28.7545 14.915 29.9388 15.669 30.9958C16.2786 31.8507 17.7312 31.8825 18.379 31.0245C18.6089 30.7197 18.8317 30.4011 18.9991 30.0611C19.4366 29.1736 19.8417 28.2703 20.2597 27.3732L20.3327 27.2091C20.3026 27.6339 20.2675 28.0069 20.2515 28.3804C20.2265 28.9635 20.2613 29.5431 20.4642 30.0979C20.6379 30.5725 20.9333 30.9271 21.4867 30.9896C21.8653 31.0322 22.167 30.862 22.4452 30.6461C22.8763 30.3115 23.2336 29.8942 23.4954 29.4197C24.2373 28.0813 24.9992 26.751 25.6716 25.3789C26.3991 23.8948 27.0352 22.3674 27.7108 20.8581L27.8224 20.5905C27.982 21.2066 28.0932 21.81 28.2981 22.3812C28.5362 23.0441 28.8308 23.6913 29.1516 24.3204C29.3034 24.6175 29.2859 24.8103 29.0755 25.0595C28.1951 26.1023 27.3298 27.1578 26.4638 28.212C26.2722 28.4448 26.0814 28.6817 25.9218 28.9359C25.8249 29.0964 25.7613 29.2741 25.7344 29.4588C25.7076 29.6289 25.7488 29.8025 25.8494 29.9434C25.95 30.0843 26.1022 30.1814 26.2742 30.2144C26.6212 30.2878 26.9769 30.3128 27.331 30.2884C28.5397 30.201 29.6371 29.7843 30.6073 29.0781C31.8644 28.1634 32.2679 26.9151 31.9635 25.4356C31.8812 25.0342 31.7356 24.6439 31.5939 24.2571C31.5303 24.0827 31.526 23.9604 31.6419 23.7978C32.6469 22.3881 33.5055 20.8926 34.304 19.3625C34.3356 19.3023 34.368 19.2421 34.4234 19.1777C34.6822 20.5004 35.0716 21.7751 35.7694 22.9318C35.4135 23.2688 35.0611 23.5743 34.7423 23.9109C34.0402 24.6524 33.4313 25.4575 33.1137 26.4393C32.9771 26.8626 32.8721 27.2927 32.933 27.7447C33.0274 28.4467 33.6128 28.9029 34.3157 28.743C35.8198 28.4011 37.1182 27.7048 38.067 26.4715C38.7054 25.6411 38.7636 24.7149 38.4963 23.7445C38.4229 23.4808 38.3359 23.2212 38.2422 22.9187C38.6133 22.8056 38.9751 22.6699 39.3494 22.586C41.2926 22.1505 43.2146 22.2264 45.0871 22.9157C46.1803 23.3182 47.0635 23.9918 47.5872 25.0515C48.2269 26.3469 47.8733 27.576 46.6303 28.3949C46.5144 28.4712 46.3817 28.5314 46.2857 28.6269C46.2549 28.6619 46.2319 28.7028 46.2181 28.747C46.2044 28.7912 46.2001 28.8378 46.2057 28.8837C46.2139 28.9309 46.3407 28.9899 46.4137 28.9892C46.8223 28.9861 47.1536 28.7756 47.4717 28.5594C48.2686 28.0177 48.8501 27.2889 48.9754 26.3293L49 26.2572L48.9699 25.6323C48.9578 25.5963 48.9789 25.5606 48.9762 25.5334C48.8068 24.136 48.047 23.0522 46.9417 22.2026C45.6616 21.2192 44.1501 20.8144 42.5516 20.7504C41.2551 20.6955 39.9603 20.8913 38.7406 21.3266C38.3905 21.4512 38.0435 21.5988 37.6915 21.7379C37.6443 21.654 37.5936 21.5735 37.5518 21.4903C37.1904 20.7634 36.7525 20.0687 36.6557 19.2352C36.5871 18.6433 36.5028 18.0521 36.646 17.4667C36.7838 16.9035 36.9633 16.3499 37.1323 15.7944C37.2193 15.5084 37.158 15.3482 36.8802 15.2194C36.7833 15.1719 36.68 15.1386 36.5734 15.1204C35.8904 15.0231 35.2168 15.0787 34.5553 15.2677C34.3212 15.3348 34.151 15.4636 34.0991 15.7181C34.0694 15.8642 34.0089 16.0041 33.9668 16.1483C33.7939 16.7475 33.6714 17.3582 33.3919 17.9291C32.6918 19.361 31.8925 20.7389 31.0745 22.1068C30.9859 22.2544 30.8926 22.3993 30.781 22.5783C30.4938 21.9879 30.1874 21.4581 30.0945 20.837C29.9895 20.1347 29.9068 19.4335 30.0848 18.7365C30.2171 18.2166 30.39 17.7063 30.5492 17.1934C30.6245 16.9495 30.5898 16.8215 30.365 16.6931C30.2514 16.6283 30.123 16.5708 29.995 16.552C29.2947 16.4472 28.5792 16.5047 27.9055 16.7199C27.6936 16.7874 27.5824 16.9219 27.5176 17.1366C27.3271 17.77 27.1648 18.4186 26.8974 19.0209C25.8148 21.4592 24.701 23.8849 23.5883 26.3101C23.3561 26.8166 23.0841 27.3054 22.8222 27.7984C22.7559 27.9234 22.6591 28.0334 22.5764 28.1507C22.51 28.0737 22.4843 28.0207 22.4846 27.9678C22.4866 27.6562 22.4487 27.3353 22.5092 27.0339C22.695 26.1226 22.9003 25.2152 23.1251 24.3123C23.3085 23.5663 23.522 22.8271 23.7253 22.086C23.7936 21.838 23.7948 21.6061 23.6133 21.3975C23.3085 21.0482 22.6716 20.9716 22.2938 21.2407L22.1268 21.3335L22.1592 21.0689C22.2388 20.5019 22.2548 19.9368 22.0963 19.3782C21.8988 18.682 21.3931 18.2814 20.6578 18.3036C20.3151 18.314 19.9553 18.3715 19.638 18.4942C18.3037 19.0079 17.2777 19.9177 16.4042 21.0122C16.3233 21.1138 16.2229 21.199 16.1088 21.2629C14.9797 21.8779 13.8472 22.4851 12.715 23.0947L11.4548 23.7729C11.1169 23.4562 10.8097 23.1277 10.4612 22.849C9.39693 21.9963 8.31549 21.1648 7.24381 20.3217C6.29389 19.5745 5.37363 18.7963 4.66958 17.8068C4.14584 17.0707 3.80826 16.2652 3.77587 15.3551C3.73489 14.1954 4.06974 13.1357 4.67076 12.1493C5.43959 10.8872 6.48824 9.87429 7.6411 8.95687C8.8607 7.98692 10.1798 7.16343 11.5469 6.41162C13.4596 5.36001 15.427 4.42917 17.5364 3.81462C19.6993 3.18434 21.8938 2.82358 24.1573 3.07508C25.0472 3.17399 25.9112 3.37411 26.7046 3.80158C27.3123 4.1286 27.8107 4.55684 28.0425 5.22621C28.2712 5.88486 28.2642 6.55232 28.1057 7.22132C27.7837 8.57617 27.0286 9.69296 26.0783 10.6909C24.5195 12.3268 22.6181 13.4405 20.4775 14.1762C19.2467 14.5997 17.9661 14.8681 16.6665 14.9748C15.6014 15.0626 14.5586 14.9698 13.5502 14.606C12.8824 14.3648 12.3009 13.996 11.8334 13.4608C11.7499 13.365 11.6429 13.2611 11.4872 13.3508C11.3346 13.4389 11.3077 13.5816 11.3588 13.7261C11.4443 13.9661 11.5231 14.2161 11.6562 14.4307C11.9907 14.9694 12.4785 15.3601 13.0155 15.6951C14.047 16.3396 15.1999 16.5562 16.3953 16.6064C18.2092 16.6835 19.9791 16.4174 21.724 15.9393C24.2151 15.2569 26.3811 14.0516 28.1182 12.15C29.5645 10.5667 30.5976 8.77975 30.8189 6.62209C30.927 5.56895 30.8118 4.53728 30.31 3.57654C29.7655 2.53567 28.8999 1.76162 27.8649 1.22834C26.3577 0.452003 24.731 0 23.0521 0H21.37C19.3367 0 17.3709 0.572384 15.4602 1.25518C14.0138 1.77236 12.5956 2.3827 11.2187 3.05821C8.22026 4.53 5.42788 6.30466 3.13426 8.74486C1.99155 9.96056 1.02407 11.302 0.467544 12.8815C0.299574 13.3531 0.154875 13.8324 0.0339535 14.3177L0 15.0116ZM10.8987 28.1243C10.7687 29.8337 9.97999 31.2197 8.69093 32.3422C7.96581 32.9732 7.13414 33.4225 6.16549 33.5805C5.81425 33.6376 5.45481 33.6514 5.1141 33.5084C4.62822 33.3045 4.51933 32.8808 4.50996 32.4296C4.49552 31.7104 4.75193 31.0602 5.10356 30.4414C5.56252 29.6348 6.23535 29.0198 6.95384 28.4455C8.08562 27.5404 9.31341 26.7744 10.5709 26.0513L10.6657 26.013C10.8601 26.7184 10.9525 27.415 10.8987 28.1243V28.1243ZM20.7171 20.6948C20.6254 21.2407 20.5107 21.787 20.3483 22.3161C19.7871 24.1475 19.0663 25.9221 18.2869 27.673C18.1429 27.997 17.9333 28.2926 17.7511 28.5996C17.72 28.6469 17.6829 28.6899 17.6406 28.7277C17.415 28.9466 17.2012 28.9351 17.0872 28.6487C16.9545 28.3159 16.8729 27.9598 16.8027 27.6075C16.7555 27.3709 16.7668 27.1225 16.752 26.8802C16.7672 25.1573 17.3022 23.5916 18.21 22.134C18.5843 21.5328 18.9917 20.9601 19.6142 20.5798C19.8078 20.4615 20.0174 20.3704 20.2367 20.3091C20.5684 20.2175 20.7721 20.3681 20.7171 20.6948V20.6948ZM27.4157 29.0785L29.8233 26.317C29.9236 27.3425 28.149 29.3898 27.4157 29.0785ZM35.1052 27.2203C34.935 27.3161 34.7497 27.3851 34.5752 27.4737C34.4156 27.5549 34.3629 27.4729 34.3582 27.3379C34.3559 27.2445 34.3681 27.1513 34.3945 27.0615C34.7196 25.9352 35.3179 24.9737 36.2081 24.1916L36.2706 24.1601C36.694 25.3237 36.2046 26.6015 35.1052 27.2203Z" fill="white"/>
</svg>
