<svg width="46" height="36" viewBox="0 0 46 36" fill="none" xmlns="http://www.w3.org/2000/svg">
<path fill-rule="evenodd" clip-rule="evenodd" d="M0 15.0116C0 15.2811 0.0758399 15.459 0.11834 15.6319C0.39532 16.7563 0.990681 17.7213 1.69705 18.6015C2.70312 19.8559 3.93525 20.8658 5.19741 21.8154C6.29215 22.6389 7.40923 23.444 8.50835 24.2613C8.69704 24.4017 8.87546 24.5631 9.08027 24.7352C8.90404 24.8349 8.75749 24.9227 8.60508 25.0036C7.15459 25.7734 5.75907 26.6364 4.47272 27.6818C3.69747 28.3121 2.94786 28.9819 2.41845 29.8571C1.56662 31.2649 1.2651 32.7647 1.90003 34.366C2.08541 34.8338 2.36826 35.2378 2.76724 35.5365C2.89657 35.6331 3.04166 35.729 3.19297 35.7665C3.58059 35.862 3.97555 35.9245 4.36794 36L5.47916 35.9992C6.70798 35.8846 7.82653 35.4441 8.83736 34.7141C10.4172 33.5732 11.4815 32.0435 11.9391 30.0803C12.2718 28.6533 12.2853 27.2249 11.8933 25.8044C11.8558 25.6728 11.8125 25.5431 11.7636 25.4157C11.716 25.288 11.6599 25.1638 11.594 25.0047L14.1132 23.4888L14.1509 23.5226C14.1051 23.6794 14.0564 23.8358 14.015 23.9941C13.7157 25.1381 13.5167 26.3021 13.5882 27.4894C13.6644 28.7545 14.0018 29.9388 14.7096 30.9958C15.2819 31.8507 16.6456 31.8825 17.2538 31.0245C17.4696 30.7197 17.6788 30.4011 17.8359 30.0611C18.2466 29.1736 18.6269 28.2703 19.0193 27.3732L19.0878 27.2091C19.0596 27.6339 19.0266 28.0069 19.0116 28.3804C18.9882 28.9635 19.0208 29.5431 19.2113 30.0979C19.3743 30.5725 19.6517 30.9271 20.1712 30.9896C20.5266 31.0322 20.8098 30.862 21.071 30.6461C21.4757 30.3115 21.8112 29.8942 22.0569 29.4197C22.7534 28.0813 23.4686 26.751 24.0999 25.3789C24.7828 23.8948 25.38 22.3674 26.0142 20.8581L26.119 20.5905C26.2688 21.2066 26.3732 21.81 26.5656 22.3812C26.7891 23.0441 27.0657 23.6913 27.3668 24.3204C27.5094 24.6175 27.4929 24.8103 27.2954 25.0595C26.4688 26.1023 25.6566 27.1578 24.8436 28.212C24.6637 28.4448 24.4846 28.6817 24.3347 28.9359C24.2438 29.0964 24.184 29.2741 24.1588 29.4588C24.1336 29.6289 24.1723 29.8025 24.2668 29.9434C24.3612 30.0843 24.5041 30.1814 24.6655 30.2144C24.9913 30.2878 25.3253 30.3128 25.6577 30.2884C26.7924 30.201 27.8226 29.7843 28.7334 29.0781C29.9135 28.1634 30.2924 26.9151 30.0066 25.4356C29.9293 25.0342 29.7926 24.6439 29.6596 24.2571C29.5999 24.0827 29.5959 23.9604 29.7047 23.7978C30.6481 22.3881 31.4541 20.8926 32.2037 19.3625C32.2334 19.3023 32.2638 19.2421 32.3158 19.1777C32.5588 20.5004 32.9244 21.7751 33.5795 22.9318C33.2453 23.2688 32.9145 23.5743 32.6152 23.9109C31.9561 24.6524 31.3845 25.4575 31.0863 26.4393C30.9581 26.8626 30.8595 27.2927 30.9167 27.7447C31.0053 28.4467 31.5549 28.9029 32.2147 28.743C33.6267 28.4011 34.8457 27.7048 35.7363 26.4715C36.3357 25.6411 36.3903 24.7149 36.1394 23.7445C36.0705 23.4808 35.9888 23.2212 35.9008 22.9187C36.2493 22.8056 36.5889 22.6699 36.9402 22.586C38.7644 22.1505 40.5688 22.2264 42.3267 22.9157C43.3529 23.3182 44.182 23.9918 44.6737 25.0515C45.2742 26.3469 44.9423 27.576 43.7754 28.3949C43.6665 28.4712 43.542 28.5314 43.4519 28.6269C43.423 28.6619 43.4014 28.7028 43.3885 28.747C43.3755 28.7912 43.3715 28.8378 43.3767 28.8837C43.3844 28.9309 43.5035 28.9899 43.572 28.9892C43.9556 28.9861 44.2667 28.7756 44.5653 28.5594C45.3134 28.0177 45.8593 27.2889 45.9769 26.3293L46 26.2572L45.9718 25.6323C45.9604 25.5963 45.9802 25.5606 45.9776 25.5334C45.8186 24.136 45.1053 23.0522 44.0677 22.2026C42.866 21.2192 41.447 20.8144 39.9464 20.7504C38.7293 20.6955 37.5137 20.8913 36.3687 21.3266C36.0401 21.4512 35.7144 21.5988 35.3839 21.7379C35.3395 21.654 35.2919 21.5735 35.2527 21.4903C34.9135 20.7634 34.5024 20.0687 34.4115 19.2352C34.347 18.6433 34.2679 18.0521 34.4024 17.4667C34.5317 16.9035 34.7002 16.3499 34.8589 15.7944C34.9406 15.5084 34.883 15.3482 34.6222 15.2194C34.5313 15.1719 34.4343 15.1386 34.3342 15.1204C33.6931 15.0231 33.0607 15.0787 32.4397 15.2677C32.2199 15.3348 32.0601 15.4636 32.0114 15.7181C31.9835 15.8642 31.9268 16.0041 31.8872 16.1483C31.7249 16.7475 31.6098 17.3582 31.3475 17.9291C30.6902 19.361 29.9399 20.7389 29.172 22.1068C29.0888 22.2544 29.0012 22.3993 28.8965 22.5783C28.6268 21.9879 28.3392 21.4581 28.252 20.837C28.1534 20.1347 28.0758 19.4335 28.2428 18.7365C28.367 18.2166 28.5294 17.7063 28.6788 17.1934C28.7495 16.9495 28.7169 16.8215 28.5059 16.6931C28.3993 16.6283 28.2787 16.5708 28.1586 16.552C27.5011 16.4472 26.8294 16.5047 26.197 16.7199C25.9981 16.7874 25.8936 16.9219 25.8328 17.1366C25.654 17.77 25.5016 18.4186 25.2506 19.0209C24.2343 21.4592 23.1887 23.8849 22.1441 26.3101C21.9262 26.8166 21.6708 27.3054 21.4249 27.7984C21.3627 27.9234 21.2718 28.0334 21.1941 28.1507C21.1318 28.0737 21.1077 28.0207 21.108 27.9678C21.1099 27.6562 21.0743 27.3353 21.1311 27.0339C21.3055 26.1226 21.4983 25.2152 21.7093 24.3123C21.8815 23.5663 22.0819 22.8271 22.2727 22.086C22.3369 21.838 22.338 21.6061 22.1676 21.3975C21.8815 21.0482 21.2835 20.9716 20.9289 21.2407L20.7721 21.3335L20.8025 21.0689C20.8772 20.5019 20.8922 19.9368 20.7435 19.3782C20.5581 18.682 20.0833 18.2814 19.393 18.3036C19.0713 18.314 18.7335 18.3715 18.4357 18.4942C17.183 19.0079 16.2198 19.9177 15.3999 21.0122C15.3239 21.1138 15.2297 21.199 15.1225 21.2629C14.0626 21.8779 12.9994 22.4851 11.9365 23.0947L10.7535 23.7729C10.4362 23.4562 10.1479 23.1277 9.82071 22.849C8.82161 21.9963 7.80638 21.1648 6.80031 20.3217C5.90855 19.5745 5.04463 18.7963 4.38369 17.8068C3.89201 17.0707 3.5751 16.2652 3.54469 15.3551C3.50622 14.1954 3.82057 13.1357 4.38479 12.1493C5.10655 10.8872 6.091 9.87429 7.17328 8.95687C8.31821 7.98692 9.55656 7.16343 10.84 6.41162C12.6356 5.36001 14.4825 4.42917 16.4627 3.81462C18.4932 3.18434 20.5533 2.82358 22.6783 3.07508C23.5137 3.17399 24.3248 3.37411 25.0697 3.80158C25.6401 4.1286 26.108 4.55684 26.3256 5.22621C26.5403 5.88486 26.5337 6.55232 26.3849 7.22132C26.0827 8.57617 25.3738 9.69296 24.4816 10.6909C23.0183 12.3268 21.2333 13.4405 19.2238 14.1762C18.0683 14.5997 16.8661 14.8681 15.6461 14.9748C14.6463 15.0626 13.6673 14.9698 12.7206 14.606C12.0937 14.3648 11.5478 13.996 11.1089 13.4608C11.0305 13.365 10.9301 13.2611 10.7839 13.3508C10.6407 13.4389 10.6154 13.5816 10.6634 13.7261C10.7436 13.9661 10.8176 14.2161 10.9426 14.4307C11.2565 14.9694 11.7145 15.3601 12.2186 15.6951C13.187 16.3396 14.2693 16.5562 15.3915 16.6064C17.0944 16.6835 18.7559 16.4174 20.394 15.9393C22.7325 15.2569 24.7659 14.0516 26.3967 12.15C27.7545 10.5667 28.7243 8.77975 28.932 6.62209C29.0335 5.56895 28.9254 4.53728 28.4542 3.57654C27.9431 2.53567 27.1305 1.76162 26.1589 1.22834C24.7439 0.452003 23.2169 0 21.6407 0H20.0617C18.1528 0 16.3074 0.572384 14.5136 1.25518C13.1558 1.77236 11.8244 2.3827 10.5319 3.05821C7.71698 4.53 5.09556 6.30466 2.94237 8.74486C1.86962 9.96056 0.961371 11.302 0.438919 12.8815C0.281232 13.3531 0.145393 13.8324 0.0318747 14.3177L0 15.0116ZM10.2314 28.1243C10.1094 29.8337 9.36897 31.2197 8.15883 32.3422C7.47811 32.9732 6.69736 33.4225 5.78801 33.5805C5.45827 33.6376 5.12084 33.6514 4.80099 33.5084C4.34486 33.3045 4.24264 32.8808 4.23384 32.4296C4.22029 31.7104 4.461 31.0602 4.7911 30.4414C5.22196 29.6348 5.85359 29.0198 6.52809 28.4455C7.59058 27.5404 8.7432 26.7744 9.92367 26.0513L10.0127 26.013C10.1952 26.7184 10.282 27.415 10.2314 28.1243V28.1243ZM19.4487 20.6948C19.3626 21.2407 19.2549 21.787 19.1025 22.3161C18.5756 24.1475 17.8989 25.9221 17.1673 27.673C17.0321 27.997 16.8354 28.2926 16.6643 28.5996C16.6351 28.6469 16.6003 28.6899 16.5606 28.7277C16.3488 28.9466 16.148 28.9351 16.041 28.6487C15.9165 28.3159 15.8399 27.9598 15.774 27.6075C15.7296 27.3709 15.7403 27.1225 15.7263 26.8802C15.7406 25.1573 16.2429 23.5916 17.0951 22.134C17.4465 21.5328 17.829 20.9601 18.4133 20.5798C18.5951 20.4615 18.7918 20.3704 18.9977 20.3091C19.3091 20.2175 19.5004 20.3681 19.4487 20.6948V20.6948ZM25.7372 29.0785L27.9974 26.317C28.0915 27.3425 26.4256 29.3898 25.7372 29.0785ZM32.9559 27.2203C32.7962 27.3161 32.6221 27.3851 32.4584 27.4737C32.3085 27.5549 32.2591 27.4729 32.2547 27.3379C32.2525 27.2445 32.2639 27.1513 32.2887 27.0615C32.5939 25.9352 33.1556 24.9737 33.9913 24.1916L34.0499 24.1601C34.4474 25.3237 33.988 26.6015 32.9559 27.2203Z" fill="white"/>
</svg>
