<svg width="40" height="40" viewBox="0 0 40 40" fill="none" xmlns="http://www.w3.org/2000/svg">
<path d="M40 4.80735C40 2.15243 37.8479 0.000366211 35.193 0.000366211H4.80698C2.15206 0.000366211 0 2.15243 0 4.80735V35.1931C0 37.8483 2.15206 40.0004 4.80698 40.0004H35.193C37.8479 40.0004 40 37.8483 40 35.1931V4.80735ZM18.0952 31.2829C18.0952 32.4915 17.0521 33.3337 15.8435 33.3337H7.16286C5.95429 33.3337 5.07937 32.4915 5.07937 31.2829V7.05751C5.07937 5.84862 5.95429 4.76227 7.16286 4.76227H15.8435C17.0521 4.76227 18.0952 5.84862 18.0952 7.05751V31.2829ZM35.5556 10.1858V20.3083C35.5556 21.5169 34.6235 22.54 33.4146 22.54H24.7384C23.5295 22.54 22.5397 21.5166 22.5397 20.3083V6.94195C22.5397 5.73306 23.5295 4.76227 24.7384 4.76227H33.4146C34.6235 4.76227 35.5556 5.73306 35.5556 6.94195V10.1858Z" fill="white"/>
</svg>
