<svg width="40" height="40" viewBox="0 0 40 40" fill="none" xmlns="http://www.w3.org/2000/svg">
<path d="M0 20V40H40V0H0V20ZM32.2336 18.4C33.1916 18.6223 34.0624 19.1234 34.736 19.84C35.1068 20.2261 35.4292 20.6559 35.696 21.12C35.696 21.1712 33.968 22.3392 32.9152 22.992C32.8768 23.0176 32.7232 22.8512 32.5536 22.5984C32.3614 22.2668 32.0883 21.9892 31.7599 21.7917C31.4314 21.5942 31.0582 21.4831 30.6752 21.4688C29.4624 21.3856 28.6816 22.0224 28.688 23.0688C28.678 23.3293 28.7376 23.5878 28.8608 23.8176C29.1264 24.3712 29.6224 24.7008 31.1776 25.3728C34.0416 26.6048 35.2672 27.4176 36.0288 28.5728C36.88 29.8528 37.0688 31.92 36.4928 33.4496C35.8528 35.1136 34.2848 36.2432 32.0672 36.6176C31.0544 36.7336 30.031 36.7229 29.0208 36.5856C27.4791 36.3355 26.0569 35.6014 24.96 34.4896C24.592 34.0832 23.8752 33.024 23.92 32.9472C24.0368 32.8605 24.1598 32.7824 24.288 32.7136L25.76 31.8688L26.9088 31.2032L27.1488 31.5584C27.5538 32.1378 28.0693 32.6315 28.6656 33.0112C29.9456 33.6832 31.6928 33.5904 32.5568 32.8128C32.8469 32.5279 33.0279 32.1502 33.0682 31.7456C33.1085 31.341 33.0057 30.935 32.7776 30.5984C32.4576 30.1536 31.8176 29.7792 30.0288 28.9984C27.9648 28.1088 27.0752 27.5584 26.2624 26.6816C25.755 26.103 25.3804 25.4204 25.1648 24.6816C25.004 23.8376 24.9802 22.9732 25.0944 22.1216C25.52 20.128 27.0144 18.736 29.1968 18.3232C30.2075 18.1981 31.2313 18.2262 32.2336 18.4064V18.4ZM22.8448 20.0768V21.7152H17.6512V36.5088H13.968V21.712H8.7616V20.112C8.74762 19.5612 8.76258 19.01 8.8064 18.4608C8.8256 18.4352 12.0064 18.4224 15.8464 18.4288H22.8256L22.8448 20.0768Z" fill="white"/>
</svg>
