<svg width="197" height="40" viewBox="0 0 197 40" fill="none" xmlns="http://www.w3.org/2000/svg">
<rect x="144" y="2" width="53" height="36" rx="2.4381" fill="url(#paint0_linear_18_105)"/>
<path d="M156.095 11.8248H161.386V26.7995H163.746V30H157.788V29.5328C157.368 29.7508 156.936 29.9221 156.492 30.0467C156.056 30.1713 155.612 30.2336 155.16 30.2336C154.234 30.2336 153.381 30.0701 152.602 29.743C151.831 29.4082 151.165 28.9526 150.605 28.3764C150.052 27.8001 149.62 27.1266 149.308 26.3556C148.997 25.5769 148.841 24.7437 148.841 23.856C148.841 22.9682 148.993 22.1428 149.297 21.3797C149.608 20.6087 150.036 19.939 150.581 19.3706C151.134 18.8021 151.792 18.3544 152.555 18.0273C153.326 17.7002 154.171 17.5367 155.09 17.5367C155.596 17.5367 156.071 17.5873 156.515 17.6886C156.959 17.782 157.383 17.9183 157.788 18.0974V15.0254H156.095V11.8248ZM155.359 27.0097C155.873 26.9942 156.336 26.8618 156.749 26.6126C157.169 26.3634 157.516 26.0364 157.788 25.6314V22.0688C157.516 21.6561 157.162 21.3368 156.725 21.111C156.297 20.8774 155.842 20.7645 155.359 20.7723C154.954 20.7645 154.572 20.8346 154.214 20.9825C153.864 21.1305 153.552 21.3407 153.28 21.6133C153.015 21.8858 152.805 22.2129 152.649 22.5944C152.493 22.976 152.415 23.4082 152.415 23.891C152.415 24.366 152.493 24.7982 152.649 25.1876C152.805 25.5691 153.015 25.8962 153.28 26.1687C153.552 26.4335 153.864 26.636 154.214 26.7761C154.572 26.9163 154.954 26.9942 155.359 27.0097ZM168.43 24.7086L168.465 25.0707C168.55 25.4212 168.694 25.7288 168.897 25.9935C169.107 26.2583 169.352 26.4802 169.633 26.6593C169.913 26.8384 170.224 26.9747 170.567 27.0681C170.91 27.1538 171.256 27.1966 171.607 27.1966C171.957 27.1966 172.288 27.1772 172.6 27.1382C172.919 27.0915 173.226 27.0331 173.522 26.963C173.818 26.8851 174.106 26.7995 174.387 26.706C174.667 26.6048 174.951 26.4997 175.239 26.3907L176.524 28.7852C176.08 29.0578 175.672 29.2914 175.298 29.486C174.932 29.6729 174.562 29.8287 174.188 29.9533C173.814 30.0779 173.417 30.1674 172.997 30.2219C172.576 30.2842 172.086 30.3154 171.525 30.3154C170.474 30.3154 169.539 30.1441 168.722 29.8014C167.904 29.451 167.215 28.9799 166.654 28.3881C166.101 27.7962 165.677 27.1032 165.381 26.3089C165.093 25.5146 164.949 24.6736 164.949 23.7859C164.949 22.8981 165.101 22.0649 165.404 21.2862C165.716 20.5075 166.152 19.83 166.712 19.2538C167.273 18.6697 167.943 18.2103 168.722 17.8754C169.5 17.5406 170.365 17.3732 171.315 17.3732C172.265 17.3732 173.106 17.5328 173.838 17.8521C174.577 18.1636 175.2 18.5996 175.707 19.1603C176.213 19.7132 176.602 20.3673 176.875 21.1227C177.147 21.8702 177.295 22.6762 177.319 23.5406C177.342 23.7353 177.354 23.9299 177.354 24.1246C177.361 24.3115 177.357 24.5062 177.342 24.7086H168.43ZM171.221 20.2933C170.785 20.2933 170.411 20.3479 170.1 20.4569C169.796 20.5581 169.539 20.7022 169.329 20.8891C169.119 21.0682 168.951 21.2745 168.827 21.5081C168.702 21.7418 168.605 21.987 168.535 22.244H173.592C173.538 21.9793 173.46 21.7301 173.359 21.4965C173.258 21.2628 173.117 21.0565 172.938 20.8774C172.759 20.6983 172.529 20.5581 172.249 20.4569C171.977 20.3479 171.634 20.2933 171.221 20.2933ZM178.685 17.8988H185.004V21.0993H183.533L185.507 26.2972L187.411 21.0993H186.102V17.8988H192.422V21.0993H190.81L187.2 30.0467H183.638L180.028 21.0993H178.685V17.8988Z" fill="black"/>
<path d="M56.3199 26.4246H58.1304V15.1294H56.3199V11.8938L64.9519 11.9172C65.754 11.9172 66.486 12.0613 67.1479 12.3494C67.8176 12.6297 68.3939 13.0152 68.8767 13.5058C69.3595 13.9886 69.7332 14.557 69.998 15.2112C70.2706 15.8575 70.4068 16.5466 70.4068 17.2786C70.4068 18.1352 70.255 18.8438 69.9513 19.4045C69.6554 19.9652 69.231 20.4168 68.6781 20.7595C69.2621 21.1333 69.7216 21.5966 70.0564 22.1495C70.399 22.6946 70.5704 23.3604 70.5704 24.1469C70.5704 24.949 70.4302 25.6848 70.1499 26.3545C69.8773 27.0242 69.4996 27.6044 69.0168 28.095C68.5418 28.5778 67.9772 28.9554 67.3231 29.228C66.669 29.4927 65.9643 29.6251 65.2089 29.6251H56.3199V26.4246ZM62.0084 22.3013V26.4246H64.9519C65.1778 26.4246 65.388 26.3662 65.5827 26.2494C65.7852 26.1326 65.9565 25.9807 66.0967 25.7939C66.2446 25.5992 66.3614 25.3772 66.4471 25.1281C66.5327 24.8711 66.5756 24.6063 66.5756 24.3338C66.5756 24.0456 66.5327 23.7809 66.4471 23.5395C66.3614 23.2903 66.2446 23.0761 66.0967 22.897C65.9487 22.7102 65.7735 22.5661 65.571 22.4649C65.3763 22.3558 65.17 22.3013 64.9519 22.3013H62.0084ZM62.0084 15.1294V19.1008H64.7884C65.0065 19.1008 65.2128 19.0463 65.4075 18.9373C65.6022 18.8283 65.7696 18.6842 65.9098 18.5051C66.0577 18.3182 66.1745 18.1119 66.2602 17.886C66.3458 17.6524 66.3887 17.411 66.3887 17.1618C66.3887 16.9204 66.3458 16.679 66.2602 16.4376C66.1745 16.1962 66.0577 15.9782 65.9098 15.7835C65.7696 15.5888 65.6022 15.4331 65.4075 15.3163C65.2128 15.1917 65.0065 15.1294 64.7884 15.1294H62.0084ZM79.5645 28.971C79.2919 29.1423 79.0428 29.2903 78.8169 29.4149C78.5911 29.5317 78.3653 29.6251 78.1394 29.6952C77.9136 29.7731 77.68 29.8276 77.4386 29.8587C77.1972 29.8977 76.9324 29.9171 76.6443 29.9171C75.9201 29.9171 75.2699 29.8198 74.6936 29.6251C74.1252 29.4227 73.6424 29.1501 73.2452 28.8075C72.8559 28.4571 72.5561 28.0482 72.3458 27.581C72.1356 27.106 72.0304 26.592 72.0304 26.0392C72.0304 25.4785 72.1356 24.9606 72.3458 24.4856C72.5639 24.0106 72.8753 23.6057 73.2803 23.2708C73.6852 22.9282 74.1797 22.6634 74.7637 22.4765C75.3555 22.2819 76.0291 22.1845 76.7845 22.1845C77.3374 22.1845 77.8396 22.2157 78.2913 22.278C78.7507 22.3325 79.1751 22.4026 79.5645 22.4882V22.1144C79.5645 21.8107 79.5061 21.5499 79.3893 21.3318C79.2725 21.106 79.1089 20.923 78.8987 20.7828C78.6884 20.6349 78.4354 20.5298 78.1394 20.4675C77.8435 20.3974 77.5204 20.3623 77.1699 20.3623C76.438 20.3623 75.7916 20.4363 75.231 20.5843C74.6781 20.7244 74.1447 20.9308 73.6307 21.2033L72.5094 18.9373C73.3036 18.3922 74.133 17.9756 74.9973 17.6875C75.8695 17.3993 76.7923 17.2553 77.7657 17.2553C78.521 17.2553 79.218 17.3409 79.8565 17.5122C80.5028 17.6758 81.0557 17.9483 81.5152 18.3299C81.9746 18.7037 82.3328 19.1943 82.5898 19.8017C82.8546 20.4091 82.9869 21.1488 82.9869 22.021V26.4246H84.6105V29.6251H79.5645V28.971ZM76.9013 27.1605C77.4542 27.1605 77.9564 27.0709 78.4081 26.8918C78.8598 26.7127 79.2452 26.4947 79.5645 26.2377V24.6959H76.7611C76.582 24.6959 76.4068 24.7231 76.2355 24.7776C76.0642 24.8321 75.9084 24.91 75.7683 25.0112C75.6359 25.1125 75.5269 25.2371 75.4412 25.385C75.3633 25.533 75.3244 25.7043 75.3244 25.899C75.3244 26.2572 75.4529 26.557 75.7099 26.7984C75.9746 27.0398 76.3718 27.1605 76.9013 27.1605ZM98.055 21.9275H94.7727V20.6777C94.4535 20.6777 94.1615 20.7011 93.8967 20.7478C93.6319 20.7867 93.3983 20.8568 93.1959 20.9581C93.0012 21.0593 92.8338 21.1995 92.6936 21.3786C92.5612 21.5577 92.4678 21.7796 92.4132 22.0444V26.4246H94.8779V29.6251H86.9817V26.4246H88.7922V20.7244H87.0051V17.5239H92.3899V18.3766C92.7325 18.1041 93.118 17.8938 93.5463 17.7459C93.9746 17.5979 94.4418 17.5239 94.948 17.5239C95.4619 17.5239 95.9914 17.5278 96.5365 17.5356C97.0816 17.5434 97.5878 17.5473 98.055 17.5473V21.9275ZM111.021 21.9275H107.738V20.6777C107.419 20.6777 107.127 20.7011 106.862 20.7478C106.598 20.7867 106.364 20.8568 106.161 20.9581C105.967 21.0593 105.799 21.1995 105.659 21.3786C105.527 21.5577 105.433 21.7796 105.379 22.0444V26.4246H107.843V29.6251H99.9473V26.4246H101.758V20.7244H99.9707V17.5239H105.355V18.3766C105.698 18.1041 106.084 17.8938 106.512 17.7459C106.94 17.5979 107.407 17.5239 107.914 17.5239C108.427 17.5239 108.957 17.5278 109.502 17.5356C110.047 17.5434 110.553 17.5473 111.021 17.5473V21.9275ZM112.913 23.5278C112.913 22.6479 113.072 21.8224 113.392 21.0515C113.711 20.2806 114.155 19.607 114.723 19.0307C115.292 18.4545 115.969 17.9989 116.756 17.6641C117.542 17.3292 118.407 17.1618 119.349 17.1618C120.291 17.1618 121.156 17.3292 121.942 17.6641C122.736 17.9989 123.418 18.4545 123.986 19.0307C124.555 19.607 124.995 20.2806 125.306 21.0515C125.625 21.8224 125.785 22.6479 125.785 23.5278C125.785 24.4077 125.629 25.2371 125.318 26.0158C125.014 26.7867 124.578 27.4642 124.01 28.0482C123.449 28.6245 122.771 29.08 121.977 29.4149C121.191 29.7497 120.315 29.9171 119.349 29.9171C118.376 29.9171 117.492 29.7497 116.697 29.4149C115.911 29.08 115.237 28.6245 114.677 28.0482C114.116 27.472 113.68 26.7984 113.368 26.0275C113.065 25.2488 112.913 24.4155 112.913 23.5278ZM116.405 23.5278C116.405 23.9872 116.483 24.4116 116.639 24.801C116.795 25.1826 117.005 25.5135 117.27 25.7939C117.542 26.0742 117.854 26.2922 118.204 26.448C118.562 26.6037 118.944 26.6816 119.349 26.6816C119.762 26.6816 120.143 26.6076 120.494 26.4597C120.852 26.3039 121.159 26.0859 121.416 25.8055C121.681 25.5252 121.888 25.1942 122.035 24.8127C122.183 24.4233 122.257 23.995 122.257 23.5278C122.257 23.045 122.183 22.6089 122.035 22.2196C121.888 21.8302 121.681 21.4993 121.416 21.2267C121.159 20.9542 120.852 20.7478 120.494 20.6076C120.143 20.4597 119.762 20.3896 119.349 20.3974C118.944 20.3896 118.562 20.4597 118.204 20.6076C117.854 20.7478 117.542 20.9542 117.27 21.2267C117.005 21.4993 116.795 21.8302 116.639 22.2196C116.483 22.6089 116.405 23.045 116.405 23.5278ZM135.281 21.2267C135.281 21.0398 135.219 20.8607 135.094 20.6894C134.978 20.5181 134.802 20.3701 134.569 20.2455C134.335 20.1131 134.047 20.008 133.704 19.9301C133.37 19.8523 132.988 19.8133 132.56 19.8133C132.396 19.8133 132.221 19.8289 132.034 19.8601C131.847 19.8834 131.672 19.9301 131.509 20.0002C131.353 20.0703 131.22 20.1677 131.111 20.2923C131.01 20.4091 130.96 20.5609 130.96 20.7478C130.96 20.8412 130.971 20.9308 130.995 21.0165C131.026 21.1021 131.08 21.1839 131.158 21.2617C131.236 21.3396 131.341 21.4136 131.473 21.4837C131.614 21.546 131.793 21.5966 132.011 21.6355L134.207 22.0677C135.001 22.2235 135.667 22.4181 136.204 22.6518C136.741 22.8854 137.174 23.1579 137.501 23.4694C137.828 23.7809 138.061 24.1274 138.202 24.509C138.35 24.8905 138.423 25.3033 138.423 25.7471C138.423 26.4402 138.26 27.0476 137.933 27.5693C137.614 28.0911 137.189 28.5271 136.66 28.8776C136.138 29.2202 135.546 29.4772 134.884 29.6485C134.23 29.8276 133.568 29.9171 132.899 29.9171C132.462 29.9171 132.065 29.8899 131.707 29.8354C131.357 29.7809 131.037 29.7069 130.749 29.6134C130.469 29.52 130.216 29.411 129.99 29.2864C129.772 29.154 129.57 29.0099 129.383 28.8542H127.268V25.607H130.574V25.677C130.582 25.9029 130.652 26.1014 130.784 26.2728C130.917 26.4363 131.088 26.5765 131.298 26.6933C131.516 26.8101 131.762 26.8996 132.034 26.9619C132.307 27.0164 132.595 27.0437 132.899 27.0437C133.599 27.0437 134.109 26.9541 134.429 26.775C134.748 26.5881 134.908 26.3506 134.908 26.0625C134.908 25.8367 134.83 25.6459 134.674 25.4902C134.518 25.3266 134.242 25.1981 133.845 25.1047L131.602 24.6258C130.192 24.3532 129.13 23.9016 128.413 23.2708C127.697 22.6323 127.339 21.8146 127.339 20.8179C127.339 20.2338 127.475 19.7043 127.747 19.2293C128.02 18.7465 128.39 18.3377 128.857 18.0028C129.324 17.6602 129.869 17.3954 130.492 17.2085C131.123 17.0217 131.797 16.9282 132.513 16.9282C133.004 16.9282 133.44 16.9594 133.821 17.0217C134.203 17.0762 134.545 17.1501 134.849 17.2436C135.153 17.337 135.418 17.4499 135.643 17.5823C135.877 17.7069 136.083 17.8393 136.263 17.9795H138.295V21.2267H135.281Z" fill="white"/>
<path fill-rule="evenodd" clip-rule="evenodd" d="M36.2071 33.4165L40 37.2093L37.2093 40L32.9141 35.7048L29.7244 33.8638C27.6751 36.395 24.7456 38.0591 21.522 38.5232V24.3127L21.0778 23.8685H17.8255V38.525C14.6016 38.0605 11.672 36.3957 9.62302 33.8638L4.95437 36.5585L3.10614 33.3573L7.72673 30.6903C7.07065 29.1143 6.73392 27.4238 6.73607 25.7167H1.19137V22.0203H6.73607V20.172C6.73607 18.9836 6.89687 17.834 7.19628 16.7417L3.10614 14.3797L4.95437 11.1785L8.68781 13.3336C8.80564 13.1456 8.92828 12.9607 9.05561 12.7791H9.98834L2.65503e-06 2.79074L2.7907 3.95208e-05L15.5697 12.7791H15.7731L32.1495 29.1555C32.135 29.2085 32.12 29.2614 32.1048 29.3141L36.0204 33.2297L36.2413 33.3573L36.2071 33.4165ZM38.1561 25.7167H32.7902L19.8525 12.7791H30.2918C30.4194 12.9602 30.5413 13.1469 30.6596 13.3336L34.3931 11.1785L36.2413 14.3797L32.1512 16.7417C32.4506 17.8322 32.6114 18.9836 32.6114 20.172V22.0203H38.1561V25.7167ZM27.0667 9.08261H16.1561L12.9921 5.91859C13.3515 5.15954 13.8409 4.46021 14.4461 3.85501C15.8326 2.46856 17.713 1.68967 19.6737 1.68967C21.6345 1.68967 23.5149 2.46856 24.9013 3.85501C26.2878 5.24146 27.0667 7.12188 27.0667 9.08261Z" fill="url(#paint1_linear_18_105)"/>
<defs>
<linearGradient id="paint0_linear_18_105" x1="144" y1="38" x2="177.466" y2="-11.2687" gradientUnits="userSpaceOnUse">
<stop stop-color="#4070F4"/>
<stop offset="1" stop-color="#2BD67B"/>
</linearGradient>
<linearGradient id="paint1_linear_18_105" x1="0" y1="40" x2="40" y2="0" gradientUnits="userSpaceOnUse">
<stop stop-color="#4070F4"/>
<stop offset="1" stop-color="#2BD67B"/>
</linearGradient>
</defs>
</svg>
