<svg width="292" height="67" viewBox="0 0 292 67" fill="none" xmlns="http://www.w3.org/2000/svg">
<path fill-rule="evenodd" clip-rule="evenodd" d="M33.4864 66.9729C51.9805 66.9729 66.9729 51.9805 66.9729 33.4864C66.9729 14.9924 51.9805 0 33.4864 0C14.9924 0 0 14.9924 0 33.4864C0 51.9805 14.9924 66.9729 33.4864 66.9729ZM53.443 50.6113L49.5942 46.7625L49.6289 46.7024L49.4045 46.5728L45.4314 42.5997C45.4469 42.5461 45.4621 42.4923 45.4769 42.4384L28.8594 25.8208H28.6526L15.6852 12.8535L12.8534 15.6853L22.9889 25.8208H22.0425C21.9133 26.0052 21.7889 26.1928 21.6693 26.3835L17.8808 24.1967L16.0054 27.445L20.1558 29.8419C19.852 30.9503 19.6888 32.1168 19.6888 33.3228V35.1982H14.0624V38.9492H19.6888C19.6866 40.6814 20.0283 42.3969 20.6941 43.9961L16.0054 46.7024L17.8808 49.9508L22.6183 47.2163C24.6975 49.7856 27.6703 51.4749 30.9417 51.9463V37.0737H34.2418L34.6926 37.5246V51.9444C37.9638 51.4735 40.9365 49.7849 43.016 47.2163L46.2524 49.0843L50.6112 53.4431L53.443 50.6113ZM46.1273 38.9492H51.5719V35.1982H45.9455V33.3228C45.9455 32.1168 45.7823 30.9484 45.4785 29.8419L49.6289 27.445L47.7535 24.1967L43.965 26.3835C43.845 26.1941 43.7212 26.0046 43.5918 25.8208H32.999L46.1273 38.9492ZM29.248 22.0699H40.3191C40.3191 20.0803 39.5287 18.1721 38.1218 16.7652C36.7149 15.3584 34.8068 14.568 32.8172 14.568C30.8275 14.568 28.9194 15.3584 27.5125 16.7652C26.8984 17.3793 26.4018 18.0888 26.0371 18.859L29.248 22.0699Z" fill="white"/>
<path fill-rule="evenodd" clip-rule="evenodd" d="M220.306 7.21094C218.399 7.21094 216.852 8.75733 216.852 10.6649V54.757C216.852 56.6645 218.399 58.2109 220.306 58.2109H288.482C290.389 58.2109 291.936 56.6645 291.936 54.757V10.6649C291.936 8.75733 290.389 7.21094 288.482 7.21094H220.306ZM241.483 20.1296H233.987V24.6636H236.386V29.0156C235.812 28.7619 235.211 28.5689 234.582 28.4365C233.953 28.2931 233.281 28.2214 232.563 28.2214C231.262 28.2214 230.065 28.453 228.973 28.9164C227.892 29.3797 226.959 30.014 226.176 30.8193C225.404 31.6246 224.797 32.5734 224.356 33.6655C223.926 34.7466 223.71 35.916 223.71 37.1736C223.71 38.4312 223.931 39.6116 224.372 40.7148C224.814 41.807 225.426 42.7612 226.209 43.5776C227.003 44.3939 227.947 45.0393 229.039 45.5136C230.142 45.977 231.35 46.2086 232.663 46.2086C233.303 46.2086 233.931 46.1204 234.549 45.9439C235.178 45.7674 235.79 45.5247 236.386 45.2158V45.8777H244.825V41.3436H241.483V20.1296ZM234.913 41.0789C234.329 41.4319 233.672 41.6194 232.944 41.6415C232.37 41.6194 231.83 41.5091 231.322 41.3105C230.826 41.112 230.385 40.8251 229.999 40.4501C229.623 40.0639 229.326 39.6006 229.105 39.0601C228.884 38.5085 228.774 37.8962 228.774 37.2233C228.774 36.5393 228.884 35.927 229.105 35.3865C229.326 34.8459 229.623 34.3826 229.999 33.9965C230.385 33.6104 230.826 33.3125 231.322 33.1029C231.83 32.8933 232.37 32.794 232.944 32.805C233.628 32.794 234.273 32.954 234.88 33.2849C235.498 33.6049 236 34.0572 236.386 34.6418V39.6889C236 40.2625 235.509 40.7259 234.913 41.0789ZM251.511 38.8946L251.461 38.3816H264.087C264.109 38.0948 264.114 37.819 264.103 37.5542C264.103 37.2784 264.087 37.0026 264.054 36.7268C264.021 35.5023 263.811 34.3605 263.425 33.3015C263.039 32.2314 262.487 31.3047 261.77 30.5215C261.053 29.7272 260.17 29.1094 259.122 28.6681C258.085 28.2158 256.894 27.9897 255.548 27.9897C254.202 27.9897 252.978 28.2269 251.875 28.7012C250.771 29.1756 249.823 29.8265 249.028 30.6539C248.234 31.4702 247.616 32.43 247.175 33.5331C246.745 34.6363 246.53 35.8167 246.53 37.0743C246.53 38.332 246.734 39.5234 247.142 40.6486C247.561 41.7739 248.162 42.7557 248.946 43.5941C249.74 44.4325 250.716 45.0999 251.875 45.5964C253.033 46.0818 254.357 46.3245 255.846 46.3245C256.64 46.3245 257.335 46.2803 257.931 46.1921C258.527 46.1149 259.089 45.988 259.619 45.8115C260.148 45.635 260.672 45.4144 261.191 45.1496C261.72 44.8738 262.3 44.5428 262.928 44.1567L261.108 40.7645C260.7 40.9189 260.297 41.0678 259.9 41.2113C259.503 41.3436 259.095 41.465 258.676 41.5753C258.256 41.6746 257.821 41.7573 257.368 41.8235C256.927 41.8787 256.458 41.9062 255.962 41.9062C255.465 41.9062 254.974 41.8456 254.489 41.7242C254.004 41.5918 253.562 41.3988 253.165 41.1451C252.768 40.8913 252.421 40.5769 252.123 40.2018C251.836 39.8268 251.632 39.391 251.511 38.8946ZM253.827 32.3583C254.268 32.2038 254.798 32.1266 255.416 32.1266C256 32.1266 256.486 32.2038 256.872 32.3583C257.269 32.5017 257.595 32.7002 257.848 32.954C258.102 33.2077 258.301 33.5 258.444 33.831C258.587 34.162 258.698 34.515 258.775 34.8901H251.61C251.709 34.526 251.847 34.1785 252.023 33.8475C252.2 33.5166 252.437 33.2243 252.735 32.9705C253.033 32.7058 253.397 32.5017 253.827 32.3583ZM274.942 28.7343H265.99V33.2684H267.893L273.006 45.9439H278.053L283.166 33.2684H285.45V28.7343H276.497V33.2684H278.351L275.654 40.6321L272.857 33.2684H274.942V28.7343Z" fill="white"/>
<path d="M92.6389 40.8124H95.2038V24.8108H92.6389V20.2271L104.868 20.2602C106.004 20.2602 107.041 20.4643 107.979 20.8725C108.927 21.2696 109.744 21.8157 110.428 22.5107C111.112 23.1947 111.641 24 112.016 24.9266C112.402 25.8423 112.595 26.8186 112.595 27.8556C112.595 29.0691 112.38 30.073 111.95 30.8672C111.531 31.6615 110.93 32.3014 110.146 32.7868C110.974 33.3163 111.625 33.9727 112.099 34.7559C112.584 35.5282 112.827 36.4714 112.827 37.5856C112.827 38.7219 112.628 39.7644 112.231 40.7131C111.845 41.6618 111.31 42.4837 110.626 43.1787C109.953 43.8627 109.153 44.3977 108.227 44.7838C107.3 45.1589 106.302 45.3464 105.232 45.3464H92.6389V40.8124ZM100.698 34.9711V40.8124H104.868C105.188 40.8124 105.485 40.7296 105.761 40.5642C106.048 40.3987 106.291 40.1836 106.489 39.9188C106.699 39.643 106.864 39.3286 106.986 38.9756C107.107 38.6115 107.168 38.2365 107.168 37.8504C107.168 37.4422 107.107 37.0671 106.986 36.7251C106.864 36.3721 106.699 36.0687 106.489 35.815C106.28 35.5502 106.031 35.3461 105.745 35.2027C105.469 35.0483 105.177 34.9711 104.868 34.9711H100.698ZM100.698 24.8108V30.437H104.636C104.945 30.437 105.237 30.3598 105.513 30.2053C105.789 30.0509 106.026 29.8468 106.225 29.5931C106.434 29.3283 106.6 29.036 106.721 28.7161C106.842 28.3851 106.903 28.0431 106.903 27.6901C106.903 27.3481 106.842 27.0061 106.721 26.6641C106.6 26.3222 106.434 26.0133 106.225 25.7375C106.026 25.4617 105.789 25.241 105.513 25.0756C105.237 24.8991 104.945 24.8108 104.636 24.8108H100.698ZM125.569 44.4198C125.183 44.6625 124.83 44.8721 124.51 45.0486C124.19 45.2141 123.87 45.3464 123.55 45.4457C123.23 45.556 122.899 45.6333 122.557 45.6774C122.215 45.7325 121.84 45.7601 121.432 45.7601C120.406 45.7601 119.485 45.6222 118.668 45.3464C117.863 45.0596 117.179 44.6735 116.616 44.1881C116.065 43.6917 115.64 43.1125 115.342 42.4506C115.044 41.7777 114.896 41.0496 114.896 40.2663C114.896 39.472 115.044 38.7384 115.342 38.0655C115.651 37.3925 116.092 36.8189 116.666 36.3445C117.24 35.8591 117.94 35.484 118.768 35.2193C119.606 34.9435 120.56 34.8056 121.63 34.8056C122.414 34.8056 123.125 34.8497 123.765 34.938C124.416 35.0152 125.017 35.1145 125.569 35.2358V34.7063C125.569 34.2761 125.486 33.9065 125.321 33.5976C125.155 33.2777 124.923 33.0184 124.626 32.8199C124.328 32.6103 123.969 32.4613 123.55 32.3731C123.131 32.2738 122.673 32.2242 122.176 32.2242C121.139 32.2242 120.224 32.329 119.43 32.5386C118.646 32.7371 117.891 33.0295 117.163 33.4156L115.574 30.2053C116.699 29.4331 117.874 28.8429 119.099 28.4347C120.334 28.0266 121.641 27.8225 123.02 27.8225C124.09 27.8225 125.078 27.9438 125.982 28.1865C126.898 28.4182 127.681 28.8043 128.332 29.3449C128.983 29.8744 129.491 30.5694 129.855 31.4299C130.23 32.2903 130.417 33.3384 130.417 34.5739V40.8124H132.717V45.3464H125.569V44.4198ZM121.796 41.8549C122.579 41.8549 123.291 41.728 123.931 41.4743C124.57 41.2206 125.116 40.9117 125.569 40.5476V38.3633H121.597C121.344 38.3633 121.095 38.4019 120.853 38.4792C120.61 38.5564 120.389 38.6667 120.191 38.8101C120.003 38.9535 119.849 39.13 119.727 39.3396C119.617 39.5492 119.562 39.7919 119.562 40.0677C119.562 40.5752 119.744 40.9999 120.108 41.3419C120.483 41.6839 121.046 41.8549 121.796 41.8549ZM151.764 34.4415H147.114V32.6709C146.661 32.6709 146.248 32.704 145.873 32.7702C145.498 32.8254 145.167 32.9247 144.88 33.0681C144.604 33.2115 144.367 33.4101 144.168 33.6638C143.981 33.9175 143.848 34.2319 143.771 34.607V40.8124H147.263V45.3464H136.076V40.8124H138.641V32.7371H136.11V28.2031H143.738V29.4111C144.223 29.0249 144.77 28.7271 145.376 28.5175C145.983 28.3079 146.645 28.2031 147.362 28.2031C148.09 28.2031 148.84 28.2086 149.612 28.2196C150.385 28.2307 151.102 28.2362 151.764 28.2362V34.4415ZM170.132 34.4415H165.482V32.6709C165.029 32.6709 164.616 32.704 164.241 32.7702C163.865 32.8254 163.535 32.9247 163.248 33.0681C162.972 33.2115 162.735 33.4101 162.536 33.6638C162.349 33.9175 162.216 34.2319 162.139 34.607V40.8124H165.631V45.3464H154.444V40.8124H157.009V32.7371H154.477V28.2031H162.106V29.4111C162.591 29.0249 163.137 28.7271 163.744 28.5175C164.351 28.3079 165.013 28.2031 165.73 28.2031C166.458 28.2031 167.208 28.2086 167.98 28.2196C168.753 28.2307 169.47 28.2362 170.132 28.2362V34.4415ZM172.812 36.7086C172.812 35.462 173.038 34.2926 173.491 33.2005C173.943 32.1083 174.572 31.1541 175.377 30.3377C176.182 29.5214 177.142 28.876 178.256 28.4016C179.371 27.9273 180.595 27.6901 181.93 27.6901C183.265 27.6901 184.489 27.9273 185.604 28.4016C186.729 28.876 187.694 29.5214 188.499 30.3377C189.305 31.1541 189.928 32.1083 190.369 33.2005C190.822 34.2926 191.048 35.462 191.048 36.7086C191.048 37.9552 190.827 39.13 190.386 40.2332C189.956 41.3254 189.338 42.2851 188.533 43.1125C187.738 43.9289 186.778 44.5742 185.653 45.0486C184.539 45.5229 183.298 45.7601 181.93 45.7601C180.551 45.7601 179.299 45.5229 178.174 45.0486C177.059 44.5742 176.105 43.9289 175.311 43.1125C174.517 42.2962 173.899 41.3419 173.458 40.2498C173.027 39.1466 172.812 37.9662 172.812 36.7086ZM177.76 36.7086C177.76 37.3594 177.87 37.9607 178.091 38.5123C178.312 39.0528 178.609 39.5217 178.985 39.9188C179.371 40.316 179.812 40.6248 180.308 40.8455C180.816 41.0661 181.356 41.1764 181.93 41.1764C182.515 41.1764 183.055 41.0716 183.552 40.862C184.059 40.6414 184.495 40.3325 184.859 39.9354C185.234 39.5382 185.526 39.0694 185.736 38.5288C185.946 37.9772 186.05 37.3705 186.05 36.7086C186.05 36.0246 185.946 35.4068 185.736 34.8552C185.526 34.3036 185.234 33.8348 184.859 33.4487C184.495 33.0626 184.059 32.7702 183.552 32.5717C183.055 32.3621 182.515 32.2628 181.93 32.2738C181.356 32.2628 180.816 32.3621 180.308 32.5717C179.812 32.7702 179.371 33.0626 178.985 33.4487C178.609 33.8348 178.312 34.3036 178.091 34.8552C177.87 35.4068 177.76 36.0246 177.76 36.7086ZM204.501 33.4487C204.501 33.1839 204.413 32.9302 204.236 32.6875C204.071 32.4448 203.823 32.2352 203.492 32.0587C203.161 31.8711 202.752 31.7222 202.267 31.6119C201.793 31.5016 201.252 31.4464 200.645 31.4464C200.414 31.4464 200.166 31.4685 199.901 31.5126C199.636 31.5457 199.388 31.6119 199.156 31.7112C198.935 31.8105 198.748 31.9484 198.593 32.1249C198.45 32.2903 198.378 32.5055 198.378 32.7702C198.378 32.9026 198.395 33.0295 198.428 33.1508C198.472 33.2722 198.549 33.388 198.66 33.4983C198.77 33.6086 198.919 33.7134 199.106 33.8127C199.305 33.901 199.559 33.9727 199.868 34.0278L202.979 34.6401C204.104 34.8607 205.047 35.1365 205.808 35.4675C206.569 35.7984 207.182 36.1846 207.645 36.6258C208.108 37.0671 208.439 37.558 208.638 38.0986C208.848 38.6391 208.952 39.2238 208.952 39.8526C208.952 40.8344 208.721 41.6949 208.257 42.4341C207.805 43.1732 207.204 43.791 206.454 44.2874C205.714 44.7728 204.876 45.1368 203.938 45.3795C203.012 45.6333 202.074 45.7601 201.125 45.7601C200.507 45.7601 199.945 45.7215 199.437 45.6443C198.941 45.5671 198.489 45.4623 198.081 45.3299C197.683 45.1975 197.325 45.0431 197.005 44.8666C196.696 44.679 196.409 44.4749 196.144 44.2543H193.149V39.654H197.832V39.7533C197.843 40.0733 197.943 40.3546 198.13 40.5973C198.318 40.8289 198.56 41.0275 198.858 41.193C199.167 41.3585 199.515 41.4853 199.901 41.5736C200.287 41.6508 200.695 41.6894 201.125 41.6894C202.118 41.6894 202.841 41.5625 203.293 41.3088C203.745 41.044 203.971 40.7076 203.971 40.2994C203.971 39.9795 203.861 39.7092 203.641 39.4886C203.42 39.2569 203.028 39.0749 202.466 38.9425L199.288 38.264C197.292 37.8779 195.786 37.2381 194.771 36.3445C193.756 35.4399 193.249 34.2816 193.249 32.8695C193.249 32.0421 193.442 31.292 193.828 30.619C194.214 29.9351 194.738 29.3559 195.4 28.8815C196.062 28.3961 196.834 28.0211 197.716 27.7563C198.61 27.4915 199.564 27.3591 200.579 27.3591C201.274 27.3591 201.892 27.4033 202.433 27.4915C202.973 27.5688 203.458 27.6736 203.889 27.8059C204.319 27.9383 204.694 28.0983 205.014 28.2858C205.345 28.4623 205.637 28.6499 205.891 28.8484H208.77V33.4487H204.501Z" fill="white"/>
</svg>
