<svg width="91" height="91" viewBox="0 0 91 91" fill="none" xmlns="http://www.w3.org/2000/svg">
<circle cx="45.6232" cy="45.3673" r="44.6486" fill="url(#paint0_linear_284_47)"/>
<path fill-rule="evenodd" clip-rule="evenodd" d="M67.1003 63.0685L72.2319 68.2001L68.4561 71.9759L62.6448 66.1646L58.3292 63.6737C55.5565 67.0984 51.5929 69.3499 47.2314 69.9778V50.7512L46.6304 50.1502H42.2301V69.9803C37.8683 69.3518 33.9046 67.0993 31.1323 63.6737L24.8157 67.3196L22.315 62.9885L28.5666 59.3801C27.679 57.2478 27.2234 54.9605 27.2263 52.6508H19.7244V47.6496H27.2263V45.1489C27.2263 43.541 27.4439 41.9856 27.849 40.5077L22.315 37.3119L24.8157 32.9808L29.867 35.8966C30.0264 35.6423 30.1923 35.3921 30.3646 35.1464H31.6266L18.1124 21.6322L21.8882 17.8564L39.1781 35.1464H39.4539L61.6105 57.303C61.5907 57.3749 61.5705 57.4466 61.5498 57.5181L66.8476 62.8159L67.1465 62.9885L67.1003 63.0685ZM69.7372 52.6508H62.4777L44.9733 35.1464H59.0969C59.2695 35.3914 59.4345 35.644 59.5946 35.8966L64.6459 32.9808L67.1465 37.3119L61.6126 40.5077C62.0177 41.9831 62.2352 43.541 62.2352 45.1489V47.6496H69.7372V52.6508ZM35.6907 25.8638L39.972 30.1451H54.7333C54.7333 27.4923 53.6795 24.9481 51.8036 23.0722C49.9278 21.1964 47.3836 20.1425 44.7308 20.1425C42.0779 20.1425 39.5337 21.1964 37.6579 23.0722C36.8392 23.891 36.177 24.837 35.6907 25.8638Z" fill="black"/>
<defs>
<linearGradient id="paint0_linear_284_47" x1="0.974609" y1="90.0159" x2="90.2717" y2="0.71875" gradientUnits="userSpaceOnUse">
<stop stop-color="#4070F4"/>
<stop offset="1" stop-color="#2BD67B"/>
</linearGradient>
</defs>
</svg>
