<svg width="160" height="160" viewBox="0 0 160 160" fill="none" xmlns="http://www.w3.org/2000/svg">
<path d="M143.668 128.445L142.876 127.839C153.419 113.996 158.993 97.459 158.993 80.0086C158.993 52.9752 145.393 28.1046 122.61 13.4786L123.151 12.6396C146.222 27.4427 159.991 52.6303 159.991 80.0086C159.991 97.6735 154.342 114.425 143.668 128.445Z" fill="url(#paint0_linear_284_22)"/>
<path d="M80 160C35.8891 160 0 124.111 0 80C0 35.8891 35.8891 0 80 0V0.997429C36.4391 0.997429 1.00676 36.439 1.00676 79.9907C1.00676 123.552 36.4484 158.984 80 158.984C93.1624 158.984 106.194 155.684 117.679 149.438L118.154 150.315C106.521 156.663 93.3209 160 80 160Z" fill="url(#paint1_linear_284_22)"/>
<path d="M42.1441 141.58C20.592 128.305 7.72791 105.28 7.72791 79.9995H9.73209C9.73209 104.581 22.242 126.963 43.1975 139.874L42.1441 141.58Z" fill="url(#paint2_linear_284_22)"/>
<path d="M80 152.281C72.0764 152.281 64.2927 151.004 56.8539 148.496L57.4971 146.604C64.7308 149.046 72.3001 150.286 80.0093 150.286C116.206 150.286 146.269 123.169 149.914 87.2051L151.909 87.4102C148.143 124.381 117.231 152.281 80 152.281Z" fill="url(#paint3_linear_284_22)"/>
<path d="M149.373 68.7761C146.754 52.4723 138.383 37.5294 125.789 26.7067C113.065 15.7629 96.798 9.74097 80 9.74097C66.4367 9.74097 53.2743 13.6095 41.9296 20.9365C28.7113 29.4753 18.625 42.3394 13.526 57.1611L11.6337 56.5086C16.8725 41.2674 27.2477 28.0397 40.839 19.2586C52.5099 11.7265 66.0452 7.74609 79.9907 7.74609C97.2734 7.74609 113.997 13.9451 127.085 25.1966C140.033 36.3268 148.646 51.6986 151.34 68.4685L149.373 68.7761Z" fill="url(#paint4_linear_284_22)"/>
<path d="M80 132.202C51.2142 132.202 27.7977 108.786 27.7977 79.9997C27.7977 68.3474 31.5544 57.329 38.6483 48.1377L40.2331 49.3589C33.4095 58.2053 29.8019 68.7949 29.8019 79.9997C29.8019 107.676 52.3235 130.198 80 130.198C84.9126 130.198 89.7693 129.489 94.4209 128.091L94.9988 130.011C90.1515 131.475 85.0991 132.202 80 132.202Z" fill="url(#paint5_linear_284_22)"/>
<path d="M115.255 118.499L113.904 117.026C124.26 107.536 130.198 94.0475 130.198 80.0088C130.198 70.1277 127.327 60.5635 121.902 52.3509L123.57 51.251C129.219 59.7898 132.202 69.7362 132.202 80.0181C132.193 94.6068 126.022 108.636 115.255 118.499Z" fill="url(#paint6_linear_284_22)"/>
<path d="M111.228 40.6987C102.27 33.5675 91.4658 29.8015 79.9999 29.8015C69.9417 29.8015 60.2376 32.7659 51.9319 38.3776L50.8132 36.7183C59.4453 30.8828 69.5408 27.8066 79.9999 27.8066C91.9319 27.8066 103.165 31.7218 112.477 39.142L111.228 40.6987Z" fill="url(#paint7_linear_284_22)"/>
<path d="M79.9999 123.234C72.9712 123.234 65.9892 121.509 59.8181 118.247L60.2842 117.361C66.3154 120.549 73.1297 122.236 79.9906 122.236C98.9419 122.236 115.684 109.493 120.708 91.2412L121.668 91.5116C116.541 110.193 99.3986 123.234 79.9999 123.234Z" fill="url(#paint8_linear_284_22)"/>
<path d="M49.4336 110.585C41.2677 102.419 36.7653 91.5589 36.7653 80.0091C36.7653 56.1732 56.1547 36.7744 79.9999 36.7744C103.836 36.7744 123.235 56.1732 123.235 80.0091H122.237C122.237 56.7231 103.295 37.7812 80.0092 37.7812C56.7233 37.7812 37.7813 56.7231 37.7813 80.0091C37.7813 91.2885 42.1719 101.897 50.1607 109.876L49.4336 110.585Z" fill="url(#paint9_linear_284_22)"/>
<path d="M80 106.893C65.1689 106.893 53.1064 94.8305 53.1064 79.9995C53.1064 65.1684 65.1689 53.106 80 53.106V55.1102C66.2782 55.1102 55.1106 66.2777 55.1106 79.9995C55.1106 93.7212 66.2782 104.889 80 104.889C93.7217 104.889 104.889 93.7212 104.889 79.9995H106.893C106.884 94.8305 94.8217 106.893 80 106.893Z" fill="url(#paint10_linear_284_22)"/>
<path d="M80 93.3669C72.6264 93.3669 66.6324 87.3729 66.6324 79.9993H67.6299C67.6299 86.8136 73.1764 92.3601 79.9906 92.3601C86.8049 92.3601 92.3514 86.8136 92.3514 79.9993C92.3514 73.1851 86.8049 67.6386 79.9906 67.6386C76.206 67.6386 72.6823 69.3352 70.3146 72.2995L69.5315 71.675C72.0857 68.4682 75.8983 66.6318 79.9906 66.6318C87.3642 66.6318 93.3581 72.6258 93.3581 79.9993C93.3581 87.3729 87.3642 93.3669 80 93.3669Z" fill="url(#paint11_linear_284_22)"/>
<defs>
<linearGradient id="paint0_linear_284_22" x1="122.61" y1="128.445" x2="190.317" y2="106.59" gradientUnits="userSpaceOnUse">
<stop stop-color="#4070F4"/>
<stop offset="1" stop-color="#2BD67B"/>
</linearGradient>
<linearGradient id="paint1_linear_284_22" x1="0" y1="160" x2="152.918" y2="47.0756" gradientUnits="userSpaceOnUse">
<stop stop-color="#4070F4"/>
<stop offset="1" stop-color="#2BD67B"/>
</linearGradient>
<linearGradient id="paint2_linear_284_22" x1="7.72791" y1="141.58" x2="60.9949" y2="110.898" gradientUnits="userSpaceOnUse">
<stop stop-color="#4070F4"/>
<stop offset="1" stop-color="#2BD67B"/>
</linearGradient>
<linearGradient id="paint3_linear_284_22" x1="56.8539" y1="152.281" x2="117.522" y2="63.6637" gradientUnits="userSpaceOnUse">
<stop stop-color="#4070F4"/>
<stop offset="1" stop-color="#2BD67B"/>
</linearGradient>
<linearGradient id="paint4_linear_284_22" x1="11.6337" y1="68.7761" x2="56.4102" y2="-33.7236" gradientUnits="userSpaceOnUse">
<stop stop-color="#4070F4"/>
<stop offset="1" stop-color="#2BD67B"/>
</linearGradient>
<linearGradient id="paint5_linear_284_22" x1="27.7977" y1="132.202" x2="109.798" y2="66.6507" gradientUnits="userSpaceOnUse">
<stop stop-color="#4070F4"/>
<stop offset="1" stop-color="#2BD67B"/>
</linearGradient>
<linearGradient id="paint6_linear_284_22" x1="113.904" y1="118.499" x2="147.978" y2="109.227" gradientUnits="userSpaceOnUse">
<stop stop-color="#4070F4"/>
<stop offset="1" stop-color="#2BD67B"/>
</linearGradient>
<linearGradient id="paint7_linear_284_22" x1="50.8132" y1="40.6987" x2="55.9782" y2="15.9944" gradientUnits="userSpaceOnUse">
<stop stop-color="#4070F4"/>
<stop offset="1" stop-color="#2BD67B"/>
</linearGradient>
<linearGradient id="paint8_linear_284_22" x1="59.8181" y1="123.234" x2="85.9288" y2="72.7546" gradientUnits="userSpaceOnUse">
<stop stop-color="#4070F4"/>
<stop offset="1" stop-color="#2BD67B"/>
</linearGradient>
<linearGradient id="paint9_linear_284_22" x1="36.7653" y1="110.585" x2="109.66" y2="25.1874" gradientUnits="userSpaceOnUse">
<stop stop-color="#4070F4"/>
<stop offset="1" stop-color="#2BD67B"/>
</linearGradient>
<linearGradient id="paint10_linear_284_22" x1="53.1064" y1="106.893" x2="106.893" y2="53.106" gradientUnits="userSpaceOnUse">
<stop stop-color="#4070F4"/>
<stop offset="1" stop-color="#2BD67B"/>
</linearGradient>
<linearGradient id="paint11_linear_284_22" x1="66.6324" y1="93.3669" x2="93.3675" y2="66.6412" gradientUnits="userSpaceOnUse">
<stop stop-color="#4070F4"/>
<stop offset="1" stop-color="#2BD67B"/>
</linearGradient>
</defs>
</svg>
