<svg width="202" height="51" viewBox="0 0 202 51" fill="none" xmlns="http://www.w3.org/2000/svg">
<rect x="126.084" width="75.0833" height="51" rx="3.45397" fill="url(#paint0_linear_37_184)"/>
<path d="M143.218 12.9185H150.714V34.1326H154.056V38.6667H145.617V38.0048C145.021 38.3136 144.409 38.5563 143.78 38.7328C143.163 38.9094 142.534 38.9976 141.894 38.9976C140.581 38.9976 139.373 38.7659 138.27 38.3026C137.178 37.8282 136.235 37.1829 135.44 36.3665C134.657 35.5502 134.045 34.5959 133.604 33.5038C133.162 32.4006 132.942 31.2202 132.942 29.9626C132.942 28.705 133.157 27.5356 133.587 26.4545C134.028 25.3624 134.635 24.4136 135.407 23.6083C136.191 22.803 137.123 22.1687 138.204 21.7053C139.296 21.242 140.493 21.0103 141.795 21.0103C142.512 21.0103 143.185 21.082 143.813 21.2254C144.442 21.3578 145.044 21.5509 145.617 21.8046V17.4526H143.218V12.9185ZM142.175 34.4305C142.903 34.4084 143.56 34.2209 144.144 33.8678C144.74 33.5148 145.231 33.0515 145.617 32.4778V27.4308C145.231 26.8461 144.729 26.3938 144.111 26.0739C143.505 25.7429 142.859 25.583 142.175 25.594C141.602 25.583 141.061 25.6823 140.554 25.8919C140.057 26.1015 139.616 26.3993 139.23 26.7854C138.855 27.1716 138.557 27.6349 138.336 28.1755C138.116 28.716 138.005 29.3283 138.005 30.0122C138.005 30.6852 138.116 31.2974 138.336 31.849C138.557 32.3896 138.855 32.8529 139.23 33.239C139.616 33.6141 140.057 33.9009 140.554 34.0995C141.061 34.2981 141.602 34.4084 142.175 34.4305ZM160.692 31.1706L160.742 31.6836C160.863 32.18 161.067 32.6157 161.354 32.9908C161.652 33.3659 161.999 33.6803 162.396 33.934C162.794 34.1878 163.235 34.3808 163.72 34.5132C164.206 34.6345 164.697 34.6952 165.193 34.6952C165.689 34.6952 166.158 34.6676 166.6 34.6125C167.052 34.5463 167.488 34.4636 167.907 34.3643C168.326 34.254 168.734 34.1326 169.131 34.0002C169.529 33.8568 169.931 33.7079 170.339 33.5534L172.16 36.9457C171.531 37.3318 170.952 37.6628 170.422 37.9386C169.904 38.2033 169.38 38.424 168.85 38.6005C168.321 38.777 167.758 38.9038 167.162 38.9811C166.566 39.0693 165.871 39.1134 165.077 39.1134C163.588 39.1134 162.264 38.8707 161.106 38.3853C159.947 37.8889 158.971 37.2215 158.177 36.3831C157.394 35.5447 156.792 34.5628 156.373 33.4376C155.965 32.3124 155.761 31.1209 155.761 29.8633C155.761 28.6057 155.976 27.4253 156.406 26.3221C156.848 25.2189 157.465 24.2592 158.26 23.4428C159.054 22.6154 160.003 21.9646 161.106 21.4902C162.209 21.0158 163.433 20.7787 164.779 20.7787C166.125 20.7787 167.317 21.0048 168.354 21.4571C169.402 21.8984 170.284 22.5162 171.001 23.3104C171.718 24.0937 172.27 25.0204 172.656 26.0904C173.042 27.1495 173.252 28.2913 173.285 29.5158C173.318 29.7916 173.334 30.0674 173.334 30.3432C173.346 30.608 173.34 30.8837 173.318 31.1706H160.692ZM164.647 24.9156C164.029 24.9156 163.5 24.9928 163.058 25.1472C162.628 25.2906 162.264 25.4947 161.966 25.7595C161.668 26.0132 161.431 26.3056 161.255 26.6365C161.078 26.9675 160.94 27.315 160.841 27.679H168.006C167.929 27.3039 167.819 26.9509 167.675 26.62C167.532 26.289 167.333 25.9967 167.079 25.7429C166.826 25.4892 166.5 25.2906 166.103 25.1472C165.717 24.9928 165.232 24.9156 164.647 24.9156ZM175.221 21.5233H184.173V26.0574H182.088L184.885 33.4211L187.582 26.0574H185.729V21.5233H194.681V26.0574H192.397L187.284 38.7328H182.237L177.124 26.0574H175.221V21.5233Z" fill="black"/>
<path d="M1.87013 33.6015H4.43501V17.6H1.87013V13.0163L14.0988 13.0494C15.2351 13.0494 16.2721 13.2535 17.2098 13.6616C18.1585 14.0588 18.9749 14.6048 19.6588 15.2998C20.3428 15.9838 20.8723 16.7891 21.2474 17.7158C21.6335 18.6314 21.8266 19.6077 21.8266 20.6447C21.8266 21.8582 21.6115 22.8621 21.1812 23.6564C20.762 24.4507 20.1608 25.0905 19.3775 25.5759C20.2049 26.1055 20.8558 26.7618 21.3302 27.5451C21.8156 28.3173 22.0583 29.2605 22.0583 30.3747C22.0583 31.511 21.8597 32.5535 21.4625 33.5022C21.0764 34.451 20.5414 35.2728 19.8574 35.9678C19.1845 36.6518 18.3847 37.1869 17.458 37.573C16.5313 37.948 15.533 38.1356 14.4629 38.1356H1.87013V33.6015ZM9.92883 27.7602V33.6015H14.0988C14.4188 33.6015 14.7166 33.5188 14.9924 33.3533C15.2792 33.1878 15.5219 32.9727 15.7205 32.708C15.9301 32.4322 16.0956 32.1178 16.2169 31.7647C16.3383 31.4007 16.399 31.0256 16.399 30.6395C16.399 30.2313 16.3383 29.8563 16.2169 29.5143C16.0956 29.1613 15.9301 28.8579 15.7205 28.6041C15.5109 28.3394 15.2627 28.1353 14.9759 27.9919C14.7001 27.8374 14.4077 27.7602 14.0988 27.7602H9.92883ZM9.92883 17.6V23.2262H13.8672C14.1761 23.2262 14.4684 23.1489 14.7442 22.9945C15.02 22.8401 15.2572 22.636 15.4557 22.3822C15.6653 22.1175 15.8308 21.8251 15.9522 21.5052C16.0735 21.1743 16.1342 20.8323 16.1342 20.4793C16.1342 20.1373 16.0735 19.7953 15.9522 19.4533C15.8308 19.1113 15.6653 18.8024 15.4557 18.5266C15.2572 18.2508 15.02 18.0302 14.7442 17.8647C14.4684 17.6882 14.1761 17.6 13.8672 17.6H9.92883ZM34.7999 37.2089C34.4138 37.4516 34.0608 37.6612 33.7409 37.8377C33.421 38.0032 33.101 38.1356 32.7811 38.2349C32.4612 38.3452 32.1302 38.4224 31.7883 38.4665C31.4463 38.5217 31.0712 38.5493 30.663 38.5493C29.6371 38.5493 28.7159 38.4114 27.8996 38.1356C27.0943 37.8488 26.4103 37.4627 25.8477 36.9773C25.2961 36.4808 24.8714 35.9017 24.5735 35.2398C24.2756 34.5668 24.1267 33.8387 24.1267 33.0555C24.1267 32.2612 24.2756 31.5276 24.5735 30.8546C24.8824 30.1817 25.3237 29.608 25.8973 29.1337C26.471 28.6483 27.1715 28.2732 27.9989 28.0084C28.8373 27.7326 29.7915 27.5947 30.8616 27.5947C31.6449 27.5947 32.3564 27.6389 32.9962 27.7271C33.6471 27.8043 34.2483 27.9036 34.7999 28.025V27.4955C34.7999 27.0652 34.7172 26.6957 34.5517 26.3868C34.3862 26.0668 34.1546 25.8076 33.8567 25.609C33.5589 25.3994 33.2003 25.2505 32.7811 25.1622C32.3619 25.063 31.9041 25.0133 31.4077 25.0133C30.3707 25.0133 29.455 25.1181 28.6608 25.3277C27.8775 25.5263 27.1218 25.8186 26.3937 26.2047L24.8052 22.9945C25.9304 22.2223 27.1053 21.6321 28.3298 21.2239C29.5654 20.8157 30.8726 20.6116 32.2516 20.6116C33.3217 20.6116 34.309 20.733 35.2136 20.9757C36.1293 21.2074 36.9125 21.5935 37.5634 22.134C38.2143 22.6635 38.7217 23.3585 39.0858 24.219C39.4609 25.0795 39.6484 26.1275 39.6484 27.3631V33.6015H41.9485V38.1356H34.7999V37.2089ZM31.0271 34.644C31.8103 34.644 32.5219 34.5172 33.1617 34.2634C33.8016 34.0097 34.3476 33.7008 34.7999 33.3368V31.1525H30.8285C30.5748 31.1525 30.3266 31.1911 30.0839 31.2683C29.8412 31.3455 29.6205 31.4559 29.422 31.5993C29.2344 31.7427 29.08 31.9192 28.9586 32.1288C28.8483 32.3384 28.7931 32.5811 28.7931 32.8569C28.7931 33.3644 28.9752 33.7891 29.3392 34.1311C29.7143 34.473 30.2769 34.644 31.0271 34.644ZM60.9949 27.2307H56.345V25.4601C55.8927 25.4601 55.479 25.4932 55.1039 25.5594C54.7288 25.6145 54.3979 25.7138 54.111 25.8572C53.8352 26.0007 53.5981 26.1992 53.3995 26.453C53.2119 26.7067 53.0796 27.0211 53.0023 27.3962V33.6015H56.4939V38.1356H45.3077V33.6015H47.8726V25.5263H45.3408V20.9922H52.9692V22.2002C53.4546 21.8141 54.0007 21.5162 54.6075 21.3066C55.2142 21.097 55.8761 20.9922 56.5932 20.9922C57.3213 20.9922 58.0714 20.9977 58.8437 21.0088C59.6159 21.0198 60.3329 21.0253 60.9949 21.0253V27.2307ZM79.3627 27.2307H74.7129V25.4601C74.2605 25.4601 73.8469 25.4932 73.4718 25.5594C73.0967 25.6145 72.7657 25.7138 72.4789 25.8572C72.2031 26.0007 71.9659 26.1992 71.7674 26.453C71.5798 26.7067 71.4474 27.0211 71.3702 27.3962V33.6015H74.8618V38.1356H63.6756V33.6015H66.2405V25.5263H63.7087V20.9922H71.3371V22.2002C71.8225 21.8141 72.3686 21.5162 72.9753 21.3066C73.5821 21.097 74.244 20.9922 74.9611 20.9922C75.6892 20.9922 76.4393 20.9977 77.2115 21.0088C77.9838 21.0198 78.7008 21.0253 79.3627 21.0253V27.2307ZM82.0435 29.4977C82.0435 28.2511 82.2696 27.0818 82.7219 25.9896C83.1742 24.8975 83.803 23.9432 84.6083 23.1269C85.4137 22.3105 86.3734 21.6652 87.4876 21.1908C88.6018 20.7164 89.8264 20.4793 91.1612 20.4793C92.4961 20.4793 93.7206 20.7164 94.8348 21.1908C95.96 21.6652 96.9253 22.3105 97.7306 23.1269C98.5359 23.9432 99.1592 24.8975 99.6005 25.9896C100.053 27.0818 100.279 28.2511 100.279 29.4977C100.279 30.7443 100.058 31.9192 99.6171 33.0224C99.1868 34.1145 98.569 35.0743 97.7637 35.9017C96.9694 36.718 96.0097 37.3634 94.8844 37.8377C93.7702 38.3121 92.5291 38.5493 91.1612 38.5493C89.7822 38.5493 88.5301 38.3121 87.4049 37.8377C86.2907 37.3634 85.3364 36.718 84.5422 35.9017C83.7479 35.0853 83.1301 34.1311 82.6888 33.0389C82.2586 31.9357 82.0435 30.7553 82.0435 29.4977ZM86.9912 29.4977C86.9912 30.1486 87.1015 30.7498 87.3222 31.3014C87.5428 31.842 87.8406 32.3108 88.2157 32.708C88.6018 33.1051 89.0431 33.414 89.5395 33.6346C90.047 33.8553 90.5876 33.9656 91.1612 33.9656C91.7459 33.9656 92.2864 33.8608 92.7829 33.6512C93.2903 33.4305 93.7261 33.1217 94.0901 32.7245C94.4652 32.3274 94.7576 31.8585 94.9672 31.318C95.1768 30.7664 95.2816 30.1596 95.2816 29.4977C95.2816 28.8138 95.1768 28.196 94.9672 27.6444C94.7576 27.0928 94.4652 26.6239 94.0901 26.2378C93.7261 25.8517 93.2903 25.5594 92.7829 25.3608C92.2864 25.1512 91.7459 25.0519 91.1612 25.063C90.5876 25.0519 90.047 25.1512 89.5395 25.3608C89.0431 25.5594 88.6018 25.8517 88.2157 26.2378C87.8406 26.6239 87.5428 27.0928 87.3222 27.6444C87.1015 28.196 86.9912 28.8138 86.9912 29.4977ZM113.732 26.2378C113.732 25.9731 113.644 25.7193 113.467 25.4766C113.302 25.2339 113.054 25.0243 112.723 24.8478C112.392 24.6603 111.984 24.5114 111.498 24.401C111.024 24.2907 110.483 24.2356 109.877 24.2356C109.645 24.2356 109.397 24.2576 109.132 24.3018C108.867 24.3349 108.619 24.401 108.387 24.5003C108.167 24.5996 107.979 24.7375 107.825 24.914C107.681 25.0795 107.61 25.2946 107.61 25.5594C107.61 25.6918 107.626 25.8186 107.659 25.94C107.703 26.0613 107.781 26.1772 107.891 26.2875C108.001 26.3978 108.15 26.5026 108.338 26.6019C108.536 26.6901 108.79 26.7618 109.099 26.817L112.21 27.4293C113.335 27.6499 114.278 27.9257 115.039 28.2566C115.801 28.5876 116.413 28.9737 116.876 29.415C117.34 29.8563 117.671 30.3472 117.869 30.8877C118.079 31.4283 118.184 32.013 118.184 32.6418C118.184 33.6236 117.952 34.4841 117.489 35.2232C117.036 35.9623 116.435 36.5801 115.685 37.0765C114.946 37.5619 114.107 37.926 113.17 38.1687C112.243 38.4224 111.305 38.5493 110.356 38.5493C109.739 38.5493 109.176 38.5107 108.669 38.4334C108.172 38.3562 107.72 38.2514 107.312 38.119C106.915 37.9867 106.556 37.8322 106.236 37.6557C105.927 37.4682 105.64 37.2641 105.376 37.0434H102.381V32.4432H107.063V32.5425C107.075 32.8624 107.174 33.1437 107.361 33.3864C107.549 33.6181 107.792 33.8167 108.089 33.9821C108.398 34.1476 108.746 34.2745 109.132 34.3627C109.518 34.4399 109.926 34.4786 110.356 34.4786C111.349 34.4786 112.072 34.3517 112.524 34.098C112.977 33.8332 113.203 33.4967 113.203 33.0886C113.203 32.7686 113.092 32.4984 112.872 32.2777C112.651 32.0461 112.259 31.864 111.697 31.7317L108.52 31.0532C106.523 30.6671 105.017 30.0272 104.002 29.1337C102.987 28.2291 102.48 27.0707 102.48 25.6587C102.48 24.8313 102.673 24.0811 103.059 23.4082C103.445 22.7242 103.969 22.1451 104.631 21.6707C105.293 21.1853 106.065 20.8102 106.948 20.5454C107.841 20.2807 108.795 20.1483 109.81 20.1483C110.505 20.1483 111.123 20.1924 111.664 20.2807C112.204 20.3579 112.69 20.4627 113.12 20.5951C113.55 20.7275 113.925 20.8874 114.245 21.075C114.576 21.2515 114.868 21.439 115.122 21.6376H118.001V26.2378H113.732Z" fill="white"/>
<defs>
<linearGradient id="paint0_linear_37_184" x1="126.084" y1="51" x2="173.493" y2="-18.7973" gradientUnits="userSpaceOnUse">
<stop stop-color="#4070F4"/>
<stop offset="1" stop-color="#2BD67B"/>
</linearGradient>
</defs>
</svg>
