<svg width="160" height="160" viewBox="0 0 160 160" fill="none" xmlns="http://www.w3.org/2000/svg">
<path d="M143.668 128.445L142.876 127.839C153.419 113.996 158.993 97.4593 158.993 80.0088C158.993 52.9755 145.393 28.1048 122.61 13.4789L123.151 12.6399C146.222 27.443 159.991 52.6306 159.991 80.0088C159.991 97.6737 154.342 114.425 143.668 128.445Z" fill="url(#paint0_linear_45_33)"/>
<path d="M80 160C35.8891 160 0 124.111 0 80C0 35.8891 35.8891 0 80 0V0.997429C36.4391 0.997429 1.00676 36.439 1.00676 79.9907C1.00676 123.552 36.4484 158.984 80 158.984C93.1624 158.984 106.194 155.684 117.679 149.438L118.154 150.315C106.521 156.663 93.3209 160 80 160Z" fill="url(#paint1_linear_45_33)"/>
<path d="M42.1441 141.58C20.592 128.305 7.72791 105.28 7.72791 79.9995H9.73209C9.73209 104.581 22.242 126.963 43.1975 139.874L42.1441 141.58Z" fill="url(#paint2_linear_45_33)"/>
<path d="M80 152.281C72.0764 152.281 64.2927 151.004 56.8539 148.496L57.4971 146.604C64.7308 149.046 72.3001 150.286 80.0093 150.286C116.206 150.286 146.269 123.169 149.914 87.2051L151.909 87.4102C148.143 124.381 117.231 152.281 80 152.281Z" fill="url(#paint3_linear_45_33)"/>
<path d="M149.373 68.7759C146.754 52.472 138.383 37.5291 125.789 26.7065C113.065 15.7626 96.798 9.74072 80 9.74072C66.4367 9.74072 53.2743 13.6093 41.9296 20.9363C28.7113 29.4751 18.625 42.3392 13.526 57.1609L11.6337 56.5084C16.8725 41.2672 27.2477 28.0395 40.839 19.2583C52.5099 11.7263 66.0452 7.74585 79.9907 7.74585C97.2734 7.74585 113.997 13.9449 127.085 25.1963C140.033 36.3266 148.646 51.6983 151.34 68.4683L149.373 68.7759Z" fill="url(#paint4_linear_45_33)"/>
<path d="M80 132.202C51.2142 132.202 27.7977 108.785 27.7977 79.9995C27.7977 68.3472 31.5544 57.3288 38.6483 48.1375L40.2331 49.3586C33.4095 58.205 29.8019 68.7946 29.8019 79.9995C29.8019 107.676 52.3235 130.198 80 130.198C84.9126 130.198 89.7693 129.489 94.4209 128.091L94.9988 130.011C90.1515 131.475 85.0991 132.202 80 132.202Z" fill="url(#paint5_linear_45_33)"/>
<path d="M115.255 118.498L113.904 117.026C124.26 107.536 130.198 94.0473 130.198 80.0086C130.198 70.1275 127.327 60.5632 121.902 52.3507L123.57 51.2507C129.219 59.7895 132.202 69.7359 132.202 80.0179C132.193 94.6066 126.022 108.636 115.255 118.498Z" fill="url(#paint6_linear_45_33)"/>
<path d="M111.228 40.6985C102.27 33.5673 91.4658 29.8013 80 29.8013C69.9417 29.8013 60.2377 32.7656 51.9319 38.3774L50.8133 36.7181C59.4453 30.8826 69.5409 27.8064 80 27.8064C91.9319 27.8064 103.165 31.7216 112.477 39.1418L111.228 40.6985Z" fill="url(#paint7_linear_45_33)"/>
<path d="M80 123.234C72.9713 123.234 65.9892 121.509 59.8182 118.247L60.2843 117.361C66.3155 120.549 73.1298 122.237 79.9906 122.237C98.9419 122.237 115.684 109.494 120.708 91.2415L121.669 91.5118C116.542 110.193 99.3987 123.234 80 123.234Z" fill="url(#paint8_linear_45_33)"/>
<path d="M49.4336 110.584C41.2677 102.419 36.7653 91.5586 36.7653 80.0089C36.7653 56.1729 56.1547 36.7742 79.9999 36.7742C103.836 36.7742 123.235 56.1729 123.235 80.0089H122.237C122.237 56.7229 103.295 37.7809 80.0092 37.7809C56.7233 37.7809 37.7813 56.7229 37.7813 80.0089C37.7813 91.2883 42.1719 101.897 50.1607 109.876L49.4336 110.584Z" fill="url(#paint9_linear_45_33)"/>
<path d="M80 106.893C65.1689 106.893 53.1064 94.8305 53.1064 79.9995C53.1064 65.1684 65.1689 53.106 80 53.106V55.1102C66.2782 55.1102 55.1106 66.2777 55.1106 79.9995C55.1106 93.7212 66.2782 104.889 80 104.889C93.7217 104.889 104.889 93.7212 104.889 79.9995H106.893C106.884 94.8305 94.8217 106.893 80 106.893Z" fill="url(#paint10_linear_45_33)"/>
<path d="M80 93.3669C72.6264 93.3669 66.6324 87.3729 66.6324 79.9993H67.6299C67.6299 86.8136 73.1764 92.3601 79.9906 92.3601C86.8049 92.3601 92.3514 86.8136 92.3514 79.9993C92.3514 73.1851 86.8049 67.6386 79.9906 67.6386C76.206 67.6386 72.6823 69.3352 70.3146 72.2995L69.5315 71.675C72.0857 68.4682 75.8983 66.6318 79.9906 66.6318C87.3642 66.6318 93.3581 72.6258 93.3581 79.9993C93.3581 87.3729 87.3642 93.3669 80 93.3669Z" fill="url(#paint11_linear_45_33)"/>
<circle cx="79.6232" cy="80.3674" r="44.6486" fill="url(#paint12_linear_45_33)"/>
<path fill-rule="evenodd" clip-rule="evenodd" d="M101.1 98.0688L106.232 103.2L102.456 106.976L96.6447 101.165L92.3292 98.6739C89.5565 102.099 85.5928 104.35 81.2313 104.978V85.7514L80.6304 85.1505H76.2301V104.981C71.8682 104.352 67.9045 102.1 65.1322 98.6739L58.8156 102.32L56.315 97.9887L62.5666 94.3803C61.6789 92.248 61.2233 89.9608 61.2262 87.6511H53.7243V82.6498H61.2262V80.1492C61.2262 78.5413 61.4438 76.9859 61.8489 75.508L56.315 72.3122L58.8156 67.9811L63.8669 70.8968C64.0263 70.6425 64.1923 70.3924 64.3645 70.1466H65.6265L52.1124 56.6325L55.8881 52.8567L73.1781 70.1466H73.4538L95.6105 92.3033C95.5907 92.3751 95.5704 92.4468 95.5498 92.5183L100.848 97.8161L101.146 97.9887L101.1 98.0688ZM103.737 87.6511H96.4777L78.9732 70.1466H93.0969C93.2694 70.3917 93.4345 70.6442 93.5945 70.8968L98.6458 67.9811L101.146 72.3122L95.6125 75.508C96.0176 76.9834 96.2352 78.5413 96.2352 80.1492V82.6498H103.737V87.6511ZM69.6907 60.8641L73.9719 65.1453H88.7333C88.7333 62.4925 87.6794 59.9483 85.8036 58.0725C83.9277 56.1966 81.3836 55.1428 78.7307 55.1428C76.0779 55.1428 73.5337 56.1966 71.6578 58.0725C70.8391 58.8912 70.177 59.8373 69.6907 60.8641Z" fill="black"/>
<defs>
<linearGradient id="paint0_linear_45_33" x1="122.61" y1="128.445" x2="190.317" y2="106.59" gradientUnits="userSpaceOnUse">
<stop stop-color="#4070F4"/>
<stop offset="1" stop-color="#2BD67B"/>
</linearGradient>
<linearGradient id="paint1_linear_45_33" x1="0" y1="160" x2="152.918" y2="47.0756" gradientUnits="userSpaceOnUse">
<stop stop-color="#4070F4"/>
<stop offset="1" stop-color="#2BD67B"/>
</linearGradient>
<linearGradient id="paint2_linear_45_33" x1="7.72791" y1="141.58" x2="60.9949" y2="110.898" gradientUnits="userSpaceOnUse">
<stop stop-color="#4070F4"/>
<stop offset="1" stop-color="#2BD67B"/>
</linearGradient>
<linearGradient id="paint3_linear_45_33" x1="56.8539" y1="152.281" x2="117.522" y2="63.6637" gradientUnits="userSpaceOnUse">
<stop stop-color="#4070F4"/>
<stop offset="1" stop-color="#2BD67B"/>
</linearGradient>
<linearGradient id="paint4_linear_45_33" x1="11.6337" y1="68.7759" x2="56.4102" y2="-33.7238" gradientUnits="userSpaceOnUse">
<stop stop-color="#4070F4"/>
<stop offset="1" stop-color="#2BD67B"/>
</linearGradient>
<linearGradient id="paint5_linear_45_33" x1="27.7977" y1="132.202" x2="109.798" y2="66.6505" gradientUnits="userSpaceOnUse">
<stop stop-color="#4070F4"/>
<stop offset="1" stop-color="#2BD67B"/>
</linearGradient>
<linearGradient id="paint6_linear_45_33" x1="113.904" y1="118.498" x2="147.978" y2="109.226" gradientUnits="userSpaceOnUse">
<stop stop-color="#4070F4"/>
<stop offset="1" stop-color="#2BD67B"/>
</linearGradient>
<linearGradient id="paint7_linear_45_33" x1="50.8133" y1="40.6985" x2="55.9782" y2="15.9941" gradientUnits="userSpaceOnUse">
<stop stop-color="#4070F4"/>
<stop offset="1" stop-color="#2BD67B"/>
</linearGradient>
<linearGradient id="paint8_linear_45_33" x1="59.8182" y1="123.234" x2="85.9289" y2="72.7549" gradientUnits="userSpaceOnUse">
<stop stop-color="#4070F4"/>
<stop offset="1" stop-color="#2BD67B"/>
</linearGradient>
<linearGradient id="paint9_linear_45_33" x1="36.7653" y1="110.584" x2="109.66" y2="25.1872" gradientUnits="userSpaceOnUse">
<stop stop-color="#4070F4"/>
<stop offset="1" stop-color="#2BD67B"/>
</linearGradient>
<linearGradient id="paint10_linear_45_33" x1="53.1064" y1="106.893" x2="106.893" y2="53.106" gradientUnits="userSpaceOnUse">
<stop stop-color="#4070F4"/>
<stop offset="1" stop-color="#2BD67B"/>
</linearGradient>
<linearGradient id="paint11_linear_45_33" x1="66.6324" y1="93.3669" x2="93.3675" y2="66.6412" gradientUnits="userSpaceOnUse">
<stop stop-color="#4070F4"/>
<stop offset="1" stop-color="#2BD67B"/>
</linearGradient>
<linearGradient id="paint12_linear_45_33" x1="34.9746" y1="125.016" x2="124.272" y2="35.7189" gradientUnits="userSpaceOnUse">
<stop stop-color="#4070F4"/>
<stop offset="1" stop-color="#2BD67B"/>
</linearGradient>
</defs>
</svg>
