<svg width="26" height="29" viewBox="0 0 26 29" fill="none" xmlns="http://www.w3.org/2000/svg">
<path d="M0.100708 0L2.38517 25.6466L12.6358 28.5048L22.9151 25.6362L25.2014 0H0.100708ZM20.4555 5.87576L19.695 14.4195L19.6973 14.4656L19.6941 14.5717V14.5708L19.1539 20.5447L19.0943 21.0754L12.651 22.8576V22.8578L12.646 22.8621L6.21388 21.07L5.77835 16.131H8.93252L9.15631 18.6424L12.652 19.5898L12.651 19.5916V19.5912L16.1596 18.6303L16.5304 14.5406H9.19584L9.1329 13.8492L8.98954 12.2295L8.91434 11.3598H16.8092L17.0964 8.17907H5.07177L5.00883 7.48817L4.8657 5.86803L4.79027 4.99832H20.5307L20.4555 5.87576Z" fill="url(#paint0_linear_93_84)"/>
<defs>
<linearGradient id="paint0_linear_93_84" x1="0.100708" y1="28.5048" x2="28.3765" y2="3.60572" gradientUnits="userSpaceOnUse">
<stop stop-color="#4070F4"/>
<stop offset="1" stop-color="#2BD67B"/>
</linearGradient>
</defs>
</svg>
