<svg width="18" height="26" viewBox="0 0 18 26" fill="none" xmlns="http://www.w3.org/2000/svg">
<path d="M4.87778 18.2439H8.43371V21.7998C8.43371 23.7687 6.8467 25.3557 4.87778 25.3557C2.90886 25.3557 1.32185 23.7687 1.32185 21.7998C1.32185 19.8309 2.90886 18.2439 4.87778 18.2439ZM4.87778 1.51009H8.43371V8.62194H4.87778C2.90886 8.62194 1.32185 7.03493 1.32185 5.06601C1.32185 3.09709 2.90886 1.51009 4.87778 1.51009ZM4.87778 9.87698H8.43371V13.4329V16.9888H4.87778C2.90886 16.9888 1.32185 15.4018 1.32185 13.4329C1.32185 11.464 2.90886 9.87698 4.87778 9.87698ZM13.2447 9.87698C15.2136 9.87698 16.8006 11.464 16.8006 13.4329C16.8006 15.4018 15.2136 16.9888 13.2447 16.9888C11.2757 16.9888 9.68874 15.4018 9.68874 13.4329C9.68874 11.464 11.2757 9.87698 13.2447 9.87698ZM9.68874 8.62194V1.51009H13.2447C15.2136 1.51009 16.8006 3.09709 16.8006 5.06601C16.8006 7.03493 15.2136 8.62194 13.2447 8.62194H9.68874Z" stroke="url(#paint0_linear_93_73)" stroke-width="1.25503"/>
<defs>
<linearGradient id="paint0_linear_93_73" x1="0.694336" y1="25.9832" x2="23.8642" y2="10.5367" gradientUnits="userSpaceOnUse">
<stop stop-color="#4070F4"/>
<stop offset="1" stop-color="#2BD67B"/>
</linearGradient>
</defs>
</svg>
