<svg width="27" height="26" viewBox="0 0 27 26" fill="none" xmlns="http://www.w3.org/2000/svg">
<path fill-rule="evenodd" clip-rule="evenodd" d="M13.3969 0.882568C6.29097 0.882568 0.528809 6.64345 0.528809 13.7506C0.528809 19.4363 4.2159 24.2596 9.32878 25.9613C9.97167 26.0807 10.2078 25.6822 10.2078 25.3423C10.2078 25.0355 10.1958 24.0218 10.1903 22.9465C6.61039 23.725 5.85499 21.4283 5.85499 21.4283C5.26963 19.9409 4.42622 19.5454 4.42622 19.5454C3.25849 18.7467 4.51423 18.7634 4.51423 18.7634C5.80619 18.8539 6.4868 20.0894 6.4868 20.0894C7.63451 22.0562 9.49712 21.4877 10.2314 21.1591C10.3469 20.3274 10.6804 19.7596 11.0484 19.4382C8.19024 19.1133 5.18546 18.0097 5.18546 13.079C5.18546 11.6741 5.68835 10.5262 6.51152 9.62479C6.3777 9.3009 5.93724 7.9921 6.63597 6.21962C6.63597 6.21962 7.71633 5.87377 10.1754 7.53864C11.2021 7.25332 12.3031 7.10991 13.3969 7.10501C14.49 7.10991 15.5917 7.25289 16.6203 7.53822C19.0764 5.87335 20.1555 6.21919 20.1555 6.21919C20.8559 7.99146 20.4154 9.30047 20.2818 9.62437C21.1069 10.5257 21.6062 11.6737 21.6062 13.0786C21.6062 18.021 18.5958 19.109 15.7304 19.4278C16.1922 19.8271 16.6035 20.6104 16.6035 21.8108C16.6035 23.5325 16.5885 24.9183 16.5885 25.3421C16.5885 25.6845 16.8204 26.0858 17.4724 25.9594C22.5823 24.256 26.2652 19.4342 26.2652 13.7506C26.265 6.64388 20.5034 0.882781 13.3969 0.882781V0.882568Z" fill="url(#paint0_linear_93_79)"/>
<path d="M5.40259 19.358C5.37425 19.4219 5.27367 19.4411 5.18205 19.3974C5.08829 19.3556 5.03608 19.2685 5.06634 19.2043C5.09404 19.1383 5.19483 19.1202 5.28795 19.1643C5.38171 19.2062 5.43498 19.2943 5.40238 19.3582L5.40259 19.358ZM5.92381 19.9395C5.86266 19.9964 5.74269 19.97 5.66129 19.8798C5.5769 19.7903 5.56113 19.6704 5.62357 19.6126C5.68707 19.5559 5.80342 19.5828 5.8878 19.6723C5.97176 19.763 5.98838 19.882 5.92402 19.9397L5.92381 19.9395ZM6.43139 20.6804C6.35255 20.7354 6.22342 20.684 6.14372 20.5696C6.06488 20.455 6.06488 20.3175 6.14585 20.2627C6.22533 20.2078 6.35255 20.2574 6.43352 20.3708C6.51194 20.4869 6.51194 20.6244 6.43139 20.6802V20.6804ZM7.12628 21.3966C7.05596 21.4744 6.90552 21.4535 6.79556 21.3476C6.68326 21.2438 6.65194 21.0961 6.72247 21.0186C6.79407 20.9406 6.94515 20.9623 7.05575 21.0676C7.16804 21.1711 7.20193 21.319 7.1267 21.3964L7.12628 21.3966ZM8.08518 21.8123C8.05386 21.9131 7.90938 21.9589 7.76342 21.9159C7.61788 21.8718 7.52263 21.7539 7.55246 21.6521C7.58229 21.5504 7.72783 21.5029 7.87465 21.5487C8.02019 21.5926 8.11544 21.7098 8.08518 21.8123ZM9.13849 21.8893C9.14211 21.9954 9.01852 22.0832 8.86573 22.0853C8.71167 22.0889 8.58701 22.0028 8.58552 21.8984C8.58552 21.7912 8.70655 21.7045 8.8604 21.7015C9.01319 21.6988 9.1387 21.784 9.1387 21.889L9.13849 21.8893ZM10.1183 21.7226C10.1366 21.826 10.0303 21.9323 9.87833 21.9606C9.72917 21.9883 9.59066 21.924 9.57149 21.8215C9.55316 21.7154 9.66141 21.609 9.81057 21.5816C9.96272 21.5553 10.0991 21.6178 10.1183 21.7228V21.7226Z" fill="url(#paint1_linear_93_79)"/>
<defs>
<linearGradient id="paint0_linear_93_79" x1="0.528809" y1="25.9832" x2="25.6216" y2="0.254923" gradientUnits="userSpaceOnUse">
<stop stop-color="#4070F4"/>
<stop offset="1" stop-color="#2BD67B"/>
</linearGradient>
<linearGradient id="paint1_linear_93_79" x1="5.05774" y1="22.0854" x2="7.61812" y2="17.6844" gradientUnits="userSpaceOnUse">
<stop stop-color="#4070F4"/>
<stop offset="1" stop-color="#2BD67B"/>
</linearGradient>
</defs>
</svg>
