<svg width="26" height="29" viewBox="0 0 26 29" fill="none" xmlns="http://www.w3.org/2000/svg">
<path d="M0 0L2.28435 25.5932L12.535 28.4246L22.814 25.5964L25.1007 0H0ZM20.3493 6.0594L20.2062 7.69692L20.1431 8.44787H8.11863L8.40563 11.6444H19.8573L19.7806 12.4369L19.0424 20.6836L18.9881 21.2019L12.5503 22.9711V22.9716L12.5426 22.9757L6.10918 21.2809L5.6724 16.4391H8.82665L9.05018 18.9321L12.5405 19.8639H12.5503V19.7392L16.0562 18.8545L16.4224 14.8408H5.53198L4.75957 6.13795L4.68446 5.25138H20.4247L20.3493 6.0594Z" fill="url(#paint0_linear_93_70)"/>
<defs>
<linearGradient id="paint0_linear_93_70" x1="0" y1="28.4246" x2="28.2062" y2="3.51674" gradientUnits="userSpaceOnUse">
<stop stop-color="#4070F4"/>
<stop offset="1" stop-color="#2BD67B"/>
</linearGradient>
</defs>
</svg>
