<svg width="26" height="27" viewBox="0 0 26 27" fill="none" xmlns="http://www.w3.org/2000/svg">
<path d="M0.201416 0.584473V26.0773H25.6943V0.584473H0.201416ZM13.6859 22.307C13.3096 23.0716 12.5914 23.5739 11.7591 23.8164C10.4801 24.1101 9.25689 23.9427 8.3469 23.3965C7.73792 23.0229 7.26233 22.4478 6.93949 21.7852L8.88102 20.5962C8.89795 20.6033 8.94894 20.6955 9.01705 20.8146C9.26464 21.2294 9.47817 21.5231 9.89788 21.7293C10.3103 21.87 11.2156 21.9599 11.5651 21.2343C11.7786 20.8652 11.7107 19.6786 11.7107 18.3658C11.7105 16.303 11.7201 14.2486 11.7201 12.2092H14.1081C14.1081 14.4526 14.1203 16.5773 14.1081 18.7664C14.1132 20.1083 14.2296 21.3047 13.6859 22.307ZM23.5922 21.6324C22.7622 24.4717 18.1343 24.5639 16.285 22.688C15.8942 22.2465 15.6493 22.0158 15.4162 21.5062C16.399 20.9408 16.399 20.9408 17.3553 20.3875C17.8747 21.186 18.355 21.6251 19.2191 21.8047C20.3914 21.9479 21.5708 21.5451 21.3062 20.3C21.0344 19.2832 18.9058 19.0358 17.4572 17.9484C15.9866 16.9607 15.6419 14.5607 16.8505 13.1894C17.2533 12.6822 17.9402 12.3036 18.6609 12.1217L19.413 12.0244C20.8572 11.9953 21.7598 12.3767 22.4224 13.1166C22.6068 13.3034 22.7573 13.5049 23.0387 13.9415C22.2695 14.4318 22.2719 14.4271 21.17 15.1405C20.9347 14.6335 20.5441 14.3153 20.1313 14.1771C19.4905 13.9829 18.6825 14.194 18.5149 14.8711C18.4568 15.0797 18.4688 15.2739 18.5612 15.6185C18.8208 16.2106 19.692 16.468 20.4735 16.8271C22.7232 17.7395 23.4829 18.7179 23.6697 19.8824C23.8496 20.885 23.6263 21.5353 23.5922 21.6324Z" fill="url(#paint0_linear_93_87)"/>
<defs>
<linearGradient id="paint0_linear_93_87" x1="0.201416" y1="26.0773" x2="25.6943" y2="0.584473" gradientUnits="userSpaceOnUse">
<stop stop-color="#4070F4"/>
<stop offset="1" stop-color="#2BD67B"/>
</linearGradient>
</defs>
</svg>
