<svg width="32" height="28" viewBox="0 0 32 28" fill="none" xmlns="http://www.w3.org/2000/svg">
<path d="M15.678 16.855C17.2548 16.855 18.5331 15.5767 18.5331 13.9999C18.5331 12.423 17.2548 11.1448 15.678 11.1448C14.1011 11.1448 12.8229 12.423 12.8229 13.9999C12.8229 15.5767 14.1011 16.855 15.678 16.855Z" fill="url(#paint0_linear_345_32)"/>
<path d="M26.5224 9.29159C25.9714 9.09123 25.3954 8.89088 24.7943 8.71556C24.9445 8.11449 25.0698 7.51342 25.1699 6.93739C25.6959 3.63148 25.1199 1.30233 23.517 0.400715C23.0411 0.125223 22.5152 0 21.9141 0C20.161 0 17.932 1.30233 15.678 3.48122C13.424 1.30233 11.195 0 9.44186 0C8.84079 0 8.31485 0.125223 7.839 0.400715C6.23614 1.32737 5.66011 3.65653 6.18605 6.93739C6.28623 7.51342 6.41145 8.11449 6.56172 8.71556C5.96064 8.89088 5.38462 9.06619 4.83363 9.29159C1.70304 10.4937 0 12.1467 0 14C0 15.8533 1.72809 17.5063 4.83363 18.7084C5.38462 18.9088 5.96064 19.1091 6.56172 19.2844C6.41145 19.8855 6.28623 20.4866 6.18605 21.0626C5.66011 24.3685 6.23614 26.6977 7.839 27.5993C8.31485 27.8748 8.84079 28 9.44186 28C11.22 28 13.449 26.6977 15.678 24.5188C17.932 26.6977 20.161 28 21.9141 28C22.5152 28 23.0411 27.8748 23.517 27.5993C25.1199 26.6726 25.6959 24.3435 25.1699 21.0626C25.0698 20.4866 24.9445 19.8855 24.7943 19.2844C25.3954 19.1091 25.9714 18.9338 26.5224 18.7084C29.653 17.5063 31.356 15.8533 31.356 14C31.356 12.1467 29.653 10.4937 26.5224 9.29159V9.29159ZM22.8157 1.65295C23.8426 2.25402 24.1932 4.10733 23.7674 6.73703C23.6923 7.26297 23.5671 7.81395 23.4168 8.38998C22.1145 8.08944 20.737 7.88909 19.2844 7.76386C18.4329 6.56172 17.5564 5.48479 16.6798 4.50805C18.5331 2.67979 20.4114 1.42755 21.9392 1.42755C22.2648 1.42755 22.5653 1.50268 22.8157 1.65295V1.65295ZM20.0107 16.5045C19.5599 17.3059 19.034 18.1073 18.483 18.9088C17.5564 18.9839 16.6297 19.0089 15.678 19.0089C14.7013 19.0089 13.7746 18.9839 12.873 18.9088C12.322 18.1073 11.8211 17.3059 11.3703 16.5045C10.8945 15.678 10.4436 14.8265 10.0429 14C10.4436 13.1735 10.8945 12.322 11.3703 11.4955C11.8211 10.6941 12.347 9.89267 12.898 9.09123C13.8247 9.0161 14.7513 8.99106 15.703 8.99106C16.6798 8.99106 17.6064 9.0161 18.5081 9.09123C19.059 9.89267 19.5599 10.6941 20.0107 11.4955C20.4866 12.322 20.9374 13.1735 21.3381 14C20.9123 14.8265 20.4866 15.653 20.0107 16.5045ZM22.0894 15.678C22.4651 16.5546 22.7657 17.4061 23.0411 18.2576C22.1896 18.458 21.288 18.6082 20.3363 18.7335C20.6369 18.2576 20.9624 17.7567 21.2379 17.2308C21.5385 16.7048 21.814 16.1789 22.0894 15.678ZM15.678 22.4651C15.0769 21.814 14.5009 21.1127 13.9499 20.3864C14.5259 20.4114 15.102 20.4365 15.678 20.4365C16.254 20.4365 16.8301 20.4114 17.4061 20.3864C16.8551 21.1127 16.2791 21.814 15.678 22.4651ZM11.0197 18.7084C10.068 18.5832 9.16637 18.4329 8.31485 18.2326C8.59034 17.4061 8.89088 16.5295 9.26655 15.653C9.54204 16.1538 9.81753 16.6798 10.1181 17.1807C10.4186 17.7317 10.7191 18.2075 11.0197 18.7084V18.7084ZM9.26655 12.322C8.89088 11.4454 8.59034 10.5939 8.31485 9.7424C9.16637 9.54204 10.068 9.39177 11.0197 9.26655C10.7191 9.7424 10.3936 10.2433 10.1181 10.7692C9.81753 11.2952 9.54204 11.8211 9.26655 12.322V12.322ZM15.678 5.53488C16.2791 6.18605 16.8551 6.8873 17.4061 7.6136C16.8301 7.58855 16.254 7.56351 15.678 7.56351C15.102 7.56351 14.5259 7.58855 13.9499 7.6136C14.5009 6.8873 15.0769 6.18605 15.678 5.53488ZM21.2379 10.7943L20.3363 9.29159C21.288 9.41681 22.1896 9.56708 23.0411 9.76744C22.7657 10.5939 22.4651 11.4705 22.0894 12.347C21.814 11.8211 21.5385 11.2952 21.2379 10.7943ZM7.58855 6.73703C7.16279 4.10733 7.51342 2.25402 8.54025 1.65295C8.7907 1.50268 9.09123 1.42755 9.41682 1.42755C10.9195 1.42755 12.7979 2.65474 14.6762 4.50805C13.7996 5.45975 12.9231 6.56172 12.0716 7.76386C10.619 7.88909 9.2415 8.11449 7.93918 8.38998C7.78891 7.81395 7.68873 7.26297 7.58855 6.73703V6.73703ZM1.4025 14C1.4025 12.8229 2.83005 11.5707 5.33453 10.644C5.83542 10.4436 6.3864 10.2683 6.93739 10.1181C7.3381 11.3703 7.839 12.6977 8.44007 14.025C7.839 15.3524 7.31306 16.6547 6.93739 17.907C3.48122 16.9052 1.4025 15.4025 1.4025 14ZM8.54025 26.347C7.51342 25.746 7.16279 23.8927 7.58855 21.263C7.66369 20.737 7.78891 20.186 7.93918 19.61C9.2415 19.9106 10.619 20.1109 12.0716 20.2361C12.9231 21.4383 13.7996 22.5152 14.6762 23.4919C12.8229 25.3202 10.9445 26.5724 9.41682 26.5724C9.09123 26.5724 8.7907 26.4973 8.54025 26.347ZM23.7674 21.263C24.1932 23.8927 23.8426 25.746 22.8157 26.347C22.5653 26.4973 22.2648 26.5724 21.9392 26.5724C20.4365 26.5724 18.5581 25.3453 16.6798 23.4919C17.5564 22.5403 18.4329 21.4383 19.2844 20.2361C20.737 20.1109 22.1145 19.8855 23.4168 19.61C23.5671 20.186 23.6673 20.737 23.7674 21.263V21.263ZM26.0215 17.356C25.5206 17.5564 24.9696 17.7317 24.4186 17.8819C24.0179 16.6297 23.517 15.3023 22.9159 13.975C23.517 12.6476 24.0429 11.3453 24.4186 10.093C27.8748 11.0948 29.9535 12.5975 29.9535 14C29.9535 15.1771 28.5009 16.4293 26.0215 17.356Z" fill="url(#paint1_linear_345_32)"/>
<defs>
<linearGradient id="paint0_linear_345_32" x1="12.8229" y1="16.855" x2="18.5331" y2="11.1448" gradientUnits="userSpaceOnUse">
<stop stop-color="#4070F4"/>
<stop offset="1" stop-color="#2BD67B"/>
</linearGradient>
<linearGradient id="paint1_linear_345_32" x1="0" y1="28" x2="27.8216" y2="-3.15616" gradientUnits="userSpaceOnUse">
<stop stop-color="#4070F4"/>
<stop offset="1" stop-color="#2BD67B"/>
</linearGradient>
</defs>
</svg>
