<svg width="29" height="23" viewBox="0 0 29 23" fill="none" xmlns="http://www.w3.org/2000/svg">
<path fill-rule="evenodd" clip-rule="evenodd" d="M0 9.59072C0 9.76291 0.0478121 9.87656 0.0746054 9.98703C0.249223 10.7054 0.62456 11.3219 1.06988 11.8843C1.70414 12.6857 2.48092 13.3309 3.27663 13.9376C3.96679 14.4637 4.67103 14.9781 5.36396 15.5003C5.48292 15.5899 5.5954 15.6931 5.72452 15.803C5.61342 15.8667 5.52103 15.9228 5.42494 15.9745C4.51051 16.4663 3.63072 17.0177 2.81976 17.6856C2.33101 18.0883 1.85844 18.5162 1.52467 19.0754C0.987655 19.9748 0.797561 20.933 1.19784 21.9561C1.31472 22.2549 1.49303 22.5131 1.74456 22.7039C1.8261 22.7656 1.91757 22.8268 2.01296 22.8508C2.25733 22.9118 2.50632 22.9517 2.7537 23L3.45425 22.9995C4.22895 22.9263 4.93412 22.6448 5.57138 22.1785C6.56735 21.4496 7.23834 20.4723 7.52682 19.2179C7.73655 18.3063 7.7451 17.3937 7.49795 16.4862C7.4743 16.4021 7.44701 16.3192 7.41619 16.2378C7.38616 16.1562 7.35082 16.0769 7.30925 15.9752L8.89744 15.0068L8.92123 15.0283C8.89236 15.1285 8.86164 15.2284 8.83554 15.3296C8.64683 16.0605 8.52141 16.8041 8.56645 17.5627C8.61449 18.371 8.82722 19.1276 9.27347 19.8028C9.63425 20.3491 10.4939 20.3694 10.8774 19.8212C11.0134 19.6265 11.1453 19.423 11.2444 19.2057C11.5033 18.6387 11.7431 18.0616 11.9904 17.4884L12.0336 17.3836C12.0158 17.655 11.9951 17.8933 11.9856 18.1319C11.9708 18.5044 11.9914 18.8748 12.1115 19.2292C12.2143 19.5324 12.3891 19.759 12.7166 19.7989C12.9407 19.8261 13.1192 19.7174 13.2839 19.5795C13.539 19.3657 13.7505 19.0991 13.9055 18.7959C14.3446 17.9408 14.7954 17.0909 15.1934 16.2143C15.6239 15.2661 16.0004 14.2903 16.4002 13.326L16.4663 13.155C16.5608 13.5486 16.6266 13.9342 16.7479 14.2991C16.8888 14.7226 17.0631 15.1361 17.253 15.538C17.3429 15.7278 17.3325 15.851 17.208 16.0103C16.6869 16.6765 16.1748 17.3508 15.6623 18.0244C15.5489 18.173 15.4359 18.3244 15.3414 18.4868C15.2841 18.5894 15.2465 18.7029 15.2306 18.8209C15.2147 18.9295 15.2391 19.0405 15.2986 19.1305C15.3582 19.2205 15.4483 19.2826 15.55 19.3037C15.7554 19.3506 15.9659 19.3665 16.1755 19.3509C16.8908 19.2951 17.5403 19.0288 18.1145 18.5777C18.8585 17.9933 19.0974 17.1957 18.9172 16.2505C18.8685 15.9941 18.7823 15.7447 18.6985 15.4976C18.6608 15.3862 18.6583 15.308 18.7269 15.2042C19.3216 14.3035 19.8298 13.348 20.3024 12.3705C20.3211 12.332 20.3402 12.2936 20.373 12.2524C20.5262 13.0975 20.7567 13.9119 21.1697 14.6509C20.959 14.8662 20.7504 15.0614 20.5617 15.2764C20.1462 15.7501 19.7859 16.2645 19.5979 16.8918C19.517 17.1622 19.4549 17.437 19.4909 17.7258C19.5468 18.1743 19.8933 18.4657 20.3093 18.3636C21.1995 18.1451 21.9679 17.7003 22.5294 16.9124C22.9073 16.3818 22.9417 15.7901 22.7835 15.1701C22.7401 15.0016 22.6886 14.8358 22.6331 14.6425C22.8528 14.5703 23.0669 14.4836 23.2884 14.4299C24.4384 14.1517 25.576 14.2002 26.6842 14.6406C27.3312 14.8978 27.8539 15.3281 28.1639 16.0051C28.5424 16.8328 28.3332 17.618 27.5975 18.1412C27.5289 18.1899 27.4504 18.2284 27.3936 18.2894C27.3754 18.3118 27.3617 18.3379 27.3536 18.3662C27.3454 18.3944 27.3429 18.4242 27.3462 18.4535C27.3511 18.4836 27.4261 18.5213 27.4693 18.5209C27.7112 18.5189 27.9073 18.3844 28.0955 18.2463C28.5672 17.9002 28.9113 17.4346 28.9854 16.8215L29 16.7754L28.9822 16.3762C28.9751 16.3532 28.9875 16.3304 28.9859 16.313C28.8857 15.4202 28.436 14.7278 27.7818 14.185C27.0242 13.5567 26.1297 13.2981 25.1836 13.2572C24.4163 13.2222 23.65 13.3472 22.9281 13.6253C22.7209 13.7049 22.5156 13.7992 22.3072 13.8881C22.2793 13.8345 22.2493 13.7831 22.2245 13.7299C22.0107 13.2655 21.7515 12.8217 21.6942 12.2892C21.6536 11.911 21.6037 11.5333 21.6884 11.1593C21.77 10.7995 21.8762 10.4458 21.9762 10.0909C22.0277 9.90816 21.9915 9.80578 21.827 9.72348C21.7697 9.69318 21.7086 9.67189 21.6455 9.66028C21.2413 9.59807 20.8426 9.63359 20.4511 9.75434C20.3125 9.7972 20.2118 9.8795 20.1811 10.0421C20.1635 10.1355 20.1277 10.2249 20.1028 10.317C20.0005 10.6998 19.9279 11.09 19.7626 11.4547C19.3482 12.3695 18.8752 13.2498 18.391 14.1238C18.3386 14.2181 18.2834 14.3106 18.2173 14.425C18.0473 14.0478 17.866 13.7093 17.811 13.3125C17.7489 12.8638 17.6999 12.4158 17.8053 11.9705C17.8836 11.6384 17.9859 11.3124 18.0801 10.9847C18.1247 10.8289 18.1042 10.7471 17.9711 10.665C17.9039 10.6236 17.8279 10.5869 17.7521 10.5749C17.3377 10.5079 16.9142 10.5447 16.5155 10.6822C16.3901 10.7253 16.3242 10.8112 16.2859 10.9484C16.1732 11.353 16.0771 11.7675 15.9189 12.1523C15.2782 13.7101 14.619 15.2598 13.9604 16.8092C13.823 17.1328 13.662 17.4451 13.507 17.7601C13.4678 17.8399 13.4105 17.9102 13.3615 17.9852C13.3223 17.9359 13.307 17.9021 13.3072 17.8683C13.3084 17.6692 13.286 17.4642 13.3218 17.2717C13.4317 16.6894 13.5532 16.1097 13.6863 15.5329C13.7948 15.0562 13.9212 14.584 14.0415 14.1105C14.0819 13.9521 14.0826 13.8039 13.9752 13.6706C13.7948 13.4475 13.4179 13.3985 13.1943 13.5704L13.0954 13.6297L13.1146 13.4607C13.1617 13.0985 13.1712 12.7374 13.0774 12.3805C12.9605 11.9357 12.6612 11.6798 12.226 11.694C12.0232 11.7006 11.8103 11.7373 11.6225 11.8157C10.8328 12.1439 10.2256 12.7252 9.70863 13.4245C9.66071 13.4894 9.60132 13.5438 9.53378 13.5847C8.86556 13.9775 8.19527 14.3655 7.52521 14.755L6.77939 15.1883C6.57936 14.9859 6.39758 14.776 6.19132 14.598C5.56145 14.0532 4.92141 13.5219 4.28715 12.9833C3.72495 12.506 3.18031 12.0087 2.76363 11.3766C2.45366 10.9063 2.25387 10.3917 2.2347 9.81018C2.21044 9.06925 2.40862 8.39225 2.76432 7.76203C3.21935 6.9557 3.83998 6.30858 4.52229 5.72244C5.24409 5.10276 6.02479 4.57663 6.8339 4.09631C7.96591 3.42445 9.13026 2.82975 10.3787 2.43712C11.6588 2.03444 12.9575 1.80396 14.2972 1.96463C14.8238 2.02783 15.3352 2.15568 15.8048 2.42879C16.1644 2.63772 16.4594 2.91131 16.5966 3.33897C16.7319 3.75977 16.7278 4.1862 16.634 4.61362C16.4434 5.47922 15.9965 6.19272 15.4341 6.83029C14.5115 7.87543 13.3862 8.58697 12.1193 9.05701C11.3909 9.32762 10.633 9.49906 9.86384 9.56721C9.23351 9.6233 8.61634 9.56402 8.0195 9.33158C7.6243 9.17752 7.28014 8.94189 7.00343 8.59996C6.954 8.53872 6.89072 8.47234 6.79856 8.52966C6.70825 8.58599 6.69231 8.67711 6.72257 8.76945C6.77315 8.92278 6.81981 9.08248 6.89857 9.21964C7.09652 9.56378 7.38524 9.81337 7.70306 10.0274C8.31353 10.4392 8.99583 10.5776 9.70331 10.6097C10.7769 10.6589 11.8244 10.4889 12.8571 10.1835C14.3314 9.74748 15.6133 8.9774 16.6414 7.76252C17.4974 6.75093 18.1088 5.60928 18.2397 4.23078C18.3037 3.55794 18.2356 2.89882 17.9385 2.28501C17.6163 1.62001 17.104 1.12548 16.4915 0.784776C15.5994 0.28878 14.6367 0 13.6431 0H12.6476C11.4442 0 10.2808 0.36569 9.1499 0.801921C8.2939 1.13234 7.45453 1.52228 6.63965 1.95386C4.86505 2.89417 3.21242 4.02798 1.85497 5.587C1.17867 6.36369 0.606082 7.22072 0.27671 8.22986C0.177299 8.53114 0.0916607 8.83734 0.0200949 9.14739L0 9.59072ZM6.45024 17.9683C6.37333 19.0604 5.90653 19.9459 5.14361 20.6631C4.71446 21.0662 4.22225 21.3533 3.64896 21.4542C3.44109 21.4907 3.22836 21.4995 3.02671 21.4082C2.73915 21.2779 2.67471 21.0072 2.66916 20.7189C2.66062 20.2594 2.81237 19.844 3.02048 19.4487C3.29211 18.9333 3.69031 18.5404 4.11554 18.1735C4.78537 17.5952 5.51202 17.1059 6.25622 16.6439L6.31235 16.6194C6.42738 17.0701 6.48212 17.5151 6.45024 17.9683ZM12.2611 13.2217C12.2069 13.5704 12.139 13.9195 12.0429 14.2575C11.7107 15.4276 11.2841 16.5614 10.8229 17.68C10.7376 17.887 10.6136 18.0758 10.5057 18.272C10.4874 18.3022 10.4654 18.3297 10.4404 18.3538C10.3069 18.4937 10.1803 18.4863 10.1128 18.3033C10.0343 18.0907 9.98603 17.8632 9.94445 17.6381C9.91651 17.487 9.9232 17.3283 9.91443 17.1735C9.92343 16.0727 10.2401 15.0724 10.7774 14.1411C10.9989 13.7571 11.24 13.3912 11.6084 13.1482C11.723 13.0726 11.847 13.0144 11.9768 12.9753C12.1731 12.9167 12.2937 13.013 12.2611 13.2217ZM16.2256 18.5779L17.6505 16.8136C17.7099 17.4689 16.6596 18.7768 16.2256 18.5779ZM20.7766 17.3907C20.6758 17.452 20.5661 17.496 20.4629 17.5526C20.3684 17.6045 20.3372 17.5521 20.3345 17.4659C20.3331 17.4062 20.3403 17.3467 20.3559 17.2893C20.5483 16.5697 20.9024 15.9554 21.4293 15.4557L21.4662 15.4356C21.7169 16.179 21.4272 16.9954 20.7766 17.3907Z" fill="url(#paint0_linear_407_29)"/>
<defs>
<linearGradient id="paint0_linear_407_29" x1="0" y1="23" x2="22.3956" y2="-5.23796" gradientUnits="userSpaceOnUse">
<stop stop-color="#4070F4"/>
<stop offset="1" stop-color="#2BD67B"/>
</linearGradient>
</defs>
</svg>
