<svg width="26" height="26" viewBox="0 0 26 26" fill="none" xmlns="http://www.w3.org/2000/svg">
<path d="M25.5288 3.89903C25.5288 2.23302 24.1783 0.882568 22.5123 0.882568H3.44456C1.77856 0.882568 0.428101 2.23302 0.428101 3.89903V22.9666C0.428101 24.6328 1.77856 25.9832 3.44456 25.9832H22.5123C24.1783 25.9832 25.5288 24.6328 25.5288 22.9666V3.89903ZM11.7832 20.5129C11.7832 21.2713 11.1286 21.7998 10.3702 21.7998H4.92291C4.16451 21.7998 3.61549 21.2713 3.61549 20.5129V5.31104C3.61549 4.55245 4.16451 3.87074 4.92291 3.87074H10.3702C11.1286 3.87074 11.7832 4.55245 11.7832 5.31104V20.5129ZM22.7398 7.27408V13.6261C22.7398 14.3845 22.1549 15.0266 21.3963 15.0266H15.9519C15.1933 15.0266 14.5721 14.3843 14.5721 13.6261V5.23853C14.5721 4.47993 15.1933 3.87074 15.9519 3.87074H21.3963C22.1549 3.87074 22.7398 4.47993 22.7398 5.23853V7.27408Z" fill="url(#paint0_linear_93_76)"/>
<defs>
<linearGradient id="paint0_linear_93_76" x1="0.428101" y1="25.9832" x2="25.5288" y2="0.882568" gradientUnits="userSpaceOnUse">
<stop stop-color="#4070F4"/>
<stop offset="1" stop-color="#2BD67B"/>
</linearGradient>
</defs>
</svg>
