<svg width="26" height="26" viewBox="0 0 26 26" fill="none" xmlns="http://www.w3.org/2000/svg">
<path d="M0 13V26H26V0H0V13ZM20.9518 11.96C21.5746 12.1045 22.1406 12.4302 22.5784 12.896C22.8194 13.1469 23.029 13.4263 23.2024 13.728C23.2024 13.7613 22.0792 14.5205 21.3949 14.9448C21.3699 14.9614 21.2701 14.8533 21.1598 14.689C21.0349 14.4734 20.8574 14.293 20.6439 14.1646C20.4304 14.0362 20.1878 13.964 19.9389 13.9547C19.1506 13.9006 18.643 14.3146 18.6472 14.9947C18.6407 15.1641 18.6795 15.3321 18.7595 15.4814C18.9322 15.8413 19.2546 16.0555 20.2654 16.4923C22.127 17.2931 22.9237 17.8214 23.4187 18.5723C23.972 19.4043 24.0947 20.748 23.7203 21.7422C23.3043 22.8238 22.2851 23.5581 20.8437 23.8014C20.1853 23.8768 19.5201 23.8699 18.8635 23.7806C17.8614 23.6181 16.937 23.1409 16.224 22.4182C15.9848 22.1541 15.5189 21.4656 15.548 21.4157C15.6239 21.3593 15.7039 21.3086 15.7872 21.2638L16.744 20.7147L17.4907 20.2821L17.6467 20.513C17.91 20.8896 18.245 21.2105 18.6326 21.4573C19.4646 21.8941 20.6003 21.8338 21.1619 21.3283C21.3505 21.1431 21.4681 20.8976 21.4943 20.6346C21.5206 20.3716 21.4537 20.1078 21.3054 19.889C21.0974 19.5998 20.6814 19.3565 19.5187 18.849C18.1771 18.2707 17.5989 17.913 17.0706 17.343C16.7407 16.967 16.4972 16.5232 16.3571 16.043C16.2526 15.4944 16.2372 14.9326 16.3114 14.379C16.588 13.0832 17.5594 12.1784 18.9779 11.9101C19.6349 11.8288 20.3003 11.847 20.9518 11.9642V11.96ZM14.8491 13.0499V14.1149H11.4733V23.7307H9.0792V14.1128H5.69504V13.0728C5.68596 12.7148 5.69568 12.3565 5.72416 11.9995C5.73664 11.9829 7.80416 11.9746 10.3002 11.9787H14.8366L14.8491 13.0499Z" fill="url(#paint0_linear_407_28)"/>
<defs>
<linearGradient id="paint0_linear_407_28" x1="0" y1="26" x2="26" y2="0" gradientUnits="userSpaceOnUse">
<stop stop-color="#4070F4"/>
<stop offset="1" stop-color="#2BD67B"/>
</linearGradient>
</defs>
</svg>
