<svg width="24" height="24" viewBox="0 0 24 24" fill="none" xmlns="http://www.w3.org/2000/svg">
<path d="M13.0001 21V23H11.0001V21H3.00012C2.73491 21 2.48055 20.8946 2.29302 20.7071C2.10548 20.5196 2.00012 20.2652 2.00012 20V4C2.00012 3.73479 2.10548 3.48043 2.29302 3.2929C2.48055 3.10536 2.73491 3 3.00012 3H9.00012C9.56771 2.99933 10.1289 3.11976 10.6462 3.35325C11.1636 3.58674 11.6251 3.92792 12.0001 4.354C12.3751 3.92792 12.8367 3.58674 13.354 3.35325C13.8713 3.11976 14.4325 2.99933 15.0001 3H21.0001C21.2653 3 21.5197 3.10536 21.7072 3.2929C21.8948 3.48043 22.0001 3.73479 22.0001 4V20C22.0001 20.2652 21.8948 20.5196 21.7072 20.7071C21.5197 20.8946 21.2653 21 21.0001 21H13.0001ZM20.0001 19V5H15.0001C14.4697 5 13.961 5.21072 13.5859 5.58579C13.2108 5.96086 13.0001 6.46957 13.0001 7V19H20.0001ZM11.0001 19V7C11.0001 6.46957 10.7894 5.96086 10.4143 5.58579C10.0393 5.21072 9.53056 5 9.00012 5H4.00012V19H11.0001Z" fill="white"/>
</svg>
