<svg width="24" height="18" viewBox="0 0 24 18" fill="none" xmlns="http://www.w3.org/2000/svg">
<path d="M23.5112 4.98007L12.3152 0.0708241C12.1154 -0.023608 11.8849 -0.023608 11.6851 0.0708241L0.488996 4.98007C0.337966 5.03738 0.208968 5.14277 0.121213 5.28067C0.0334581 5.41876 -0.00853668 5.58185 0.0014426 5.74609C-0.000817202 5.9086 0.0441905 6.06842 0.131004 6.20478C0.217818 6.34113 0.342483 6.44807 0.488996 6.51192L3.91618 8.04356L3.16629 13.872H3.1661C3.13691 14.1251 3.22579 14.3774 3.4062 14.5536C5.76975 16.7239 8.82201 17.9481 12.0004 18C15.1734 17.9221 18.2117 16.6764 20.5571 14.4924C20.7375 14.3163 20.8262 14.0637 20.797 13.8106L20.0846 7.98222L22.4018 6.97118V17.1805H23.9993V5.73096C24.0061 5.56921 23.9626 5.40959 23.875 5.27477C23.7875 5.13995 23.6602 5.03687 23.5118 4.98032L23.5112 4.98007ZM19.1541 13.5961C17.1424 15.3142 14.6215 16.2883 11.9999 16.361C9.37894 16.2854 6.85891 15.3115 4.8457 13.5961L5.44566 8.67168L11.6849 11.4059H11.6847C11.8871 11.4879 12.1124 11.4879 12.3148 11.4059L18.554 8.67168L19.1541 13.5961ZM11.9999 9.76681L2.82815 5.7307L11.9999 1.7098L21.1717 5.7307L11.9999 9.76681Z" fill="white"/>
</svg>
