<svg width="24" height="24" viewBox="0 0 24 24" fill="none" xmlns="http://www.w3.org/2000/svg">
<path d="M12.0001 20.9L16.9501 15.95C17.929 14.971 18.5956 13.7237 18.8657 12.3659C19.1357 11.008 18.997 9.6006 18.4672 8.32155C17.9374 7.04251 17.0402 5.9493 15.889 5.18017C14.7379 4.41103 13.3846 4.0005 12.0001 4.0005C10.6157 4.0005 9.26234 4.41103 8.11121 5.18017C6.96008 5.9493 6.06287 7.04251 5.53304 8.32155C5.0032 9.6006 4.86454 11.008 5.13458 12.3659C5.40462 13.7237 6.07123 14.971 7.05013 15.95L12.0001 20.9ZM12.0001 23.728L5.63613 17.364C4.37746 16.1053 3.52031 14.5017 3.17305 12.7558C2.82579 11.01 3.00403 9.20043 3.68522 7.5559C4.36641 5.91137 5.51997 4.50577 7.00001 3.51684C8.48005 2.52791 10.2201 2.00008 12.0001 2.00008C13.7802 2.00008 15.5202 2.52791 17.0002 3.51684C18.4803 4.50577 19.6338 5.91137 20.315 7.5559C20.9962 9.20043 21.1745 11.01 20.8272 12.7558C20.4799 14.5017 19.6228 16.1053 18.3641 17.364L12.0001 23.728ZM12.0001 13C12.5306 13 13.0393 12.7893 13.4143 12.4142C13.7894 12.0391 14.0001 11.5304 14.0001 11C14.0001 10.4696 13.7894 9.96086 13.4143 9.58578C13.0393 9.21071 12.5306 9 12.0001 9C11.4697 9 10.961 9.21071 10.5859 9.58578C10.2108 9.96086 10.0001 10.4696 10.0001 11C10.0001 11.5304 10.2108 12.0391 10.5859 12.4142C10.961 12.7893 11.4697 13 12.0001 13ZM12.0001 15C10.9393 15 9.92184 14.5786 9.1717 13.8284C8.42155 13.0783 8.00013 12.0609 8.00013 11C8.00013 9.93913 8.42155 8.92172 9.1717 8.17157C9.92184 7.42143 10.9393 7 12.0001 7C13.061 7 14.0784 7.42143 14.8286 8.17157C15.5787 8.92172 16.0001 9.93913 16.0001 11C16.0001 12.0609 15.5787 13.0783 14.8286 13.8284C14.0784 14.5786 13.061 15 12.0001 15Z" fill="white"/>
</svg>
