<svg width="16" height="21" viewBox="0 0 16 21" fill="none" xmlns="http://www.w3.org/2000/svg">
<path d="M0.00012207 21C0.00012207 18.8783 0.842977 16.8434 2.34327 15.3431C3.84356 13.8429 5.87839 13 8.00012 13C10.1219 13 12.1567 13.8429 13.657 15.3431C15.1573 16.8434 16.0001 18.8783 16.0001 21H0.00012207ZM9.00012 15.083V19H13.6591C13.3016 17.9914 12.6813 17.0966 11.8623 16.408C11.0432 15.7193 10.0551 15.2619 9.00012 15.083ZM7.00012 19V15.083C5.94512 15.2619 4.95703 15.7193 4.13797 16.408C3.31891 17.0966 2.6986 17.9914 2.34112 19H7.00012ZM8.00012 12C4.68512 12 2.00012 9.315 2.00012 6C2.00012 2.685 4.68512 0 8.00012 0C11.3151 0 14.0001 2.685 14.0001 6C14.0001 9.315 11.3151 12 8.00012 12ZM8.00012 10C10.2101 10 12.0001 8.21 12.0001 6C12.0001 3.79 10.2101 2 8.00012 2C5.79012 2 4.00012 3.79 4.00012 6C4.00012 8.21 5.79012 10 8.00012 10Z" fill="white"/>
</svg>
